<?xml version="1.0" encoding="utf-8" standalone="no"?>
<!DOCTYPE svg PUBLIC "-//W3C//DTD SVG 1.1//EN"
  "http://www.w3.org/Graphics/SVG/1.1/DTD/svg11.dtd">
<!-- Created with matplotlib (http://matplotlib.org/) -->
<svg height="720pt" version="1.1" viewBox="0 0 1152 720" width="1152pt" xmlns="http://www.w3.org/2000/svg" xmlns:xlink="http://www.w3.org/1999/xlink">
 <defs>
  <style type="text/css">
*{stroke-linecap:butt;stroke-linejoin:round;}
  </style>
 </defs>
 <g id="figure_1">
  <g id="patch_1">
   <path d="M 0 720 
L 1152 720 
L 1152 0 
L 0 0 
z
" style="fill:#ffffff;"/>
  </g>
  <g id="axes_1">
   <g id="patch_2">
    <path d="M 144 630 
L 1036.8 630 
L 1036.8 86.4 
L 144 86.4 
z
" style="fill:#ffffff;"/>
   </g>
   <g id="matplotlib.axis_1">
    <g id="xtick_1">
     <g id="line2d_1">
      <defs>
       <path d="M 0 0 
L 0 3.5 
" id="mffcdf7e921" style="stroke:#000000;stroke-width:0.8;"/>
      </defs>
      <g>
       <use style="stroke:#000000;stroke-width:0.8;" x="183.90489" xlink:href="#mffcdf7e921" y="630"/>
      </g>
     </g>
     <g id="text_1">
      <!-- 0 -->
      <defs>
       <path d="M 31.78125 66.40625 
Q 24.171875 66.40625 20.328125 58.90625 
Q 16.5 51.421875 16.5 36.375 
Q 16.5 21.390625 20.328125 13.890625 
Q 24.171875 6.390625 31.78125 6.390625 
Q 39.453125 6.390625 43.28125 13.890625 
Q 47.125 21.390625 47.125 36.375 
Q 47.125 51.421875 43.28125 58.90625 
Q 39.453125 66.40625 31.78125 66.40625 
z
M 31.78125 74.21875 
Q 44.046875 74.21875 50.515625 64.515625 
Q 56.984375 54.828125 56.984375 36.375 
Q 56.984375 17.96875 50.515625 8.265625 
Q 44.046875 -1.421875 31.78125 -1.421875 
Q 19.53125 -1.421875 13.0625 8.265625 
Q 6.59375 17.96875 6.59375 36.375 
Q 6.59375 54.828125 13.0625 64.515625 
Q 19.53125 74.21875 31.78125 74.21875 
z
" id="DejaVuSans-30"/>
      </defs>
      <g transform="translate(180.72364 644.598438)scale(0.1 -0.1)">
       <use xlink:href="#DejaVuSans-30"/>
      </g>
     </g>
    </g>
    <g id="xtick_2">
     <g id="line2d_2">
      <g>
       <use style="stroke:#000000;stroke-width:0.8;" x="319.290439" xlink:href="#mffcdf7e921" y="630"/>
      </g>
     </g>
     <g id="text_2">
      <!-- 200 -->
      <defs>
       <path d="M 19.1875 8.296875 
L 53.609375 8.296875 
L 53.609375 0 
L 7.328125 0 
L 7.328125 8.296875 
Q 12.9375 14.109375 22.625 23.890625 
Q 32.328125 33.6875 34.8125 36.53125 
Q 39.546875 41.84375 41.421875 45.53125 
Q 43.3125 49.21875 43.3125 52.78125 
Q 43.3125 58.59375 39.234375 62.25 
Q 35.15625 65.921875 28.609375 65.921875 
Q 23.96875 65.921875 18.8125 64.3125 
Q 13.671875 62.703125 7.8125 59.421875 
L 7.8125 69.390625 
Q 13.765625 71.78125 18.9375 73 
Q 24.125 74.21875 28.421875 74.21875 
Q 39.75 74.21875 46.484375 68.546875 
Q 53.21875 62.890625 53.21875 53.421875 
Q 53.21875 48.921875 51.53125 44.890625 
Q 49.859375 40.875 45.40625 35.40625 
Q 44.1875 33.984375 37.640625 27.21875 
Q 31.109375 20.453125 19.1875 8.296875 
z
" id="DejaVuSans-32"/>
      </defs>
      <g transform="translate(309.746689 644.598438)scale(0.1 -0.1)">
       <use xlink:href="#DejaVuSans-32"/>
       <use x="63.623047" xlink:href="#DejaVuSans-30"/>
       <use x="127.246094" xlink:href="#DejaVuSans-30"/>
      </g>
     </g>
    </g>
    <g id="xtick_3">
     <g id="line2d_3">
      <g>
       <use style="stroke:#000000;stroke-width:0.8;" x="454.675988" xlink:href="#mffcdf7e921" y="630"/>
      </g>
     </g>
     <g id="text_3">
      <!-- 400 -->
      <defs>
       <path d="M 37.796875 64.3125 
L 12.890625 25.390625 
L 37.796875 25.390625 
z
M 35.203125 72.90625 
L 47.609375 72.90625 
L 47.609375 25.390625 
L 58.015625 25.390625 
L 58.015625 17.1875 
L 47.609375 17.1875 
L 47.609375 0 
L 37.796875 0 
L 37.796875 17.1875 
L 4.890625 17.1875 
L 4.890625 26.703125 
z
" id="DejaVuSans-34"/>
      </defs>
      <g transform="translate(445.132238 644.598438)scale(0.1 -0.1)">
       <use xlink:href="#DejaVuSans-34"/>
       <use x="63.623047" xlink:href="#DejaVuSans-30"/>
       <use x="127.246094" xlink:href="#DejaVuSans-30"/>
      </g>
     </g>
    </g>
    <g id="xtick_4">
     <g id="line2d_4">
      <g>
       <use style="stroke:#000000;stroke-width:0.8;" x="590.061536" xlink:href="#mffcdf7e921" y="630"/>
      </g>
     </g>
     <g id="text_4">
      <!-- 600 -->
      <defs>
       <path d="M 33.015625 40.375 
Q 26.375 40.375 22.484375 35.828125 
Q 18.609375 31.296875 18.609375 23.390625 
Q 18.609375 15.53125 22.484375 10.953125 
Q 26.375 6.390625 33.015625 6.390625 
Q 39.65625 6.390625 43.53125 10.953125 
Q 47.40625 15.53125 47.40625 23.390625 
Q 47.40625 31.296875 43.53125 35.828125 
Q 39.65625 40.375 33.015625 40.375 
z
M 52.59375 71.296875 
L 52.59375 62.3125 
Q 48.875 64.0625 45.09375 64.984375 
Q 41.3125 65.921875 37.59375 65.921875 
Q 27.828125 65.921875 22.671875 59.328125 
Q 17.53125 52.734375 16.796875 39.40625 
Q 19.671875 43.65625 24.015625 45.921875 
Q 28.375 48.1875 33.59375 48.1875 
Q 44.578125 48.1875 50.953125 41.515625 
Q 57.328125 34.859375 57.328125 23.390625 
Q 57.328125 12.15625 50.6875 5.359375 
Q 44.046875 -1.421875 33.015625 -1.421875 
Q 20.359375 -1.421875 13.671875 8.265625 
Q 6.984375 17.96875 6.984375 36.375 
Q 6.984375 53.65625 15.1875 63.9375 
Q 23.390625 74.21875 37.203125 74.21875 
Q 40.921875 74.21875 44.703125 73.484375 
Q 48.484375 72.75 52.59375 71.296875 
z
" id="DejaVuSans-36"/>
      </defs>
      <g transform="translate(580.517786 644.598438)scale(0.1 -0.1)">
       <use xlink:href="#DejaVuSans-36"/>
       <use x="63.623047" xlink:href="#DejaVuSans-30"/>
       <use x="127.246094" xlink:href="#DejaVuSans-30"/>
      </g>
     </g>
    </g>
    <g id="xtick_5">
     <g id="line2d_5">
      <g>
       <use style="stroke:#000000;stroke-width:0.8;" x="725.447085" xlink:href="#mffcdf7e921" y="630"/>
      </g>
     </g>
     <g id="text_5">
      <!-- 800 -->
      <defs>
       <path d="M 31.78125 34.625 
Q 24.75 34.625 20.71875 30.859375 
Q 16.703125 27.09375 16.703125 20.515625 
Q 16.703125 13.921875 20.71875 10.15625 
Q 24.75 6.390625 31.78125 6.390625 
Q 38.8125 6.390625 42.859375 10.171875 
Q 46.921875 13.96875 46.921875 20.515625 
Q 46.921875 27.09375 42.890625 30.859375 
Q 38.875 34.625 31.78125 34.625 
z
M 21.921875 38.8125 
Q 15.578125 40.375 12.03125 44.71875 
Q 8.5 49.078125 8.5 55.328125 
Q 8.5 64.0625 14.71875 69.140625 
Q 20.953125 74.21875 31.78125 74.21875 
Q 42.671875 74.21875 48.875 69.140625 
Q 55.078125 64.0625 55.078125 55.328125 
Q 55.078125 49.078125 51.53125 44.71875 
Q 48 40.375 41.703125 38.8125 
Q 48.828125 37.15625 52.796875 32.3125 
Q 56.78125 27.484375 56.78125 20.515625 
Q 56.78125 9.90625 50.3125 4.234375 
Q 43.84375 -1.421875 31.78125 -1.421875 
Q 19.734375 -1.421875 13.25 4.234375 
Q 6.78125 9.90625 6.78125 20.515625 
Q 6.78125 27.484375 10.78125 32.3125 
Q 14.796875 37.15625 21.921875 38.8125 
z
M 18.3125 54.390625 
Q 18.3125 48.734375 21.84375 45.5625 
Q 25.390625 42.390625 31.78125 42.390625 
Q 38.140625 42.390625 41.71875 45.5625 
Q 45.3125 48.734375 45.3125 54.390625 
Q 45.3125 60.0625 41.71875 63.234375 
Q 38.140625 66.40625 31.78125 66.40625 
Q 25.390625 66.40625 21.84375 63.234375 
Q 18.3125 60.0625 18.3125 54.390625 
z
" id="DejaVuSans-38"/>
      </defs>
      <g transform="translate(715.903335 644.598438)scale(0.1 -0.1)">
       <use xlink:href="#DejaVuSans-38"/>
       <use x="63.623047" xlink:href="#DejaVuSans-30"/>
       <use x="127.246094" xlink:href="#DejaVuSans-30"/>
      </g>
     </g>
    </g>
    <g id="xtick_6">
     <g id="line2d_6">
      <g>
       <use style="stroke:#000000;stroke-width:0.8;" x="860.832633" xlink:href="#mffcdf7e921" y="630"/>
      </g>
     </g>
     <g id="text_6">
      <!-- 1000 -->
      <defs>
       <path d="M 12.40625 8.296875 
L 28.515625 8.296875 
L 28.515625 63.921875 
L 10.984375 60.40625 
L 10.984375 69.390625 
L 28.421875 72.90625 
L 38.28125 72.90625 
L 38.28125 8.296875 
L 54.390625 8.296875 
L 54.390625 0 
L 12.40625 0 
z
" id="DejaVuSans-31"/>
      </defs>
      <g transform="translate(848.107633 644.598438)scale(0.1 -0.1)">
       <use xlink:href="#DejaVuSans-31"/>
       <use x="63.623047" xlink:href="#DejaVuSans-30"/>
       <use x="127.246094" xlink:href="#DejaVuSans-30"/>
       <use x="190.869141" xlink:href="#DejaVuSans-30"/>
      </g>
     </g>
    </g>
    <g id="xtick_7">
     <g id="line2d_7">
      <g>
       <use style="stroke:#000000;stroke-width:0.8;" x="996.218182" xlink:href="#mffcdf7e921" y="630"/>
      </g>
     </g>
     <g id="text_7">
      <!-- 1200 -->
      <g transform="translate(983.493182 644.598438)scale(0.1 -0.1)">
       <use xlink:href="#DejaVuSans-31"/>
       <use x="63.623047" xlink:href="#DejaVuSans-32"/>
       <use x="127.246094" xlink:href="#DejaVuSans-30"/>
       <use x="190.869141" xlink:href="#DejaVuSans-30"/>
      </g>
     </g>
    </g>
    <g id="text_8">
     <!-- generation -->
     <defs>
      <path d="M 45.40625 27.984375 
Q 45.40625 37.75 41.375 43.109375 
Q 37.359375 48.484375 30.078125 48.484375 
Q 22.859375 48.484375 18.828125 43.109375 
Q 14.796875 37.75 14.796875 27.984375 
Q 14.796875 18.265625 18.828125 12.890625 
Q 22.859375 7.515625 30.078125 7.515625 
Q 37.359375 7.515625 41.375 12.890625 
Q 45.40625 18.265625 45.40625 27.984375 
z
M 54.390625 6.78125 
Q 54.390625 -7.171875 48.1875 -13.984375 
Q 42 -20.796875 29.203125 -20.796875 
Q 24.46875 -20.796875 20.265625 -20.09375 
Q 16.0625 -19.390625 12.109375 -17.921875 
L 12.109375 -9.1875 
Q 16.0625 -11.328125 19.921875 -12.34375 
Q 23.78125 -13.375 27.78125 -13.375 
Q 36.625 -13.375 41.015625 -8.765625 
Q 45.40625 -4.15625 45.40625 5.171875 
L 45.40625 9.625 
Q 42.625 4.78125 38.28125 2.390625 
Q 33.9375 0 27.875 0 
Q 17.828125 0 11.671875 7.65625 
Q 5.515625 15.328125 5.515625 27.984375 
Q 5.515625 40.671875 11.671875 48.328125 
Q 17.828125 56 27.875 56 
Q 33.9375 56 38.28125 53.609375 
Q 42.625 51.21875 45.40625 46.390625 
L 45.40625 54.6875 
L 54.390625 54.6875 
z
" id="DejaVuSans-67"/>
      <path d="M 56.203125 29.59375 
L 56.203125 25.203125 
L 14.890625 25.203125 
Q 15.484375 15.921875 20.484375 11.0625 
Q 25.484375 6.203125 34.421875 6.203125 
Q 39.59375 6.203125 44.453125 7.46875 
Q 49.3125 8.734375 54.109375 11.28125 
L 54.109375 2.78125 
Q 49.265625 0.734375 44.1875 -0.34375 
Q 39.109375 -1.421875 33.890625 -1.421875 
Q 20.796875 -1.421875 13.15625 6.1875 
Q 5.515625 13.8125 5.515625 26.8125 
Q 5.515625 40.234375 12.765625 48.109375 
Q 20.015625 56 32.328125 56 
Q 43.359375 56 49.78125 48.890625 
Q 56.203125 41.796875 56.203125 29.59375 
z
M 47.21875 32.234375 
Q 47.125 39.59375 43.09375 43.984375 
Q 39.0625 48.390625 32.421875 48.390625 
Q 24.90625 48.390625 20.390625 44.140625 
Q 15.875 39.890625 15.1875 32.171875 
z
" id="DejaVuSans-65"/>
      <path d="M 54.890625 33.015625 
L 54.890625 0 
L 45.90625 0 
L 45.90625 32.71875 
Q 45.90625 40.484375 42.875 44.328125 
Q 39.84375 48.1875 33.796875 48.1875 
Q 26.515625 48.1875 22.3125 43.546875 
Q 18.109375 38.921875 18.109375 30.90625 
L 18.109375 0 
L 9.078125 0 
L 9.078125 54.6875 
L 18.109375 54.6875 
L 18.109375 46.1875 
Q 21.34375 51.125 25.703125 53.5625 
Q 30.078125 56 35.796875 56 
Q 45.21875 56 50.046875 50.171875 
Q 54.890625 44.34375 54.890625 33.015625 
z
" id="DejaVuSans-6e"/>
      <path d="M 41.109375 46.296875 
Q 39.59375 47.171875 37.8125 47.578125 
Q 36.03125 48 33.890625 48 
Q 26.265625 48 22.1875 43.046875 
Q 18.109375 38.09375 18.109375 28.8125 
L 18.109375 0 
L 9.078125 0 
L 9.078125 54.6875 
L 18.109375 54.6875 
L 18.109375 46.1875 
Q 20.953125 51.171875 25.484375 53.578125 
Q 30.03125 56 36.53125 56 
Q 37.453125 56 38.578125 55.875 
Q 39.703125 55.765625 41.0625 55.515625 
z
" id="DejaVuSans-72"/>
      <path d="M 34.28125 27.484375 
Q 23.390625 27.484375 19.1875 25 
Q 14.984375 22.515625 14.984375 16.5 
Q 14.984375 11.71875 18.140625 8.90625 
Q 21.296875 6.109375 26.703125 6.109375 
Q 34.1875 6.109375 38.703125 11.40625 
Q 43.21875 16.703125 43.21875 25.484375 
L 43.21875 27.484375 
z
M 52.203125 31.203125 
L 52.203125 0 
L 43.21875 0 
L 43.21875 8.296875 
Q 40.140625 3.328125 35.546875 0.953125 
Q 30.953125 -1.421875 24.3125 -1.421875 
Q 15.921875 -1.421875 10.953125 3.296875 
Q 6 8.015625 6 15.921875 
Q 6 25.140625 12.171875 29.828125 
Q 18.359375 34.515625 30.609375 34.515625 
L 43.21875 34.515625 
L 43.21875 35.40625 
Q 43.21875 41.609375 39.140625 45 
Q 35.0625 48.390625 27.6875 48.390625 
Q 23 48.390625 18.546875 47.265625 
Q 14.109375 46.140625 10.015625 43.890625 
L 10.015625 52.203125 
Q 14.9375 54.109375 19.578125 55.046875 
Q 24.21875 56 28.609375 56 
Q 40.484375 56 46.34375 49.84375 
Q 52.203125 43.703125 52.203125 31.203125 
z
" id="DejaVuSans-61"/>
      <path d="M 18.3125 70.21875 
L 18.3125 54.6875 
L 36.8125 54.6875 
L 36.8125 47.703125 
L 18.3125 47.703125 
L 18.3125 18.015625 
Q 18.3125 11.328125 20.140625 9.421875 
Q 21.96875 7.515625 27.59375 7.515625 
L 36.8125 7.515625 
L 36.8125 0 
L 27.59375 0 
Q 17.1875 0 13.234375 3.875 
Q 9.28125 7.765625 9.28125 18.015625 
L 9.28125 47.703125 
L 2.6875 47.703125 
L 2.6875 54.6875 
L 9.28125 54.6875 
L 9.28125 70.21875 
z
" id="DejaVuSans-74"/>
      <path d="M 9.421875 54.6875 
L 18.40625 54.6875 
L 18.40625 0 
L 9.421875 0 
z
M 9.421875 75.984375 
L 18.40625 75.984375 
L 18.40625 64.59375 
L 9.421875 64.59375 
z
" id="DejaVuSans-69"/>
      <path d="M 30.609375 48.390625 
Q 23.390625 48.390625 19.1875 42.75 
Q 14.984375 37.109375 14.984375 27.296875 
Q 14.984375 17.484375 19.15625 11.84375 
Q 23.34375 6.203125 30.609375 6.203125 
Q 37.796875 6.203125 41.984375 11.859375 
Q 46.1875 17.53125 46.1875 27.296875 
Q 46.1875 37.015625 41.984375 42.703125 
Q 37.796875 48.390625 30.609375 48.390625 
z
M 30.609375 56 
Q 42.328125 56 49.015625 48.375 
Q 55.71875 40.765625 55.71875 27.296875 
Q 55.71875 13.875 49.015625 6.21875 
Q 42.328125 -1.421875 30.609375 -1.421875 
Q 18.84375 -1.421875 12.171875 6.21875 
Q 5.515625 13.875 5.515625 27.296875 
Q 5.515625 40.765625 12.171875 48.375 
Q 18.84375 56 30.609375 56 
z
" id="DejaVuSans-6f"/>
     </defs>
     <g transform="translate(563.207031 658.276562)scale(0.1 -0.1)">
      <use xlink:href="#DejaVuSans-67"/>
      <use x="63.476562" xlink:href="#DejaVuSans-65"/>
      <use x="125" xlink:href="#DejaVuSans-6e"/>
      <use x="188.378906" xlink:href="#DejaVuSans-65"/>
      <use x="249.902344" xlink:href="#DejaVuSans-72"/>
      <use x="291.015625" xlink:href="#DejaVuSans-61"/>
      <use x="352.294922" xlink:href="#DejaVuSans-74"/>
      <use x="391.503906" xlink:href="#DejaVuSans-69"/>
      <use x="419.287109" xlink:href="#DejaVuSans-6f"/>
      <use x="480.46875" xlink:href="#DejaVuSans-6e"/>
     </g>
    </g>
   </g>
   <g id="matplotlib.axis_2">
    <g id="ytick_1">
     <g id="line2d_8">
      <defs>
       <path d="M 0 0 
L -3.5 0 
" id="mb3592790c3" style="stroke:#000000;stroke-width:0.8;"/>
      </defs>
      <g>
       <use style="stroke:#000000;stroke-width:0.8;" x="144" xlink:href="#mb3592790c3" y="524.517905"/>
      </g>
     </g>
     <g id="text_9">
      <!-- 0.2 -->
      <defs>
       <path d="M 10.6875 12.40625 
L 21 12.40625 
L 21 0 
L 10.6875 0 
z
" id="DejaVuSans-2e"/>
      </defs>
      <g transform="translate(121.096875 528.317124)scale(0.1 -0.1)">
       <use xlink:href="#DejaVuSans-30"/>
       <use x="63.623047" xlink:href="#DejaVuSans-2e"/>
       <use x="95.410156" xlink:href="#DejaVuSans-32"/>
      </g>
     </g>
    </g>
    <g id="ytick_2">
     <g id="line2d_9">
      <g>
       <use style="stroke:#000000;stroke-width:0.8;" x="144" xlink:href="#mb3592790c3" y="409.574249"/>
      </g>
     </g>
     <g id="text_10">
      <!-- 0.4 -->
      <g transform="translate(121.096875 413.373467)scale(0.1 -0.1)">
       <use xlink:href="#DejaVuSans-30"/>
       <use x="63.623047" xlink:href="#DejaVuSans-2e"/>
       <use x="95.410156" xlink:href="#DejaVuSans-34"/>
      </g>
     </g>
    </g>
    <g id="ytick_3">
     <g id="line2d_10">
      <g>
       <use style="stroke:#000000;stroke-width:0.8;" x="144" xlink:href="#mb3592790c3" y="294.630592"/>
      </g>
     </g>
     <g id="text_11">
      <!-- 0.6 -->
      <g transform="translate(121.096875 298.429811)scale(0.1 -0.1)">
       <use xlink:href="#DejaVuSans-30"/>
       <use x="63.623047" xlink:href="#DejaVuSans-2e"/>
       <use x="95.410156" xlink:href="#DejaVuSans-36"/>
      </g>
     </g>
    </g>
    <g id="ytick_4">
     <g id="line2d_11">
      <g>
       <use style="stroke:#000000;stroke-width:0.8;" x="144" xlink:href="#mb3592790c3" y="179.686936"/>
      </g>
     </g>
     <g id="text_12">
      <!-- 0.8 -->
      <g transform="translate(121.096875 183.486154)scale(0.1 -0.1)">
       <use xlink:href="#DejaVuSans-30"/>
       <use x="63.623047" xlink:href="#DejaVuSans-2e"/>
       <use x="95.410156" xlink:href="#DejaVuSans-38"/>
      </g>
     </g>
    </g>
    <g id="text_13">
     <!-- cumulative reward -->
     <defs>
      <path d="M 48.78125 52.59375 
L 48.78125 44.1875 
Q 44.96875 46.296875 41.140625 47.34375 
Q 37.3125 48.390625 33.40625 48.390625 
Q 24.65625 48.390625 19.8125 42.84375 
Q 14.984375 37.3125 14.984375 27.296875 
Q 14.984375 17.28125 19.8125 11.734375 
Q 24.65625 6.203125 33.40625 6.203125 
Q 37.3125 6.203125 41.140625 7.25 
Q 44.96875 8.296875 48.78125 10.40625 
L 48.78125 2.09375 
Q 45.015625 0.34375 40.984375 -0.53125 
Q 36.96875 -1.421875 32.421875 -1.421875 
Q 20.0625 -1.421875 12.78125 6.34375 
Q 5.515625 14.109375 5.515625 27.296875 
Q 5.515625 40.671875 12.859375 48.328125 
Q 20.21875 56 33.015625 56 
Q 37.15625 56 41.109375 55.140625 
Q 45.0625 54.296875 48.78125 52.59375 
z
" id="DejaVuSans-63"/>
      <path d="M 8.5 21.578125 
L 8.5 54.6875 
L 17.484375 54.6875 
L 17.484375 21.921875 
Q 17.484375 14.15625 20.5 10.265625 
Q 23.53125 6.390625 29.59375 6.390625 
Q 36.859375 6.390625 41.078125 11.03125 
Q 45.3125 15.671875 45.3125 23.6875 
L 45.3125 54.6875 
L 54.296875 54.6875 
L 54.296875 0 
L 45.3125 0 
L 45.3125 8.40625 
Q 42.046875 3.421875 37.71875 1 
Q 33.40625 -1.421875 27.6875 -1.421875 
Q 18.265625 -1.421875 13.375 4.4375 
Q 8.5 10.296875 8.5 21.578125 
z
M 31.109375 56 
z
" id="DejaVuSans-75"/>
      <path d="M 52 44.1875 
Q 55.375 50.25 60.0625 53.125 
Q 64.75 56 71.09375 56 
Q 79.640625 56 84.28125 50.015625 
Q 88.921875 44.046875 88.921875 33.015625 
L 88.921875 0 
L 79.890625 0 
L 79.890625 32.71875 
Q 79.890625 40.578125 77.09375 44.375 
Q 74.3125 48.1875 68.609375 48.1875 
Q 61.625 48.1875 57.5625 43.546875 
Q 53.515625 38.921875 53.515625 30.90625 
L 53.515625 0 
L 44.484375 0 
L 44.484375 32.71875 
Q 44.484375 40.625 41.703125 44.40625 
Q 38.921875 48.1875 33.109375 48.1875 
Q 26.21875 48.1875 22.15625 43.53125 
Q 18.109375 38.875 18.109375 30.90625 
L 18.109375 0 
L 9.078125 0 
L 9.078125 54.6875 
L 18.109375 54.6875 
L 18.109375 46.1875 
Q 21.1875 51.21875 25.484375 53.609375 
Q 29.78125 56 35.6875 56 
Q 41.65625 56 45.828125 52.96875 
Q 50 49.953125 52 44.1875 
z
" id="DejaVuSans-6d"/>
      <path d="M 9.421875 75.984375 
L 18.40625 75.984375 
L 18.40625 0 
L 9.421875 0 
z
" id="DejaVuSans-6c"/>
      <path d="M 2.984375 54.6875 
L 12.5 54.6875 
L 29.59375 8.796875 
L 46.6875 54.6875 
L 56.203125 54.6875 
L 35.6875 0 
L 23.484375 0 
z
" id="DejaVuSans-76"/>
      <path id="DejaVuSans-20"/>
      <path d="M 4.203125 54.6875 
L 13.1875 54.6875 
L 24.421875 12.015625 
L 35.59375 54.6875 
L 46.1875 54.6875 
L 57.421875 12.015625 
L 68.609375 54.6875 
L 77.59375 54.6875 
L 63.28125 0 
L 52.6875 0 
L 40.921875 44.828125 
L 29.109375 0 
L 18.5 0 
z
" id="DejaVuSans-77"/>
      <path d="M 45.40625 46.390625 
L 45.40625 75.984375 
L 54.390625 75.984375 
L 54.390625 0 
L 45.40625 0 
L 45.40625 8.203125 
Q 42.578125 3.328125 38.25 0.953125 
Q 33.9375 -1.421875 27.875 -1.421875 
Q 17.96875 -1.421875 11.734375 6.484375 
Q 5.515625 14.40625 5.515625 27.296875 
Q 5.515625 40.1875 11.734375 48.09375 
Q 17.96875 56 27.875 56 
Q 33.9375 56 38.25 53.625 
Q 42.578125 51.265625 45.40625 46.390625 
z
M 14.796875 27.296875 
Q 14.796875 17.390625 18.875 11.75 
Q 22.953125 6.109375 30.078125 6.109375 
Q 37.203125 6.109375 41.296875 11.75 
Q 45.40625 17.390625 45.40625 27.296875 
Q 45.40625 37.203125 41.296875 42.84375 
Q 37.203125 48.484375 30.078125 48.484375 
Q 22.953125 48.484375 18.875 42.84375 
Q 14.796875 37.203125 14.796875 27.296875 
z
" id="DejaVuSans-64"/>
     </defs>
     <g transform="translate(115.017187 405.096875)rotate(-90)scale(0.1 -0.1)">
      <use xlink:href="#DejaVuSans-63"/>
      <use x="54.980469" xlink:href="#DejaVuSans-75"/>
      <use x="118.359375" xlink:href="#DejaVuSans-6d"/>
      <use x="215.771484" xlink:href="#DejaVuSans-75"/>
      <use x="279.150391" xlink:href="#DejaVuSans-6c"/>
      <use x="306.933594" xlink:href="#DejaVuSans-61"/>
      <use x="368.212891" xlink:href="#DejaVuSans-74"/>
      <use x="407.421875" xlink:href="#DejaVuSans-69"/>
      <use x="435.205078" xlink:href="#DejaVuSans-76"/>
      <use x="494.384766" xlink:href="#DejaVuSans-65"/>
      <use x="555.908203" xlink:href="#DejaVuSans-20"/>
      <use x="587.695312" xlink:href="#DejaVuSans-72"/>
      <use x="628.777344" xlink:href="#DejaVuSans-65"/>
      <use x="690.300781" xlink:href="#DejaVuSans-77"/>
      <use x="772.087891" xlink:href="#DejaVuSans-61"/>
      <use x="833.367188" xlink:href="#DejaVuSans-72"/>
      <use x="874.464844" xlink:href="#DejaVuSans-64"/>
     </g>
    </g>
   </g>
   <g id="line2d_12">
    <path clip-path="url(#p0db0b29e3f)" d="M 184.581818 576.846285 
L 185.258746 582.913361 
L 185.935674 567.128389 
L 186.612601 561.316716 
L 187.289529 560.859161 
L 188.643385 542.294127 
L 189.320312 540.314942 
L 189.99724 531.263366 
L 190.674168 519.306856 
L 191.351096 523.017847 
L 192.028023 520.049627 
L 192.704951 512.695746 
L 193.381879 507.15192 
L 194.058807 489.470534 
L 194.735734 494.470573 
L 195.412662 481.239771 
L 196.08959 494.613044 
L 196.766518 483.248227 
L 197.443445 487.231313 
L 198.120373 477.956191 
L 198.797301 460.058659 
L 199.474229 460.303092 
L 200.151156 468.42045 
L 200.828084 444.345384 
L 201.505012 450.679382 
L 202.181939 460.219062 
L 202.858867 429.479463 
L 203.535795 426.755864 
L 204.212723 436.051865 
L 204.88965 428.148348 
L 205.566578 409.906202 
L 206.243506 422.155505 
L 206.920434 412.554027 
L 208.274289 405.667619 
L 208.951217 397.682848 
L 209.628145 399.352736 
L 210.305072 412.614266 
L 210.982 388.330171 
L 211.658928 398.013486 
L 212.335856 383.825642 
L 213.012783 374.377648 
L 213.689711 372.021512 
L 214.366639 360.67146 
L 215.043567 358.140122 
L 216.397422 356.859586 
L 217.07435 341.106934 
L 217.751278 374.4984 
L 218.428205 355.762421 
L 219.105133 371.879812 
L 219.782061 371.431831 
L 220.458989 365.754416 
L 221.135916 349.337971 
L 221.812844 373.005666 
L 222.489772 360.216645 
L 223.1667 355.686065 
L 223.843627 377.654823 
L 224.520555 362.327766 
L 225.197483 331.142618 
L 225.87441 341.853609 
L 226.551338 313.131699 
L 227.228266 358.813524 
L 227.905194 349.942313 
L 228.582121 342.724942 
L 229.259049 346.162211 
L 229.935977 353.813056 
L 230.612905 340.301887 
L 231.289832 346.479797 
L 231.96676 333.591023 
L 233.320616 352.059669 
L 233.997543 335.382982 
L 234.674471 344.707535 
L 235.351399 342.953223 
L 236.028327 354.624458 
L 236.705254 332.488874 
L 237.382182 352.428194 
L 238.736038 321.861913 
L 239.412965 345.496037 
L 240.089893 341.033181 
L 240.766821 351.678333 
L 241.443749 324.984096 
L 242.120676 339.3159 
L 242.797604 358.563627 
L 243.474532 333.11884 
L 244.15146 364.301384 
L 245.505315 315.885118 
L 246.182243 360.213973 
L 246.859171 345.831436 
L 247.536098 362.601248 
L 248.213026 331.522002 
L 248.889954 346.208217 
L 249.566881 346.862299 
L 250.243809 357.036226 
L 250.920737 347.234591 
L 251.597665 332.732399 
L 252.274592 341.240429 
L 252.95152 331.79324 
L 253.628448 344.510495 
L 254.305376 347.543922 
L 254.982303 358.12063 
L 255.659231 351.376401 
L 256.336159 356.718314 
L 257.013087 334.125689 
L 257.690014 349.111677 
L 258.366942 349.376064 
L 259.04387 353.97298 
L 259.720798 339.673428 
L 260.397725 352.900308 
L 261.074653 346.575029 
L 261.751581 341.921436 
L 262.428509 324.77678 
L 263.105436 342.942741 
L 263.782364 327.782185 
L 264.459292 332.584928 
L 265.13622 331.16074 
L 265.813147 351.554258 
L 266.490075 323.653324 
L 267.167003 357.771631 
L 267.843931 356.81483 
L 268.520858 331.717843 
L 269.197786 349.316047 
L 269.874714 327.353987 
L 270.551642 369.10125 
L 271.228569 359.277434 
L 271.905497 363.512968 
L 272.582425 373.178282 
L 273.259352 334.841294 
L 273.93628 346.259738 
L 274.613208 319.547072 
L 275.290136 361.626839 
L 275.967063 299.665542 
L 276.643991 329.329043 
L 277.320919 321.982391 
L 277.997847 318.663887 
L 278.674774 354.01085 
L 279.351702 285.703428 
L 280.02863 282.453847 
L 280.705558 318.565915 
L 281.382485 329.734941 
L 282.059413 324.282159 
L 282.736341 290.987637 
L 283.413269 317.096577 
L 284.090196 284.028384 
L 284.767124 282.986012 
L 285.444052 338.871053 
L 286.12098 310.897017 
L 286.797907 334.792205 
L 287.474835 325.119099 
L 288.151763 300.272796 
L 288.828691 318.915565 
L 289.505618 319.74555 
L 290.182546 321.326904 
L 290.859474 306.501508 
L 291.536402 322.32125 
L 292.213329 306.656653 
L 292.890257 306.045836 
L 294.244113 275.001001 
L 294.92104 334.084308 
L 295.597968 333.52878 
L 296.274896 318.967154 
L 296.951823 287.355246 
L 297.628751 333.421833 
L 298.305679 307.436796 
L 298.982607 309.557715 
L 299.659534 296.175724 
L 300.336462 302.096956 
L 301.01339 282.910238 
L 301.690318 299.285404 
L 302.367245 334.92988 
L 303.044173 316.866275 
L 303.721101 302.238467 
L 304.398029 304.31821 
L 305.074956 316.151834 
L 305.751884 307.571148 
L 306.428812 294.225537 
L 307.10574 297.216075 
L 307.782667 308.253902 
L 308.459595 304.319374 
L 309.136523 278.474273 
L 309.813451 298.38355 
L 310.490378 293.08646 
L 311.167306 265.734888 
L 311.844234 306.32163 
L 312.521162 290.227122 
L 313.198089 306.331154 
L 313.875017 309.590326 
L 314.551945 293.39168 
L 315.228873 290.013708 
L 315.9058 281.050452 
L 316.582728 283.357106 
L 317.259656 295.805624 
L 317.936584 272.91653 
L 318.613511 289.442526 
L 319.290439 274.281627 
L 319.967367 284.683356 
L 320.644294 298.181132 
L 321.321222 295.734132 
L 321.99815 319.585198 
L 323.352005 263.959269 
L 324.028933 311.518384 
L 324.705861 277.642471 
L 325.382789 314.337403 
L 326.059716 330.083975 
L 326.736644 291.550906 
L 327.413572 308.153532 
L 328.0905 303.844896 
L 328.767427 316.04338 
L 329.444355 318.998635 
L 330.121283 304.90539 
L 330.798211 309.850191 
L 331.475138 310.265441 
L 332.152066 293.826798 
L 332.828994 296.187063 
L 333.505922 278.169258 
L 334.182849 299.711171 
L 334.859777 304.519292 
L 335.536705 299.170236 
L 336.213633 282.543494 
L 336.89056 288.558107 
L 337.567488 297.285546 
L 338.244416 282.59159 
L 338.921344 309.775342 
L 339.598271 275.560673 
L 340.275199 334.168543 
L 340.952127 295.764311 
L 341.629055 290.364899 
L 342.98291 312.153043 
L 343.659838 242.390705 
L 344.336765 277.010039 
L 345.013693 290.628259 
L 345.690621 289.152721 
L 346.367549 290.020422 
L 347.044476 275.276795 
L 347.721404 303.237642 
L 348.398332 303.540635 
L 349.07526 273.856649 
L 349.752187 278.409084 
L 350.429115 314.031327 
L 351.106043 270.526326 
L 351.782971 262.880448 
L 352.459898 292.092081 
L 353.136826 288.819069 
L 354.490682 325.725805 
L 355.167609 307.800628 
L 355.844537 296.593201 
L 356.521465 291.281278 
L 357.198393 293.873455 
L 357.87532 287.214866 
L 358.552248 287.680746 
L 359.229176 289.923238 
L 359.906104 281.606082 
L 360.583031 304.572285 
L 361.259959 288.881962 
L 361.936887 281.967413 
L 362.613815 286.36484 
L 363.290742 304.380692 
L 363.96767 310.199499 
L 364.644598 297.866663 
L 365.321526 317.753537 
L 365.998453 292.432105 
L 366.675381 295.231084 
L 367.352309 309.953096 
L 368.029236 309.230742 
L 368.706164 308.756059 
L 369.383092 276.476607 
L 370.06002 304.403096 
L 370.736947 269.844395 
L 371.413875 319.002403 
L 372.090803 279.47982 
L 372.767731 299.207506 
L 373.444658 286.744121 
L 374.121586 293.125718 
L 374.798514 272.555131 
L 375.475442 310.586556 
L 376.152369 316.309343 
L 376.829297 307.490784 
L 377.506225 301.863913 
L 378.183153 311.128758 
L 378.86008 300.669136 
L 379.537008 324.56316 
L 380.213936 290.037139 
L 380.890864 299.986006 
L 381.567791 304.827526 
L 382.244719 301.070478 
L 382.921647 287.533034 
L 383.598575 250.99013 
L 384.275502 275.34308 
L 384.95243 293.602971 
L 385.629358 280.58053 
L 386.306286 300.332744 
L 386.983213 276.930771 
L 387.660141 327.39297 
L 388.337069 268.025887 
L 389.013997 294.396439 
L 389.690924 299.982991 
L 390.367852 317.470138 
L 391.04478 303.35216 
L 391.721707 312.163971 
L 392.398635 312.689456 
L 393.075563 308.246057 
L 393.752491 260.304441 
L 394.429418 298.518518 
L 395.106346 315.540744 
L 395.783274 306.285114 
L 396.460202 289.289059 
L 397.137129 282.346146 
L 397.814057 310.667468 
L 398.490985 275.861954 
L 399.167913 276.474038 
L 399.84484 304.132611 
L 400.521768 312.686441 
L 401.198696 299.294345 
L 401.875624 294.703304 
L 402.552551 312.163834 
L 403.229479 283.426953 
L 403.906407 302.978188 
L 404.583335 305.004766 
L 405.260262 288.070749 
L 405.93719 291.068995 
L 406.614118 295.153666 
L 407.291046 266.904281 
L 407.967973 281.337002 
L 408.644901 276.530731 
L 409.321829 264.302273 
L 409.998757 282.276401 
L 410.675684 257.20836 
L 411.352612 287.483295 
L 412.02954 284.3966 
L 412.706468 306.95557 
L 413.383395 259.416425 
L 414.060323 291.951426 
L 414.737251 285.369159 
L 415.414178 296.726696 
L 416.091106 252.444635 
L 416.768034 295.471869 
L 417.444962 292.56649 
L 418.121889 271.37392 
L 418.798817 290.835541 
L 419.475745 263.284736 
L 420.152673 286.178899 
L 420.8296 297.934421 
L 421.506528 318.513435 
L 422.183456 285.083979 
L 422.860384 291.014528 
L 423.537311 287.173279 
L 424.214239 280.267088 
L 424.891167 266.365128 
L 425.568095 275.442593 
L 426.245022 273.984286 
L 426.92195 291.155182 
L 427.598878 276.639596 
L 428.275806 308.519556 
L 428.952733 269.075042 
L 429.629661 272.944894 
L 430.306589 249.514421 
L 430.983517 268.873549 
L 431.660444 258.296806 
L 432.337372 280.371363 
L 433.0143 273.678587 
L 433.691228 265.780003 
L 434.368155 293.667611 
L 435.045083 286.287628 
L 435.722011 297.342685 
L 436.398939 292.488627 
L 437.075866 282.656436 
L 437.752794 293.733554 
L 438.429722 257.395568 
L 439.106649 291.331326 
L 439.783577 278.887501 
L 440.460505 261.08085 
L 441.137433 275.896381 
L 441.81436 285.343741 
L 442.491288 245.698727 
L 443.168216 268.814697 
L 443.845144 217.299473 
L 444.522071 276.24329 
L 445.198999 279.583615 
L 445.875927 274.827049 
L 446.552855 290.407788 
L 447.229782 296.109542 
L 447.90671 274.673377 
L 448.583638 279.264008 
L 449.260566 272.638578 
L 449.937493 289.59815 
L 450.614421 264.717934 
L 451.291349 270.136083 
L 451.968277 274.063999 
L 452.645204 271.631866 
L 453.322132 293.109138 
L 453.99906 271.445994 
L 454.675988 297.299111 
L 455.352915 273.761109 
L 456.029843 275.480686 
L 456.706771 272.913961 
L 457.383699 273.424408 
L 458.060626 262.501578 
L 458.737554 299.973331 
L 459.414482 293.257055 
L 460.09141 253.671166 
L 460.768337 287.875936 
L 461.445265 289.731851 
L 462.122193 281.061208 
L 462.79912 292.052549 
L 463.476048 274.885764 
L 464.152976 280.679015 
L 464.829904 287.841474 
L 465.506831 260.845718 
L 466.183759 277.505379 
L 466.860687 266.969641 
L 467.537615 267.097929 
L 468.214542 241.80767 
L 468.89147 280.351837 
L 469.568398 247.045942 
L 470.245326 286.909577 
L 470.922253 267.118551 
L 471.599181 264.53028 
L 472.276109 264.122978 
L 472.953037 278.545285 
L 473.629964 278.025795 
L 474.306892 269.850972 
L 474.98382 265.401304 
L 475.660748 239.123688 
L 476.337675 268.204155 
L 477.014603 260.611819 
L 477.691531 244.142037 
L 478.368459 262.137096 
L 479.045386 235.099273 
L 479.722314 232.111201 
L 480.399242 242.217268 
L 481.07617 254.834427 
L 481.753097 269.546437 
L 482.430025 253.355875 
L 483.106953 248.96112 
L 483.783881 212.481829 
L 484.460808 241.286638 
L 485.137736 203.092327 
L 485.814664 251.583031 
L 486.491591 197.621286 
L 487.168519 210.536506 
L 487.845447 228.736175 
L 488.522375 251.862456 
L 489.199302 228.424104 
L 489.87623 266.53096 
L 490.553158 207.57166 
L 491.230086 225.054559 
L 491.907013 248.106367 
L 492.583941 217.266621 
L 493.260869 111.109091 
L 493.937797 237.547404 
L 494.614724 210.289795 
L 495.291652 216.705099 
L 495.96858 198.392934 
L 496.645508 216.451743 
L 497.322435 212.138208 
L 498.676291 190.528469 
L 499.353219 239.297091 
L 500.030146 206.477047 
L 500.707074 216.453592 
L 501.384002 238.800004 
L 502.06093 235.052137 
L 502.737857 204.89285 
L 503.414785 248.272234 
L 504.091713 234.76843 
L 504.768641 248.976261 
L 505.445568 238.393935 
L 506.122496 232.224999 
L 506.799424 208.910345 
L 507.476352 220.871573 
L 508.153279 194.05936 
L 508.830207 259.233979 
L 509.507135 242.306504 
L 510.184062 254.979638 
L 510.86099 250.144352 
L 511.537918 253.739199 
L 512.214846 241.681061 
L 512.891773 267.684493 
L 513.568701 270.156397 
L 514.245629 251.661991 
L 514.922557 254.784003 
L 515.599484 241.501046 
L 516.276412 233.238733 
L 516.95334 241.341688 
L 517.630268 274.866683 
L 518.307195 253.321825 
L 518.984123 258.620422 
L 519.661051 247.396174 
L 520.337979 243.615353 
L 521.014906 239.158149 
L 521.691834 246.164778 
L 522.368762 250.465981 
L 523.04569 246.502233 
L 523.722617 262.659943 
L 524.399545 251.954604 
L 525.076473 221.179054 
L 525.753401 247.825538 
L 526.430328 239.287328 
L 527.107256 242.213328 
L 527.784184 247.063892 
L 528.461112 231.348528 
L 529.138039 268.573501 
L 529.814967 272.313935 
L 530.491895 195.406232 
L 531.168823 242.235184 
L 531.84575 257.63923 
L 532.522678 246.019396 
L 533.199606 242.348708 
L 533.876533 254.880981 
L 534.553461 216.666493 
L 535.230389 251.993245 
L 535.907317 214.0737 
L 536.584244 262.19492 
L 537.261172 235.350848 
L 537.9381 235.522539 
L 538.615028 219.537992 
L 539.291955 229.32613 
L 539.968883 223.541716 
L 540.645811 211.583468 
L 541.322739 216.260972 
L 541.999666 272.788071 
L 542.676594 271.305134 
L 543.353522 208.69443 
L 544.03045 250.955532 
L 544.707377 243.188114 
L 546.061233 233.421112 
L 546.738161 241.705382 
L 547.415088 239.537259 
L 548.092016 201.624702 
L 548.768944 196.087308 
L 549.445872 208.438813 
L 550.122799 202.490108 
L 550.799727 239.481628 
L 551.476655 221.751059 
L 552.153583 234.628289 
L 553.507438 194.391094 
L 554.184366 231.700199 
L 554.861294 216.240384 
L 555.538221 171.406769 
L 556.215149 225.535751 
L 556.892077 243.456132 
L 557.569004 215.722743 
L 558.245932 235.332898 
L 558.92286 225.402633 
L 559.599788 236.885957 
L 560.276715 240.896464 
L 560.953643 212.930478 
L 561.630571 255.55339 
L 562.307499 228.484942 
L 562.984426 233.969754 
L 563.661354 193.364616 
L 564.338282 261.917653 
L 565.01521 245.008403 
L 566.369065 223.34704 
L 567.045993 222.098276 
L 567.722921 259.695988 
L 568.399848 237.644039 
L 569.076776 222.038328 
L 569.753704 161.708313 
L 570.430632 221.821763 
L 571.107559 201.682526 
L 571.784487 238.854334 
L 572.461415 194.362867 
L 573.138343 220.088963 
L 573.81527 238.215393 
L 575.169126 197.035236 
L 575.846054 239.638143 
L 576.522981 249.230748 
L 577.199909 223.378213 
L 577.876837 215.094182 
L 578.553765 245.664505 
L 579.230692 233.387061 
L 579.90762 207.245818 
L 580.584548 256.316337 
L 581.261475 196.733785 
L 581.938403 256.44555 
L 582.615331 231.243431 
L 583.292259 245.224078 
L 583.969186 256.526325 
L 584.646114 206.453685 
L 585.323042 208.329948 
L 585.99997 249.947484 
L 586.676897 227.369913 
L 587.353825 239.963265 
L 588.030753 236.758765 
L 588.707681 203.521039 
L 589.384608 191.032442 
L 590.061536 215.175985 
L 590.738464 228.956098 
L 591.415392 227.571132 
L 592.092319 224.10961 
L 592.769247 219.671384 
L 593.446175 228.856961 
L 594.123103 234.571287 
L 594.80003 261.405116 
L 595.476958 266.720361 
L 596.830814 224.960697 
L 597.507741 241.185309 
L 598.184669 206.139353 
L 598.861597 246.066087 
L 599.538525 260.192458 
L 600.215452 278.946113 
L 600.89238 209.554595 
L 601.569308 238.436138 
L 602.246235 237.688127 
L 602.923163 253.057301 
L 603.600091 264.461015 
L 604.277019 256.084767 
L 604.953946 229.377925 
L 605.630874 250.44762 
L 606.307802 226.783179 
L 606.98473 231.826672 
L 607.661657 204.885519 
L 608.338585 230.546187 
L 609.015513 239.891122 
L 609.692441 268.099845 
L 610.369368 242.629674 
L 611.046296 231.523644 
L 611.723224 243.637688 
L 612.400152 247.930532 
L 613.077079 225.675446 
L 613.754007 231.675809 
L 614.430935 254.558394 
L 615.107863 229.583117 
L 615.78479 243.676466 
L 616.461718 260.663545 
L 617.138646 231.270562 
L 617.815574 236.185869 
L 618.492501 227.803593 
L 619.169429 233.583759 
L 619.846357 261.25302 
L 620.523285 207.345331 
L 621.87714 245.552866 
L 622.554068 230.711163 
L 623.230996 241.023142 
L 623.907923 201.805676 
L 624.584851 225.718438 
L 625.261779 228.072776 
L 625.938706 209.532363 
L 626.615634 198.402046 
L 627.292562 206.754828 
L 627.96949 222.379448 
L 628.646417 214.53725 
L 629.323345 245.054305 
L 630.000273 211.962578 
L 630.677201 186.455308 
L 631.354128 213.497379 
L 632.031056 193.536957 
L 633.384912 222.490712 
L 634.061839 245.370008 
L 634.738767 180.414078 
L 635.415695 225.988511 
L 636.092623 208.226221 
L 636.76955 200.591613 
L 637.446478 234.887366 
L 638.123406 224.514206 
L 638.800334 242.118508 
L 639.477261 231.04091 
L 640.154189 228.128407 
L 640.831117 216.475585 
L 642.184972 225.337238 
L 642.8619 197.368752 
L 643.538828 231.159299 
L 644.215756 224.014482 
L 644.892683 227.686952 
L 645.569611 176.75305 
L 646.246539 240.368512 
L 646.923467 203.293169 
L 647.600394 194.583269 
L 648.277322 220.698992 
L 648.95425 238.180932 
L 649.631177 179.746431 
L 650.308105 255.805582 
L 650.985033 226.364572 
L 651.661961 232.998634 
L 652.338888 160.632952 
L 653.015816 240.828706 
L 653.692744 237.478173 
L 654.369672 226.469258 
L 655.046599 210.988615 
L 655.723527 170.332367 
L 656.400455 226.106831 
L 657.077383 219.55464 
L 657.75431 228.205962 
L 658.431238 182.861318 
L 659.108166 233.071256 
L 659.785094 256.013926 
L 660.462021 219.305189 
L 661.138949 229.572806 
L 661.815877 244.681876 
L 662.492805 206.982596 
L 663.169732 238.511844 
L 663.84666 258.978087 
L 664.523588 248.175496 
L 665.200516 232.555294 
L 666.554371 223.187202 
L 667.231299 245.835203 
L 667.908227 214.129057 
L 669.262082 247.743118 
L 669.93901 239.784313 
L 671.292865 249.554226 
L 671.969793 234.542512 
L 672.646721 201.722948 
L 673.323648 194.115813 
L 674.000576 229.815852 
L 674.677504 226.32093 
L 675.354432 227.747208 
L 676.031359 193.830462 
L 676.708287 242.166055 
L 677.385215 204.593282 
L 678.062143 190.102806 
L 678.73907 219.274735 
L 679.415998 215.521216 
L 680.092926 248.55577 
L 680.769854 218.904087 
L 681.446781 170.37046 
L 682.123709 235.82769 
L 682.800637 204.270078 
L 683.477565 216.23504 
L 684.154492 218.240174 
L 684.83142 201.368091 
L 685.508348 228.469767 
L 686.185276 219.513807 
L 686.862203 221.167784 
L 687.539131 204.269461 
L 688.216059 208.820697 
L 688.892987 197.000021 
L 689.569914 213.045681 
L 690.246842 177.723553 
L 690.92377 216.315267 
L 691.600698 185.798349 
L 692.277625 212.632281 
L 692.954553 206.681075 
L 693.631481 188.483119 
L 694.308409 203.967941 
L 694.985336 223.9347 
L 695.662264 202.395322 
L 696.339192 240.036915 
L 697.016119 172.53872 
L 697.693047 172.069415 
L 699.046903 229.092162 
L 699.72383 196.706654 
L 700.400758 194.714606 
L 701.077686 206.282885 
L 702.431541 219.652406 
L 703.108469 206.513221 
L 703.785397 187.848152 
L 704.462325 159.50107 
L 705.139252 169.169997 
L 705.81618 233.647166 
L 706.493108 196.758175 
L 707.170036 185.270877 
L 707.846963 221.725846 
L 708.523891 191.601843 
L 709.200819 197.681405 
L 709.877747 231.02875 
L 710.554674 208.102729 
L 711.231602 223.889516 
L 711.90853 225.64883 
L 712.585458 232.825162 
L 713.262385 231.412895 
L 713.939313 217.715374 
L 714.616241 218.404396 
L 715.970096 226.619162 
L 716.647024 231.590615 
L 717.323952 217.526555 
L 718.00088 211.468814 
L 718.677807 216.835648 
L 719.354735 233.370276 
L 720.031663 254.497076 
L 720.70859 192.966392 
L 721.385518 209.982794 
L 722.062446 159.032244 
L 722.739374 179.189705 
L 723.416301 191.895484 
L 724.093229 216.794164 
L 724.770157 199.574727 
L 725.447085 227.275847 
L 726.124012 194.372732 
L 726.80094 231.177694 
L 727.477868 208.95707 
L 728.154796 210.751907 
L 728.831723 213.440514 
L 729.508651 247.986472 
L 730.185579 248.471946 
L 730.862507 234.912613 
L 731.539434 214.740593 
L 732.216362 205.652131 
L 732.89329 214.556639 
L 733.570218 229.194382 
L 734.247145 239.855907 
L 734.924073 200.521457 
L 735.601001 238.980259 
L 736.277929 212.379609 
L 736.954856 248.358628 
L 737.631784 249.378562 
L 738.308712 217.788133 
L 738.98564 222.433367 
L 739.662567 209.181549 
L 740.339495 243.747204 
L 741.016423 227.94274 
L 741.693351 154.192847 
L 742.370278 240.226453 
L 743.047206 217.376103 
L 743.724134 233.959169 
L 744.401061 206.59571 
L 745.077989 217.898677 
L 745.754917 163.215469 
L 746.431845 232.228836 
L 747.108772 212.157049 
L 747.7857 223.806137 
L 748.462628 202.703831 
L 749.139556 226.404925 
L 749.816483 191.627295 
L 750.493411 218.916111 
L 751.170339 209.189188 
L 751.847267 196.114918 
L 752.524194 163.535864 
L 753.201122 214.259127 
L 753.87805 215.603362 
L 754.554978 191.062004 
L 755.231905 222.179805 
L 755.908833 200.365113 
L 756.585761 240.506084 
L 757.262689 206.321868 
L 757.939616 215.530259 
L 759.293472 218.888843 
L 759.9704 175.896276 
L 760.647327 195.795379 
L 761.324255 238.175931 
L 762.001183 212.539995 
L 762.678111 210.196619 
L 763.355038 220.637674 
L 764.031966 234.646684 
L 764.708894 214.070788 
L 765.385822 206.818476 
L 766.062749 221.981053 
L 766.739677 221.551552 
L 767.416605 252.84399 
L 768.093532 176.112019 
L 768.77046 209.666783 
L 769.447388 231.495931 
L 770.124316 228.731174 
L 770.801243 202.850651 
L 771.478171 217.864044 
L 772.155099 228.745767 
L 772.832027 223.556172 
L 773.508954 216.340617 
L 774.185882 236.985573 
L 774.86281 236.566761 
L 775.539738 232.106063 
L 776.216665 252.647943 
L 776.893593 222.747151 
L 777.570521 246.023165 
L 778.247449 224.676237 
L 778.924376 242.291672 
L 780.278232 190.968109 
L 780.95516 228.559963 
L 781.632087 222.292302 
L 782.309015 210.048942 
L 782.985943 230.580888 
L 783.662871 234.989723 
L 784.339798 218.15289 
L 785.016726 214.056983 
L 785.693654 228.807941 
L 786.370582 169.839973 
L 787.047509 224.47214 
L 787.724437 227.813596 
L 788.401365 235.031755 
L 789.078293 203.837015 
L 789.75522 233.979174 
L 790.432148 211.148282 
L 791.109076 243.91612 
L 791.786003 216.772652 
L 792.462931 212.395127 
L 793.139859 206.062072 
L 793.816787 227.450415 
L 794.493714 243.161771 
L 795.170642 246.488462 
L 795.84757 212.87447 
L 796.524498 215.750833 
L 797.201425 236.722454 
L 797.878353 192.227698 
L 798.555281 231.599966 
L 799.232209 231.982399 
L 799.909136 190.297482 
L 800.586064 234.124248 
L 801.262992 200.579692 
L 801.93992 218.976606 
L 802.616847 198.793865 
L 803.293775 196.296885 
L 803.970703 246.502576 
L 804.647631 176.168062 
L 805.324558 211.131873 
L 806.001486 201.738431 
L 806.678414 227.802154 
L 807.355342 211.209702 
L 808.032269 190.515863 
L 808.709197 164.240884 
L 809.386125 194.00157 
L 810.063053 208.61321 
L 810.73998 182.521226 
L 811.416908 182.617279 
L 812.093836 187.356854 
L 812.770764 199.703084 
L 813.447691 185.879158 
L 814.124619 180.928293 
L 814.801547 234.062827 
L 815.478474 217.31595 
L 816.155402 228.768375 
L 816.83233 217.39467 
L 817.509258 238.987178 
L 818.186185 205.624692 
L 818.863113 240.435483 
L 819.540041 225.202612 
L 820.216969 200.678829 
L 820.893896 227.223435 
L 821.570824 200.20829 
L 822.247752 211.981693 
L 822.92468 227.158144 
L 823.601607 232.24891 
L 824.278535 219.833723 
L 824.955463 240.291642 
L 825.632391 240.465251 
L 826.309318 206.845058 
L 826.986246 224.927401 
L 827.663174 230.442357 
L 828.340102 200.296567 
L 829.017029 240.340285 
L 829.693957 213.271769 
L 830.370885 224.542433 
L 831.047813 207.27956 
L 831.72474 216.92742 
L 832.401668 231.305845 
L 833.078596 212.516564 
L 833.755524 203.281864 
L 834.432451 224.268866 
L 835.109379 229.887515 
L 835.786307 185.695376 
L 836.463235 230.047284 
L 837.140162 200.787009 
L 837.81709 208.986188 
L 838.494018 194.677815 
L 839.170945 214.506488 
L 839.847873 224.463165 
L 840.524801 216.013747 
L 841.201729 218.88439 
L 841.878656 228.103846 
L 842.555584 221.400895 
L 843.232512 195.104267 
L 843.90944 231.993429 
L 844.586367 220.244108 
L 845.263295 203.313551 
L 845.940223 215.736754 
L 846.617151 237.81364 
L 847.294078 204.474243 
L 847.971006 192.558644 
L 848.647934 237.630132 
L 849.324862 198.192126 
L 850.001789 210.159417 
L 850.678717 228.043316 
L 851.355645 225.571925 
L 852.032573 252.132187 
L 852.7095 168.83655 
L 853.386428 222.642328 
L 854.063356 188.192081 
L 855.417211 235.895517 
L 856.094139 238.744441 
L 856.771067 222.878283 
L 857.447995 270.677429 
L 858.124922 237.631536 
L 858.80185 256.92616 
L 859.478778 260.786832 
L 860.155706 219.771069 
L 860.832633 245.385731 
L 861.509561 243.389949 
L 862.186489 224.560452 
L 862.863416 231.439238 
L 863.540344 240.563017 
L 864.217272 231.207154 
L 864.8942 226.139305 
L 865.571127 230.067016 
L 866.248055 231.170946 
L 866.924983 235.999038 
L 867.601911 233.138638 
L 868.278838 244.061091 
L 868.955766 239.969363 
L 869.632694 255.370601 
L 870.309622 227.526942 
L 870.986549 232.224109 
L 871.663477 212.74327 
L 872.340405 213.545645 
L 873.017333 215.172662 
L 873.69426 236.37921 
L 874.371188 222.299564 
L 875.048116 238.70676 
L 875.725044 205.662614 
L 876.401971 234.57276 
L 877.078899 220.726054 
L 877.755827 249.541552 
L 878.432755 251.787812 
L 879.109682 233.046729 
L 879.78661 244.965035 
L 880.463538 186.439242 
L 881.140466 231.030086 
L 881.817393 194.749273 
L 882.494321 239.872419 
L 883.171249 235.485268 
L 883.848177 192.313235 
L 884.525104 215.52358 
L 885.202032 224.834156 
L 885.87896 245.330202 
L 886.555887 232.4082 
L 887.232815 200.239942 
L 887.909743 228.955824 
L 888.586671 242.614293 
L 889.263598 198.52708 
L 889.940526 205.504043 
L 890.617454 236.130135 
L 891.294382 228.495288 
L 891.971309 227.021942 
L 892.648237 198.524339 
L 893.325165 217.303926 
L 894.002093 204.772269 
L 894.67902 213.751591 
L 895.355948 201.237474 
L 896.032876 220.66573 
L 896.709804 224.674969 
L 897.386731 197.509509 
L 898.063659 205.932036 
L 898.740587 216.345618 
L 899.417515 231.318452 
L 900.094442 203.133536 
L 900.77137 210.260712 
L 901.448298 247.735342 
L 902.125226 193.131505 
L 902.802153 189.940296 
L 903.479081 230.410979 
L 904.156009 207.60571 
L 904.832937 200.694655 
L 905.509864 210.004649 
L 906.186792 215.284713 
L 906.86372 222.696418 
L 907.540648 193.01202 
L 908.217575 207.33365 
L 908.894503 196.195693 
L 909.571431 205.250481 
L 910.248358 226.204117 
L 910.925286 160.859589 
L 911.602214 197.145506 
L 912.279142 143.185577 
L 912.956069 192.413228 
L 913.632997 127.218398 
L 914.309925 186.713392 
L 914.986853 196.76023 
L 915.66378 196.307813 
L 916.340708 217.592087 
L 917.017636 210.416062 
L 917.694564 262.467665 
L 918.371491 210.923015 
L 919.048419 237.802541 
L 919.725347 196.118618 
L 920.402275 239.395988 
L 921.079202 219.407854 
L 921.75613 204.0444 
L 922.433058 243.156324 
L 923.109986 212.688734 
L 924.463841 246.196259 
L 925.140769 224.556923 
L 925.817697 194.285688 
L 926.494624 194.032434 
L 927.171552 198.02023 
L 927.84848 205.588792 
L 928.525408 204.982395 
L 929.202335 234.145212 
L 929.879263 216.580099 
L 930.556191 228.214595 
L 931.233119 213.64324 
L 931.910046 220.531138 
L 932.586974 218.614453 
L 933.263902 207.536993 
L 933.940829 222.039185 
L 934.617757 197.49197 
L 935.294685 211.402837 
L 935.971613 233.55077 
L 936.64854 177.769935 
L 937.325468 223.896059 
L 938.002396 166.371018 
L 938.679324 231.024057 
L 939.356251 198.842097 
L 940.033179 195.867316 
L 940.710107 219.446666 
L 941.387035 214.591409 
L 942.063962 224.482348 
L 942.74089 196.759614 
L 943.417818 203.42084 
L 944.094746 218.014393 
L 944.771673 198.335521 
L 945.448601 199.904714 
L 946.125529 211.113512 
L 946.802457 197.699732 
L 947.479384 135.903565 
L 948.156312 225.411916 
L 948.83324 219.656003 
L 949.510168 220.70509 
L 950.187095 216.728667 
L 950.864023 207.631059 
L 951.540951 223.286133 
L 952.217879 216.490931 
L 952.894806 220.824917 
L 953.571734 220.958994 
L 954.248662 204.381889 
L 954.92559 223.092861 
L 955.602517 236.525174 
L 956.279445 240.271979 
L 956.956373 221.175937 
L 957.6333 229.369121 
L 958.310228 241.146258 
L 958.987156 237.456626 
L 959.664084 236.475126 
L 960.341011 232.171492 
L 961.017939 220.72554 
L 961.694867 234.324199 
L 962.371795 179.631263 
L 963.048722 226.146328 
L 963.72565 222.19844 
L 964.402578 239.366117 
L 965.079506 211.793012 
L 965.756433 224.162296 
L 966.433361 185.540676 
L 967.110289 182.669965 
L 968.464144 221.820393 
L 969.141072 194.266334 
L 969.818 236.378456 
L 970.494928 250.025245 
L 971.171855 207.657573 
L 971.848783 240.672876 
L 972.525711 222.134724 
L 973.202639 257.460689 
L 973.879566 259.333286 
L 974.556494 230.437185 
L 975.233422 236.326935 
L 975.91035 212.798422 
L 976.587277 227.272181 
L 977.264205 244.966268 
L 977.941133 183.663762 
L 978.618061 244.362816 
L 979.294988 243.259126 
L 979.971916 216.735998 
L 980.648844 231.539094 
L 981.325771 203.703143 
L 982.002699 241.360768 
L 983.356555 229.215209 
L 984.033482 234.216876 
L 984.71041 243.148308 
L 985.387338 263.524322 
L 986.064266 223.034592 
L 986.741193 254.072919 
L 987.418121 253.045243 
L 988.095049 228.104805 
L 988.771977 252.715907 
L 989.448904 227.459801 
L 990.125832 215.664543 
L 990.80276 242.24642 
L 991.479688 230.574311 
L 992.156615 201.923208 
L 992.833543 201.515563 
L 993.510471 219.728249 
L 994.187399 207.207794 
L 994.864326 149.84742 
L 995.541254 180.155378 
L 996.218182 218.174642 
L 996.218182 218.174642 
" style="fill:none;stroke:#1f77b4;stroke-linecap:square;stroke-width:1.5;"/>
   </g>
   <g id="line2d_13">
    <path clip-path="url(#p0db0b29e3f)" d="M 184.581818 605.290909 
L 185.935674 593.257844 
L 189.320312 558.952039 
L 189.99724 550.132443 
L 190.674168 546.805928 
L 191.351096 542.494665 
L 192.028023 540.483046 
L 192.704951 537.470818 
L 193.381879 533.511621 
L 194.058807 530.52015 
L 194.735734 524.698245 
L 195.412662 522.993814 
L 196.08959 521.803307 
L 198.120373 511.274889 
L 198.797301 508.33957 
L 199.474229 503.932782 
L 200.151156 501.938651 
L 200.828084 499.545245 
L 201.505012 494.38122 
L 202.181939 490.293332 
L 202.858867 487.126201 
L 203.535795 485.469321 
L 204.212723 477.80299 
L 204.88965 474.523546 
L 205.566578 469.714513 
L 206.243506 472.244221 
L 206.920434 463.064942 
L 207.597361 462.996724 
L 208.274289 466.455781 
L 208.951217 462.625753 
L 209.628145 465.6201 
L 210.305072 465.00269 
L 210.982 460.02884 
L 211.658928 462.492032 
L 212.335856 455.498126 
L 213.012783 450.866741 
L 215.043567 434.661491 
L 215.720494 440.151519 
L 216.397422 436.764252 
L 217.07435 436.104228 
L 217.751278 442.232681 
L 218.428205 441.576797 
L 219.105133 435.729328 
L 219.782061 432.684725 
L 220.458989 435.008415 
L 221.135916 438.64058 
L 221.812844 440.345856 
L 222.489772 433.830813 
L 223.1667 438.494097 
L 224.520555 429.74707 
L 225.87441 430.937303 
L 226.551338 432.182244 
L 227.228266 426.237649 
L 227.905194 429.535458 
L 228.582121 425.522319 
L 229.259049 423.98911 
L 230.612905 429.215499 
L 231.289832 423.81102 
L 231.96676 428.114456 
L 232.643688 418.988158 
L 233.320616 425.902133 
L 233.997543 423.018962 
L 234.674471 423.74129 
L 235.351399 425.224085 
L 236.028327 425.181237 
L 236.705254 428.778075 
L 237.382182 430.120281 
L 238.05911 420.206584 
L 238.736038 420.915867 
L 240.089893 418.373838 
L 240.766821 425.114169 
L 241.443749 418.06953 
L 242.120676 427.933046 
L 242.797604 434.963738 
L 243.474532 425.467537 
L 244.15146 429.594412 
L 244.828387 426.034673 
L 245.505315 430.649596 
L 246.182243 434.179305 
L 246.859171 430.803854 
L 247.536098 431.699093 
L 248.213026 426.558365 
L 248.889954 431.110815 
L 249.566881 420.470598 
L 250.243809 422.514139 
L 250.920737 430.734549 
L 251.597665 423.937955 
L 252.274592 425.283858 
L 252.95152 426.949057 
L 253.628448 426.313184 
L 254.305376 419.060073 
L 254.982303 428.644989 
L 255.659231 421.181778 
L 256.336159 422.89294 
L 257.013087 423.996306 
L 257.690014 422.146726 
L 258.366942 418.170897 
L 259.04387 424.232918 
L 259.720798 418.480239 
L 260.397725 426.129357 
L 261.074653 419.54988 
L 261.751581 418.357818 
L 262.428509 425.731356 
L 263.105436 424.633887 
L 263.782364 419.088866 
L 264.459292 421.308839 
L 265.13622 420.303199 
L 265.813147 414.989795 
L 266.490075 413.88266 
L 267.167003 426.232722 
L 267.843931 427.159204 
L 268.520858 421.537258 
L 269.197786 420.147305 
L 269.874714 424.376207 
L 270.551642 430.439774 
L 271.228569 425.225837 
L 271.905497 423.545214 
L 272.582425 424.584615 
L 273.259352 421.548255 
L 273.93628 424.614609 
L 274.613208 415.63564 
L 275.290136 422.112152 
L 275.967063 416.440058 
L 276.643991 420.273069 
L 277.320919 412.712358 
L 277.997847 414.742056 
L 278.674774 422.371414 
L 279.351702 413.765693 
L 280.02863 411.345368 
L 280.705558 410.237448 
L 281.382485 408.755797 
L 282.059413 412.603128 
L 282.736341 414.95905 
L 283.413269 411.756465 
L 284.090196 412.022295 
L 284.767124 409.188526 
L 285.444052 411.611323 
L 286.12098 407.693187 
L 286.797907 411.319962 
L 287.474835 410.24565 
L 288.151763 414.097154 
L 288.828691 415.11522 
L 289.505618 410.244168 
L 290.182546 414.699485 
L 290.859474 411.081318 
L 291.536402 401.444782 
L 292.213329 413.380792 
L 292.890257 409.866916 
L 293.567185 408.473252 
L 294.244113 406.166505 
L 294.92104 410.602874 
L 295.597968 409.032612 
L 296.274896 406.024879 
L 296.951823 402.228152 
L 297.628751 407.096784 
L 298.305679 402.09663 
L 298.982607 405.622465 
L 299.659534 401.482678 
L 300.336462 405.722784 
L 301.01339 407.747469 
L 301.690318 404.90737 
L 302.367245 413.68082 
L 303.044173 410.153783 
L 303.721101 405.663193 
L 304.398029 406.345223 
L 305.074956 406.554219 
L 305.751884 413.558632 
L 306.428812 401.152034 
L 307.10574 407.504844 
L 307.782667 407.307323 
L 308.459595 403.409842 
L 309.136523 401.846084 
L 309.813451 396.843064 
L 310.490378 395.967467 
L 311.167306 402.047988 
L 311.844234 395.866257 
L 312.521162 394.418982 
L 313.198089 394.725036 
L 313.875017 394.720984 
L 314.551945 387.746472 
L 315.228873 399.012662 
L 315.9058 395.96437 
L 316.582728 394.007516 
L 317.259656 391.056537 
L 317.936584 395.668093 
L 318.613511 387.985822 
L 319.290439 394.269832 
L 319.967367 399.019597 
L 320.644294 396.725243 
L 321.321222 392.396408 
L 321.99815 395.299635 
L 322.675078 388.264311 
L 323.352005 390.918187 
L 324.028933 399.295062 
L 324.705861 390.601771 
L 325.382789 402.656664 
L 326.059716 397.912424 
L 326.736644 394.843741 
L 327.413572 395.735131 
L 328.0905 394.824663 
L 328.767427 400.342476 
L 329.444355 396.528981 
L 330.121283 393.695841 
L 331.475138 395.493962 
L 332.152066 392.188393 
L 332.828994 392.304424 
L 333.505922 395.960337 
L 334.182849 394.918532 
L 334.859777 391.658587 
L 335.536705 395.69431 
L 336.213633 401.755737 
L 336.89056 393.014142 
L 337.567488 408.968934 
L 338.244416 394.770907 
L 338.921344 399.292091 
L 339.598271 394.730898 
L 340.275199 393.120984 
L 340.952127 393.661484 
L 341.629055 391.500102 
L 342.305982 391.25201 
L 342.98291 387.501755 
L 343.659838 396.035615 
L 344.336765 386.840022 
L 345.013693 395.876048 
L 345.690621 387.802643 
L 346.367549 384.8803 
L 347.044476 396.493435 
L 347.721404 393.996792 
L 349.07526 386.345661 
L 349.752187 387.874213 
L 350.429115 386.826702 
L 351.106043 386.318553 
L 351.782971 381.004566 
L 352.459898 383.632339 
L 353.136826 382.317277 
L 353.813754 393.047327 
L 354.490682 396.411665 
L 355.167609 388.468608 
L 355.844537 386.633805 
L 356.521465 380.837829 
L 357.198393 387.172556 
L 357.87532 390.407753 
L 358.552248 390.096564 
L 359.229176 391.553348 
L 359.906104 375.884901 
L 360.583031 391.504349 
L 361.259959 378.552915 
L 361.936887 389.911499 
L 362.613815 390.478213 
L 363.290742 396.736798 
L 363.96767 393.272548 
L 364.644598 387.855287 
L 365.321526 393.170987 
L 365.998453 390.430785 
L 366.675381 394.18595 
L 367.352309 391.446676 
L 368.029236 394.584609 
L 368.706164 395.737778 
L 369.383092 389.01287 
L 370.06002 395.618461 
L 371.413875 392.1041 
L 372.090803 392.432721 
L 372.767731 390.868116 
L 373.444658 393.311739 
L 374.121586 388.190071 
L 374.798514 393.669459 
L 375.475442 397.217072 
L 376.152369 389.248427 
L 376.829297 396.177115 
L 377.506225 395.655698 
L 378.183153 392.557494 
L 378.86008 393.003736 
L 379.537008 393.290524 
L 380.213936 393.454107 
L 380.890864 395.900357 
L 381.567791 394.197452 
L 382.244719 393.110994 
L 382.921647 390.866137 
L 383.598575 384.592249 
L 384.275502 388.71678 
L 384.95243 386.902283 
L 385.629358 398.757905 
L 386.306286 390.73882 
L 387.660141 393.77386 
L 388.337069 386.188816 
L 389.013997 387.227775 
L 389.690924 388.888994 
L 390.367852 389.745715 
L 391.04478 385.293693 
L 391.721707 389.515899 
L 392.398635 398.039568 
L 393.075563 394.24216 
L 393.752491 394.353075 
L 394.429418 398.523053 
L 395.106346 391.098759 
L 395.783274 393.292012 
L 396.460202 390.682189 
L 397.137129 378.506408 
L 397.814057 383.601036 
L 399.167913 387.908791 
L 399.84484 396.765062 
L 400.521768 392.750298 
L 401.198696 384.652491 
L 401.875624 381.504406 
L 402.552551 389.387979 
L 403.229479 390.661174 
L 403.906407 390.441616 
L 404.583335 382.841631 
L 405.260262 390.611156 
L 405.93719 382.666359 
L 406.614118 376.33337 
L 407.291046 376.083257 
L 407.967973 373.455682 
L 408.644901 369.506358 
L 409.321829 371.256541 
L 409.998757 378.96357 
L 410.675684 367.675124 
L 411.352612 380.532419 
L 412.02954 373.970657 
L 412.706468 378.998851 
L 414.060323 382.712184 
L 414.737251 374.462376 
L 415.414178 379.143169 
L 416.091106 376.445196 
L 416.768034 375.81746 
L 417.444962 379.677142 
L 418.121889 378.460827 
L 418.798817 378.067304 
L 419.475745 376.02614 
L 420.152673 380.747004 
L 420.8296 380.525615 
L 421.506528 385.540269 
L 422.183456 369.33101 
L 422.860384 377.890482 
L 423.537311 381.884631 
L 424.214239 373.521827 
L 424.891167 368.506546 
L 425.568095 368.134889 
L 426.245022 368.709143 
L 426.92195 380.471679 
L 427.598878 374.170345 
L 428.275806 374.97114 
L 428.952733 377.581549 
L 429.629661 372.107122 
L 430.306589 380.475231 
L 430.983517 372.541461 
L 431.660444 375.585881 
L 432.337372 373.997909 
L 433.0143 373.982436 
L 433.691228 379.32393 
L 434.368155 374.05288 
L 435.045083 369.758204 
L 435.722011 377.081289 
L 436.398939 373.115042 
L 437.075866 371.139389 
L 437.752794 378.097624 
L 438.429722 373.451701 
L 439.106649 373.36719 
L 439.783577 372.651451 
L 440.460505 375.910534 
L 441.137433 368.674752 
L 441.81436 377.301129 
L 442.491288 372.006154 
L 443.168216 369.605895 
L 443.845144 373.729721 
L 444.522071 370.606922 
L 445.198999 370.216288 
L 445.875927 363.34855 
L 446.552855 374.531217 
L 447.229782 368.641316 
L 447.90671 371.440261 
L 448.583638 376.453235 
L 449.260566 365.665782 
L 449.937493 372.534301 
L 450.614421 372.432422 
L 451.291349 370.382971 
L 451.968277 363.109242 
L 452.645204 371.562318 
L 453.322132 370.793145 
L 453.99906 364.667896 
L 454.675988 371.985852 
L 455.352915 363.798283 
L 456.029843 370.47555 
L 456.706771 367.127638 
L 457.383699 366.461472 
L 458.060626 363.931017 
L 458.737554 364.935447 
L 459.414482 368.719729 
L 460.09141 368.28245 
L 460.768337 367.594816 
L 461.445265 371.294474 
L 462.122193 366.566207 
L 462.79912 371.52178 
L 463.476048 363.970412 
L 464.152976 368.082706 
L 465.506831 362.776322 
L 466.183759 357.014218 
L 466.860687 354.989722 
L 467.537615 364.543938 
L 468.214542 369.138445 
L 468.89147 359.990811 
L 469.568398 364.527063 
L 470.922253 359.324483 
L 471.599181 364.668967 
L 472.276109 365.224514 
L 472.953037 359.663907 
L 473.629964 361.753717 
L 474.306892 358.829651 
L 474.98382 358.996895 
L 475.660748 358.887693 
L 476.337675 355.437833 
L 477.014603 358.459577 
L 477.691531 347.492824 
L 478.368459 354.540345 
L 479.045386 347.583353 
L 479.722314 350.572514 
L 480.399242 348.92498 
L 481.07617 352.492012 
L 481.753097 357.854527 
L 482.430025 346.823177 
L 483.106953 343.975634 
L 483.783881 342.619118 
L 484.460808 347.186266 
L 485.814664 346.056359 
L 486.491591 356.274811 
L 487.168519 344.552772 
L 487.845447 341.798834 
L 488.522375 349.097162 
L 489.199302 337.678756 
L 489.87623 355.879241 
L 490.553158 348.721695 
L 491.230086 350.030919 
L 491.907013 357.145314 
L 492.583941 350.261682 
L 493.260869 345.917616 
L 493.937797 344.473274 
L 494.614724 344.045556 
L 495.291652 346.804538 
L 495.96858 344.189758 
L 496.645508 341.096833 
L 497.999363 349.170654 
L 498.676291 353.685793 
L 499.353219 339.209578 
L 500.030146 342.592082 
L 500.707074 352.117518 
L 501.384002 351.247042 
L 502.06093 349.593719 
L 502.737857 340.032112 
L 503.414785 344.292443 
L 504.091713 349.495687 
L 504.768641 351.853119 
L 506.122496 337.076487 
L 506.799424 356.258015 
L 507.476352 351.950027 
L 508.153279 350.916078 
L 508.830207 354.931854 
L 509.507135 361.945279 
L 510.184062 358.884853 
L 510.86099 351.025884 
L 511.537918 352.046132 
L 512.214846 353.681318 
L 512.891773 355.801353 
L 513.568701 355.305784 
L 514.245629 355.270133 
L 514.922557 354.118857 
L 515.599484 363.196851 
L 516.276412 357.256142 
L 516.95334 357.867685 
L 517.630268 355.564136 
L 518.307195 358.090095 
L 518.984123 358.628067 
L 519.661051 353.60446 
L 520.337979 356.963939 
L 521.014906 349.50573 
L 521.691834 352.093483 
L 522.368762 360.601913 
L 523.04569 363.408722 
L 524.399545 347.937668 
L 525.076473 351.54919 
L 525.753401 358.755771 
L 526.430328 350.756535 
L 527.107256 356.895887 
L 527.784184 350.513957 
L 528.461112 348.261525 
L 529.138039 352.445701 
L 529.814967 346.277883 
L 530.491895 344.20993 
L 531.168823 344.838898 
L 531.84575 360.174471 
L 532.522678 357.749194 
L 533.199606 339.672595 
L 533.876533 341.927655 
L 534.553461 348.243649 
L 535.230389 339.826639 
L 535.907317 342.116214 
L 536.584244 346.172627 
L 537.261172 338.545463 
L 537.9381 344.646055 
L 538.615028 342.908901 
L 539.291955 338.059387 
L 539.968883 348.136006 
L 540.645811 348.206698 
L 541.322739 345.538711 
L 541.999666 353.14257 
L 542.676594 358.934501 
L 543.353522 350.952942 
L 544.03045 348.126571 
L 544.707377 348.039581 
L 545.384305 348.849313 
L 546.061233 345.297822 
L 546.738161 356.141139 
L 547.415088 344.618179 
L 548.092016 353.449483 
L 548.768944 338.711568 
L 549.445872 348.035567 
L 550.122799 349.7105 
L 550.799727 341.94372 
L 551.476655 343.139163 
L 552.153583 353.730166 
L 552.83051 339.910113 
L 553.507438 337.850268 
L 554.184366 341.158106 
L 554.861294 346.874045 
L 555.538221 347.959276 
L 556.215149 336.275191 
L 556.892077 352.508384 
L 557.569004 349.547283 
L 558.245932 351.341787 
L 558.92286 356.303091 
L 559.599788 350.357585 
L 560.276715 347.458 
L 560.953643 340.596676 
L 561.630571 349.818035 
L 562.307499 351.548106 
L 562.984426 355.001024 
L 563.661354 345.607586 
L 564.338282 352.948237 
L 565.01521 350.463573 
L 565.692137 346.861463 
L 566.369065 352.782171 
L 567.045993 343.634665 
L 567.722921 348.555377 
L 568.399848 345.889428 
L 569.753704 342.854219 
L 570.430632 342.658912 
L 571.107559 336.686085 
L 571.784487 342.144976 
L 572.461415 345.342319 
L 573.138343 345.61856 
L 573.81527 348.728145 
L 574.492198 342.942942 
L 575.169126 342.552763 
L 575.846054 344.784841 
L 576.522981 341.616109 
L 577.199909 331.635357 
L 577.876837 341.900435 
L 578.553765 333.316569 
L 579.230692 343.429723 
L 579.90762 343.929807 
L 580.584548 355.595587 
L 581.261475 348.374661 
L 581.938403 347.62863 
L 582.615331 350.649522 
L 583.292259 352.803333 
L 585.323042 339.776225 
L 585.99997 340.216888 
L 586.676897 339.65509 
L 587.353825 341.65596 
L 588.030753 342.834064 
L 588.707681 348.686713 
L 589.384608 345.514347 
L 590.061536 350.134694 
L 590.738464 340.318085 
L 591.415392 347.629518 
L 592.092319 340.276618 
L 592.769247 348.881558 
L 593.446175 349.033505 
L 594.123103 352.004474 
L 594.80003 349.30816 
L 595.476958 362.709921 
L 596.153886 347.346043 
L 596.830814 351.978947 
L 597.507741 352.947395 
L 598.184669 349.57368 
L 598.861597 354.362939 
L 599.538525 351.805927 
L 600.215452 363.120833 
L 600.89238 367.334879 
L 601.569308 359.344889 
L 602.246235 356.201073 
L 602.923163 363.008605 
L 604.277019 358.815988 
L 604.953946 364.164254 
L 605.630874 361.368067 
L 606.307802 361.291579 
L 606.98473 358.865271 
L 607.661657 349.306776 
L 608.338585 347.853783 
L 609.015513 345.579306 
L 609.692441 346.89638 
L 610.369368 351.796516 
L 611.046296 347.783784 
L 611.723224 349.998999 
L 612.400152 356.439496 
L 613.077079 348.783553 
L 613.754007 349.112685 
L 614.430935 351.494376 
L 615.107863 345.755307 
L 615.78479 335.094641 
L 616.461718 355.168576 
L 617.138646 347.694737 
L 617.815574 351.52775 
L 618.492501 345.392316 
L 619.169429 346.234684 
L 619.846357 342.646895 
L 620.523285 341.349435 
L 621.200212 338.232302 
L 621.87714 347.827702 
L 622.554068 341.117995 
L 623.230996 351.412416 
L 623.907923 337.247863 
L 624.584851 345.648738 
L 625.261779 346.236847 
L 625.938706 345.819807 
L 626.615634 348.50517 
L 627.292562 342.486997 
L 627.96949 346.243168 
L 628.646417 346.325093 
L 629.323345 344.960195 
L 630.000273 345.184874 
L 630.677201 352.658815 
L 631.354128 346.99654 
L 632.031056 338.850547 
L 632.707984 336.460154 
L 633.384912 343.938024 
L 634.061839 340.98341 
L 634.738767 339.41298 
L 635.415695 340.622781 
L 636.092623 340.0304 
L 636.76955 343.250267 
L 637.446478 342.090117 
L 638.123406 344.755109 
L 638.800334 335.737137 
L 639.477261 349.867383 
L 640.154189 341.693655 
L 640.831117 340.482995 
L 641.508045 341.664686 
L 642.184972 341.141656 
L 642.8619 344.362223 
L 643.538828 352.11785 
L 644.215756 345.937998 
L 644.892683 338.205125 
L 645.569611 338.853293 
L 646.246539 352.464103 
L 646.923467 335.133117 
L 647.600394 342.083952 
L 648.277322 344.523099 
L 648.95425 345.941566 
L 649.631177 346.093342 
L 650.308105 346.832893 
L 650.985033 343.139084 
L 651.661961 337.983113 
L 652.338888 338.454685 
L 653.015816 354.695675 
L 653.692744 344.942631 
L 654.369672 340.29298 
L 655.046599 350.883675 
L 655.723527 338.216427 
L 656.400455 340.092606 
L 657.077383 348.555994 
L 657.75431 347.549918 
L 658.431238 347.602895 
L 659.108166 346.313293 
L 659.785094 358.977878 
L 660.462021 340.60704 
L 661.138949 341.162584 
L 661.815877 350.919829 
L 662.492805 342.935102 
L 663.169732 344.232858 
L 663.84666 349.060006 
L 664.523588 351.785592 
L 665.200516 348.77803 
L 665.877443 346.374579 
L 667.231299 344.206087 
L 667.908227 334.317933 
L 668.585154 342.639384 
L 669.262082 342.92246 
L 669.93901 339.678523 
L 670.615938 349.565146 
L 671.292865 345.278942 
L 671.969793 332.349804 
L 672.646721 337.902229 
L 673.323648 335.743734 
L 674.000576 333.145486 
L 674.677504 334.682622 
L 675.354432 329.712307 
L 676.031359 334.421524 
L 676.708287 330.078066 
L 677.385215 332.550539 
L 678.062143 331.622092 
L 678.73907 337.03734 
L 679.415998 328.607136 
L 680.092926 335.913034 
L 680.769854 337.222384 
L 681.446781 335.659199 
L 682.123709 329.747709 
L 682.800637 337.661834 
L 683.477565 336.61526 
L 684.154492 335.826956 
L 684.83142 331.112825 
L 685.508348 328.646226 
L 686.185276 329.967095 
L 686.862203 327.356569 
L 687.539131 332.522782 
L 688.216059 325.334437 
L 688.892987 326.702261 
L 689.569914 317.748912 
L 690.246842 323.712184 
L 690.92377 321.746684 
L 691.600698 331.649577 
L 692.277625 323.604497 
L 692.954553 328.734914 
L 693.631481 325.017364 
L 694.308409 320.305646 
L 694.985336 320.776547 
L 695.662264 327.307998 
L 696.339192 330.094847 
L 697.016119 327.804223 
L 697.693047 329.822 
L 698.369975 322.498162 
L 699.046903 319.604733 
L 699.72383 324.412389 
L 700.400758 331.242207 
L 701.077686 329.657379 
L 701.754614 331.988053 
L 702.431541 337.900095 
L 703.108469 329.865304 
L 703.785397 336.867131 
L 704.462325 337.872955 
L 705.139252 339.127825 
L 705.81618 345.51002 
L 706.493108 333.642662 
L 707.170036 330.707331 
L 707.846963 340.169566 
L 708.523891 326.694344 
L 709.200819 332.700357 
L 709.877747 336.65739 
L 710.554674 338.556965 
L 711.231602 326.097368 
L 711.90853 332.511966 
L 712.585458 348.507721 
L 713.262385 335.292999 
L 713.939313 331.79315 
L 714.616241 337.373897 
L 715.293169 339.265294 
L 715.970096 332.359365 
L 716.647024 331.945234 
L 717.323952 329.050244 
L 718.00088 327.830322 
L 718.677807 333.314576 
L 719.354735 342.889455 
L 720.031663 348.111721 
L 720.70859 331.477399 
L 721.385518 325.961221 
L 722.062446 332.264934 
L 722.739374 333.207712 
L 723.416301 322.74265 
L 724.093229 335.145626 
L 724.770157 333.788204 
L 725.447085 341.117833 
L 726.124012 338.126385 
L 726.80094 338.927663 
L 727.477868 338.209134 
L 728.154796 347.291637 
L 728.831723 339.193725 
L 729.508651 343.857914 
L 730.185579 341.481407 
L 730.862507 338.130925 
L 731.539434 339.841005 
L 732.216362 336.044348 
L 732.89329 334.52462 
L 733.570218 338.856655 
L 734.247145 341.928148 
L 734.924073 346.071682 
L 735.601001 340.846004 
L 736.277929 332.238851 
L 736.954856 342.299361 
L 737.631784 339.951312 
L 738.308712 347.917845 
L 738.98564 336.774556 
L 739.662567 351.606675 
L 741.016423 328.344133 
L 741.693351 328.493925 
L 742.370278 340.342907 
L 743.047206 332.618666 
L 743.724134 334.038098 
L 744.401061 328.996509 
L 745.077989 337.845027 
L 745.754917 328.413044 
L 746.431845 333.700526 
L 747.108772 336.503565 
L 747.7857 335.345026 
L 748.462628 330.098877 
L 749.139556 338.730105 
L 749.816483 343.291766 
L 750.493411 333.533671 
L 751.170339 336.538314 
L 751.847267 331.584694 
L 752.524194 320.246051 
L 753.201122 327.498333 
L 753.87805 318.760417 
L 754.554978 320.534504 
L 755.231905 332.950483 
L 755.908833 330.888204 
L 756.585761 341.173452 
L 757.262689 325.838634 
L 757.939616 337.49348 
L 758.616544 334.025047 
L 759.293472 331.35965 
L 759.9704 330.090462 
L 760.647327 321.477622 
L 761.324255 331.778499 
L 762.001183 332.102005 
L 762.678111 326.599703 
L 764.031966 340.39626 
L 764.708894 333.451089 
L 765.385822 331.052844 
L 766.062749 339.27965 
L 766.739677 339.223153 
L 767.416605 340.639056 
L 768.093532 347.605151 
L 768.77046 335.552159 
L 769.447388 349.421153 
L 770.124316 339.692502 
L 770.801243 340.494608 
L 771.478171 340.09049 
L 772.832027 344.868155 
L 773.508954 335.460745 
L 774.185882 337.055472 
L 774.86281 348.806091 
L 775.539738 366.502527 
L 776.216665 356.75766 
L 776.893593 349.234851 
L 777.570521 354.500645 
L 778.247449 343.915702 
L 778.924376 352.962195 
L 779.601304 355.786285 
L 780.278232 344.573854 
L 780.95516 349.911575 
L 781.632087 339.560135 
L 782.309015 344.665907 
L 782.985943 338.081862 
L 783.662871 336.872951 
L 784.339798 341.87996 
L 785.016726 333.744325 
L 785.693654 334.574749 
L 786.370582 319.689097 
L 787.047509 342.968648 
L 787.724437 331.149462 
L 788.401365 337.987184 
L 789.078293 327.946915 
L 789.75522 330.817309 
L 790.432148 331.279031 
L 791.109076 331.030742 
L 791.786003 334.757947 
L 792.462931 335.640413 
L 793.139859 338.622918 
L 793.816787 335.462223 
L 794.493714 340.157103 
L 795.170642 337.111648 
L 795.84757 336.576598 
L 796.524498 340.770036 
L 797.201425 327.310434 
L 797.878353 333.583938 
L 798.555281 335.443517 
L 799.232209 339.406622 
L 799.909136 337.1001 
L 800.586064 327.200234 
L 801.262992 326.130696 
L 801.93992 327.443981 
L 802.616847 327.91013 
L 803.293775 335.247484 
L 803.970703 330.099863 
L 804.647631 336.628294 
L 805.324558 334.55043 
L 806.001486 341.409943 
L 806.678414 337.760956 
L 807.355342 330.191002 
L 808.032269 331.514682 
L 808.709197 333.515146 
L 809.386125 334.874944 
L 810.063053 332.862929 
L 810.73998 336.706882 
L 811.416908 337.068925 
L 812.093836 333.375763 
L 812.770764 325.815602 
L 813.447691 322.534957 
L 814.124619 332.64989 
L 814.801547 329.871877 
L 815.478474 321.632379 
L 816.155402 330.401025 
L 816.83233 320.297689 
L 817.509258 330.140673 
L 818.186185 329.250239 
L 818.863113 338.425962 
L 819.540041 331.939695 
L 820.216969 322.292094 
L 820.893896 327.626811 
L 821.570824 325.68651 
L 822.247752 338.176543 
L 822.92468 327.049276 
L 823.601607 339.682673 
L 824.278535 321.039339 
L 824.955463 336.438833 
L 825.632391 340.063442 
L 826.309318 336.617657 
L 826.986246 332.471684 
L 827.663174 342.155755 
L 828.340102 342.955433 
L 829.017029 338.337998 
L 829.693957 329.738034 
L 830.370885 341.04503 
L 831.047813 330.418451 
L 831.72474 343.529502 
L 832.401668 351.705207 
L 833.078596 338.947186 
L 833.755524 342.703137 
L 834.432451 347.196096 
L 835.109379 339.309529 
L 835.786307 336.378107 
L 836.463235 343.984716 
L 837.140162 349.861459 
L 837.81709 335.66076 
L 838.494018 362.737158 
L 839.170945 341.693915 
L 839.847873 356.326277 
L 840.524801 342.707888 
L 841.201729 349.305649 
L 841.878656 348.041393 
L 842.555584 352.736047 
L 843.232512 350.89174 
L 843.90944 350.463429 
L 844.586367 344.117405 
L 845.263295 347.619301 
L 845.940223 341.002233 
L 846.617151 344.922914 
L 847.294078 344.682241 
L 847.971006 336.508906 
L 848.647934 338.167804 
L 849.324862 341.726276 
L 850.001789 346.073154 
L 850.678717 348.847257 
L 851.355645 345.161325 
L 852.032573 350.566249 
L 852.7095 348.293096 
L 853.386428 348.770173 
L 854.063356 348.124687 
L 854.740284 343.862459 
L 855.417211 343.718376 
L 856.094139 347.17245 
L 856.771067 349.171973 
L 857.447995 362.12045 
L 858.124922 355.815733 
L 858.80185 354.827334 
L 859.478778 363.9625 
L 860.155706 344.953215 
L 860.832633 345.35328 
L 861.509561 343.267309 
L 862.186489 360.725358 
L 862.863416 349.280324 
L 863.540344 347.841145 
L 864.217272 355.461414 
L 864.8942 354.792121 
L 865.571127 350.133468 
L 866.248055 342.003087 
L 866.924983 350.128036 
L 867.601911 344.041443 
L 868.278838 349.958129 
L 868.955766 342.777008 
L 869.632694 345.53403 
L 870.309622 345.393438 
L 870.986549 347.978595 
L 871.663477 339.172249 
L 872.340405 352.941172 
L 873.017333 342.487522 
L 873.69426 348.81482 
L 874.371188 345.157691 
L 875.048116 351.254087 
L 875.725044 351.340761 
L 876.401971 338.810085 
L 877.078899 338.672789 
L 877.755827 349.934124 
L 879.109682 339.690342 
L 879.78661 342.180557 
L 880.463538 349.02326 
L 881.140466 344.448781 
L 882.494321 333.794579 
L 883.171249 342.644678 
L 885.202032 335.133371 
L 885.87896 341.170975 
L 886.555887 345.952044 
L 887.232815 337.883219 
L 887.909743 336.648237 
L 888.586671 340.499797 
L 889.263598 340.869029 
L 889.940526 341.756802 
L 890.617454 348.531228 
L 891.294382 339.464405 
L 891.971309 342.326918 
L 892.648237 324.573205 
L 893.325165 342.119282 
L 894.002093 333.692706 
L 894.67902 339.228282 
L 895.355948 334.890984 
L 896.032876 341.752354 
L 896.709804 339.878069 
L 897.386731 333.841513 
L 898.063659 330.461658 
L 898.740587 342.341151 
L 899.417515 345.600316 
L 900.094442 335.510728 
L 900.77137 335.805397 
L 901.448298 343.236421 
L 902.125226 334.651308 
L 902.802153 335.132821 
L 903.479081 336.525135 
L 904.156009 341.591781 
L 904.832937 336.304034 
L 905.509864 326.71506 
L 906.186792 334.060231 
L 906.86372 333.076399 
L 907.540648 333.065063 
L 908.217575 326.342326 
L 908.894503 334.393449 
L 910.248358 327.980641 
L 911.602214 322.895283 
L 912.279142 325.943883 
L 912.956069 344.953967 
L 913.632997 332.226884 
L 914.309925 327.95426 
L 914.986853 333.70735 
L 915.66378 328.256782 
L 916.340708 337.818599 
L 917.017636 343.311932 
L 917.694564 342.100423 
L 918.371491 331.147093 
L 919.048419 344.707254 
L 919.725347 331.392149 
L 920.402275 344.123105 
L 921.079202 332.606971 
L 921.75613 334.984728 
L 922.433058 335.594759 
L 923.109986 339.623288 
L 923.786913 337.442619 
L 924.463841 332.35027 
L 925.140769 337.127909 
L 925.817697 331.944759 
L 926.494624 341.300806 
L 927.171552 339.294617 
L 927.84848 345.642534 
L 928.525408 332.470587 
L 929.202335 336.754456 
L 929.879263 330.755318 
L 930.556191 334.78086 
L 931.233119 330.545119 
L 931.910046 330.13374 
L 932.586974 328.435293 
L 933.263902 333.073911 
L 933.940829 334.467932 
L 934.617757 332.437419 
L 935.294685 333.400462 
L 935.971613 321.0521 
L 936.64854 329.676483 
L 937.325468 325.309041 
L 938.002396 332.276522 
L 938.679324 319.04448 
L 939.356251 329.805534 
L 940.033179 317.58557 
L 940.710107 329.451571 
L 941.387035 332.33093 
L 942.063962 322.573308 
L 943.417818 331.443497 
L 944.094746 327.00223 
L 944.771673 324.216242 
L 945.448601 340.310128 
L 946.125529 329.23409 
L 946.802457 333.869579 
L 947.479384 331.202221 
L 948.156312 330.460499 
L 948.83324 321.255922 
L 949.510168 332.961595 
L 950.187095 324.543642 
L 950.864023 332.861589 
L 951.540951 331.525142 
L 952.217879 322.389754 
L 953.571734 331.27148 
L 954.248662 322.943423 
L 954.92559 323.72999 
L 955.602517 330.697374 
L 956.279445 324.993034 
L 956.956373 330.850576 
L 957.6333 345.608289 
L 958.987156 332.593848 
L 959.664084 334.390908 
L 960.341011 328.241496 
L 961.017939 332.985637 
L 961.694867 325.879558 
L 962.371795 337.684295 
L 963.048722 341.115704 
L 963.72565 329.165289 
L 964.402578 333.104949 
L 965.079506 338.231357 
L 965.756433 336.551952 
L 966.433361 331.361588 
L 967.110289 325.14088 
L 967.787217 331.726516 
L 968.464144 328.743732 
L 969.141072 327.505871 
L 969.818 334.45321 
L 970.494928 334.49509 
L 971.171855 323.498683 
L 971.848783 335.355201 
L 972.525711 319.188538 
L 973.202639 330.668524 
L 973.879566 335.945832 
L 974.556494 331.059335 
L 975.233422 324.829644 
L 975.91035 337.117794 
L 976.587277 332.74765 
L 977.264205 331.046125 
L 977.941133 336.096131 
L 978.618061 335.437674 
L 979.294988 335.693583 
L 979.971916 335.365381 
L 980.648844 337.354741 
L 981.325771 336.090779 
L 982.002699 332.839771 
L 982.679627 341.357744 
L 983.356555 339.49714 
L 984.033482 328.057761 
L 984.71041 339.949174 
L 985.387338 343.489743 
L 986.064266 332.296194 
L 986.741193 340.679027 
L 987.418121 336.969247 
L 988.095049 340.668494 
L 988.771977 337.695127 
L 989.448904 337.472106 
L 990.125832 338.91165 
L 990.80276 318.991009 
L 991.479688 329.907102 
L 992.156615 336.707792 
L 992.833543 319.923397 
L 993.510471 320.343368 
L 994.187399 331.310845 
L 994.864326 327.300729 
L 995.541254 318.55939 
L 996.218182 315.909097 
L 996.218182 315.909097 
" style="fill:none;stroke:#ff7f0e;stroke-linecap:square;stroke-width:1.5;"/>
   </g>
   <g id="patch_3">
    <path d="M 144 630 
L 144 86.4 
" style="fill:none;stroke:#000000;stroke-linecap:square;stroke-linejoin:miter;stroke-width:0.8;"/>
   </g>
   <g id="patch_4">
    <path d="M 1036.8 630 
L 1036.8 86.4 
" style="fill:none;stroke:#000000;stroke-linecap:square;stroke-linejoin:miter;stroke-width:0.8;"/>
   </g>
   <g id="patch_5">
    <path d="M 144 630 
L 1036.8 630 
" style="fill:none;stroke:#000000;stroke-linecap:square;stroke-linejoin:miter;stroke-width:0.8;"/>
   </g>
   <g id="patch_6">
    <path d="M 144 86.4 
L 1036.8 86.4 
" style="fill:none;stroke:#000000;stroke-linecap:square;stroke-linejoin:miter;stroke-width:0.8;"/>
   </g>
   <g id="text_14">
    <!-- 70 samples, 120 hiddens -->
    <defs>
     <path d="M 8.203125 72.90625 
L 55.078125 72.90625 
L 55.078125 68.703125 
L 28.609375 0 
L 18.3125 0 
L 43.21875 64.59375 
L 8.203125 64.59375 
z
" id="DejaVuSans-37"/>
     <path d="M 44.28125 53.078125 
L 44.28125 44.578125 
Q 40.484375 46.53125 36.375 47.5 
Q 32.28125 48.484375 27.875 48.484375 
Q 21.1875 48.484375 17.84375 46.4375 
Q 14.5 44.390625 14.5 40.28125 
Q 14.5 37.15625 16.890625 35.375 
Q 19.28125 33.59375 26.515625 31.984375 
L 29.59375 31.296875 
Q 39.15625 29.25 43.1875 25.515625 
Q 47.21875 21.78125 47.21875 15.09375 
Q 47.21875 7.46875 41.1875 3.015625 
Q 35.15625 -1.421875 24.609375 -1.421875 
Q 20.21875 -1.421875 15.453125 -0.5625 
Q 10.6875 0.296875 5.421875 2 
L 5.421875 11.28125 
Q 10.40625 8.6875 15.234375 7.390625 
Q 20.0625 6.109375 24.8125 6.109375 
Q 31.15625 6.109375 34.5625 8.28125 
Q 37.984375 10.453125 37.984375 14.40625 
Q 37.984375 18.0625 35.515625 20.015625 
Q 33.0625 21.96875 24.703125 23.78125 
L 21.578125 24.515625 
Q 13.234375 26.265625 9.515625 29.90625 
Q 5.8125 33.546875 5.8125 39.890625 
Q 5.8125 47.609375 11.28125 51.796875 
Q 16.75 56 26.8125 56 
Q 31.78125 56 36.171875 55.265625 
Q 40.578125 54.546875 44.28125 53.078125 
z
" id="DejaVuSans-73"/>
     <path d="M 18.109375 8.203125 
L 18.109375 -20.796875 
L 9.078125 -20.796875 
L 9.078125 54.6875 
L 18.109375 54.6875 
L 18.109375 46.390625 
Q 20.953125 51.265625 25.265625 53.625 
Q 29.59375 56 35.59375 56 
Q 45.5625 56 51.78125 48.09375 
Q 58.015625 40.1875 58.015625 27.296875 
Q 58.015625 14.40625 51.78125 6.484375 
Q 45.5625 -1.421875 35.59375 -1.421875 
Q 29.59375 -1.421875 25.265625 0.953125 
Q 20.953125 3.328125 18.109375 8.203125 
z
M 48.6875 27.296875 
Q 48.6875 37.203125 44.609375 42.84375 
Q 40.53125 48.484375 33.40625 48.484375 
Q 26.265625 48.484375 22.1875 42.84375 
Q 18.109375 37.203125 18.109375 27.296875 
Q 18.109375 17.390625 22.1875 11.75 
Q 26.265625 6.109375 33.40625 6.109375 
Q 40.53125 6.109375 44.609375 11.75 
Q 48.6875 17.390625 48.6875 27.296875 
z
" id="DejaVuSans-70"/>
     <path d="M 11.71875 12.40625 
L 22.015625 12.40625 
L 22.015625 4 
L 14.015625 -11.625 
L 7.71875 -11.625 
L 11.71875 4 
z
" id="DejaVuSans-2c"/>
     <path d="M 54.890625 33.015625 
L 54.890625 0 
L 45.90625 0 
L 45.90625 32.71875 
Q 45.90625 40.484375 42.875 44.328125 
Q 39.84375 48.1875 33.796875 48.1875 
Q 26.515625 48.1875 22.3125 43.546875 
Q 18.109375 38.921875 18.109375 30.90625 
L 18.109375 0 
L 9.078125 0 
L 9.078125 75.984375 
L 18.109375 75.984375 
L 18.109375 46.1875 
Q 21.34375 51.125 25.703125 53.5625 
Q 30.078125 56 35.796875 56 
Q 45.21875 56 50.046875 50.171875 
Q 54.890625 44.34375 54.890625 33.015625 
z
" id="DejaVuSans-68"/>
    </defs>
    <g transform="translate(515.037187 80.4)scale(0.12 -0.12)">
     <use xlink:href="#DejaVuSans-37"/>
     <use x="63.623047" xlink:href="#DejaVuSans-30"/>
     <use x="127.246094" xlink:href="#DejaVuSans-20"/>
     <use x="159.033203" xlink:href="#DejaVuSans-73"/>
     <use x="211.132812" xlink:href="#DejaVuSans-61"/>
     <use x="272.412109" xlink:href="#DejaVuSans-6d"/>
     <use x="369.824219" xlink:href="#DejaVuSans-70"/>
     <use x="433.300781" xlink:href="#DejaVuSans-6c"/>
     <use x="461.083984" xlink:href="#DejaVuSans-65"/>
     <use x="522.607422" xlink:href="#DejaVuSans-73"/>
     <use x="574.707031" xlink:href="#DejaVuSans-2c"/>
     <use x="606.494141" xlink:href="#DejaVuSans-20"/>
     <use x="638.28125" xlink:href="#DejaVuSans-31"/>
     <use x="701.904297" xlink:href="#DejaVuSans-32"/>
     <use x="765.527344" xlink:href="#DejaVuSans-30"/>
     <use x="829.150391" xlink:href="#DejaVuSans-20"/>
     <use x="860.9375" xlink:href="#DejaVuSans-68"/>
     <use x="924.316406" xlink:href="#DejaVuSans-69"/>
     <use x="952.099609" xlink:href="#DejaVuSans-64"/>
     <use x="1015.576172" xlink:href="#DejaVuSans-64"/>
     <use x="1079.052734" xlink:href="#DejaVuSans-65"/>
     <use x="1140.576172" xlink:href="#DejaVuSans-6e"/>
     <use x="1203.955078" xlink:href="#DejaVuSans-73"/>
    </g>
   </g>
   <g id="legend_1">
    <g id="patch_7">
     <path d="M 969.440625 123.75625 
L 1029.8 123.75625 
Q 1031.8 123.75625 1031.8 121.75625 
L 1031.8 93.4 
Q 1031.8 91.4 1029.8 91.4 
L 969.440625 91.4 
Q 967.440625 91.4 967.440625 93.4 
L 967.440625 121.75625 
Q 967.440625 123.75625 969.440625 123.75625 
z
" style="fill:#ffffff;opacity:0.8;stroke:#cccccc;stroke-linejoin:miter;"/>
    </g>
    <g id="line2d_14">
     <path d="M 971.440625 99.498437 
L 991.440625 99.498437 
" style="fill:none;stroke:#ff7f0e;stroke-linecap:square;stroke-width:1.5;"/>
    </g>
    <g id="line2d_15"/>
    <g id="text_15">
     <!-- mean -->
     <g transform="translate(999.440625 102.998437)scale(0.1 -0.1)">
      <use xlink:href="#DejaVuSans-6d"/>
      <use x="97.412109" xlink:href="#DejaVuSans-65"/>
      <use x="158.935547" xlink:href="#DejaVuSans-61"/>
      <use x="220.214844" xlink:href="#DejaVuSans-6e"/>
     </g>
    </g>
    <g id="line2d_16">
     <path d="M 971.440625 114.176562 
L 991.440625 114.176562 
" style="fill:none;stroke:#1f77b4;stroke-linecap:square;stroke-width:1.5;"/>
    </g>
    <g id="line2d_17"/>
    <g id="text_16">
     <!-- max -->
     <defs>
      <path d="M 54.890625 54.6875 
L 35.109375 28.078125 
L 55.90625 0 
L 45.3125 0 
L 29.390625 21.484375 
L 13.484375 0 
L 2.875 0 
L 24.125 28.609375 
L 4.6875 54.6875 
L 15.28125 54.6875 
L 29.78125 35.203125 
L 44.28125 54.6875 
z
" id="DejaVuSans-78"/>
     </defs>
     <g transform="translate(999.440625 117.676562)scale(0.1 -0.1)">
      <use xlink:href="#DejaVuSans-6d"/>
      <use x="97.412109" xlink:href="#DejaVuSans-61"/>
      <use x="158.691406" xlink:href="#DejaVuSans-78"/>
     </g>
    </g>
   </g>
  </g>
 </g>
 <defs>
  <clipPath id="p0db0b29e3f">
   <rect height="543.6" width="892.8" x="144" y="86.4"/>
  </clipPath>
 </defs>
</svg>
