<?xml version="1.0" encoding="utf-8" standalone="no"?>
<!DOCTYPE svg PUBLIC "-//W3C//DTD SVG 1.1//EN"
  "http://www.w3.org/Graphics/SVG/1.1/DTD/svg11.dtd">
<!-- Created with matplotlib (http://matplotlib.org/) -->
<svg height="720pt" version="1.1" viewBox="0 0 1152 720" width="1152pt" xmlns="http://www.w3.org/2000/svg" xmlns:xlink="http://www.w3.org/1999/xlink">
 <defs>
  <style type="text/css">
*{stroke-linecap:butt;stroke-linejoin:round;}
  </style>
 </defs>
 <g id="figure_1">
  <g id="patch_1">
   <path d="M 0 720 
L 1152 720 
L 1152 0 
L 0 0 
z
" style="fill:#ffffff;"/>
  </g>
  <g id="axes_1">
   <g id="patch_2">
    <path d="M 144 630 
L 1036.8 630 
L 1036.8 86.4 
L 144 86.4 
z
" style="fill:#ffffff;"/>
   </g>
   <g id="matplotlib.axis_1">
    <g id="xtick_1">
     <g id="line2d_1">
      <defs>
       <path d="M 0 0 
L 0 3.5 
" id="m2e87f75e70" style="stroke:#000000;stroke-width:0.8;"/>
      </defs>
      <g>
       <use style="stroke:#000000;stroke-width:0.8;" x="183.90489" xlink:href="#m2e87f75e70" y="630"/>
      </g>
     </g>
     <g id="text_1">
      <!-- 0 -->
      <defs>
       <path d="M 31.78125 66.40625 
Q 24.171875 66.40625 20.328125 58.90625 
Q 16.5 51.421875 16.5 36.375 
Q 16.5 21.390625 20.328125 13.890625 
Q 24.171875 6.390625 31.78125 6.390625 
Q 39.453125 6.390625 43.28125 13.890625 
Q 47.125 21.390625 47.125 36.375 
Q 47.125 51.421875 43.28125 58.90625 
Q 39.453125 66.40625 31.78125 66.40625 
z
M 31.78125 74.21875 
Q 44.046875 74.21875 50.515625 64.515625 
Q 56.984375 54.828125 56.984375 36.375 
Q 56.984375 17.96875 50.515625 8.265625 
Q 44.046875 -1.421875 31.78125 -1.421875 
Q 19.53125 -1.421875 13.0625 8.265625 
Q 6.59375 17.96875 6.59375 36.375 
Q 6.59375 54.828125 13.0625 64.515625 
Q 19.53125 74.21875 31.78125 74.21875 
z
" id="DejaVuSans-30"/>
      </defs>
      <g transform="translate(180.72364 644.598438)scale(0.1 -0.1)">
       <use xlink:href="#DejaVuSans-30"/>
      </g>
     </g>
    </g>
    <g id="xtick_2">
     <g id="line2d_2">
      <g>
       <use style="stroke:#000000;stroke-width:0.8;" x="319.290439" xlink:href="#m2e87f75e70" y="630"/>
      </g>
     </g>
     <g id="text_2">
      <!-- 200 -->
      <defs>
       <path d="M 19.1875 8.296875 
L 53.609375 8.296875 
L 53.609375 0 
L 7.328125 0 
L 7.328125 8.296875 
Q 12.9375 14.109375 22.625 23.890625 
Q 32.328125 33.6875 34.8125 36.53125 
Q 39.546875 41.84375 41.421875 45.53125 
Q 43.3125 49.21875 43.3125 52.78125 
Q 43.3125 58.59375 39.234375 62.25 
Q 35.15625 65.921875 28.609375 65.921875 
Q 23.96875 65.921875 18.8125 64.3125 
Q 13.671875 62.703125 7.8125 59.421875 
L 7.8125 69.390625 
Q 13.765625 71.78125 18.9375 73 
Q 24.125 74.21875 28.421875 74.21875 
Q 39.75 74.21875 46.484375 68.546875 
Q 53.21875 62.890625 53.21875 53.421875 
Q 53.21875 48.921875 51.53125 44.890625 
Q 49.859375 40.875 45.40625 35.40625 
Q 44.1875 33.984375 37.640625 27.21875 
Q 31.109375 20.453125 19.1875 8.296875 
z
" id="DejaVuSans-32"/>
      </defs>
      <g transform="translate(309.746689 644.598438)scale(0.1 -0.1)">
       <use xlink:href="#DejaVuSans-32"/>
       <use x="63.623047" xlink:href="#DejaVuSans-30"/>
       <use x="127.246094" xlink:href="#DejaVuSans-30"/>
      </g>
     </g>
    </g>
    <g id="xtick_3">
     <g id="line2d_3">
      <g>
       <use style="stroke:#000000;stroke-width:0.8;" x="454.675988" xlink:href="#m2e87f75e70" y="630"/>
      </g>
     </g>
     <g id="text_3">
      <!-- 400 -->
      <defs>
       <path d="M 37.796875 64.3125 
L 12.890625 25.390625 
L 37.796875 25.390625 
z
M 35.203125 72.90625 
L 47.609375 72.90625 
L 47.609375 25.390625 
L 58.015625 25.390625 
L 58.015625 17.1875 
L 47.609375 17.1875 
L 47.609375 0 
L 37.796875 0 
L 37.796875 17.1875 
L 4.890625 17.1875 
L 4.890625 26.703125 
z
" id="DejaVuSans-34"/>
      </defs>
      <g transform="translate(445.132238 644.598438)scale(0.1 -0.1)">
       <use xlink:href="#DejaVuSans-34"/>
       <use x="63.623047" xlink:href="#DejaVuSans-30"/>
       <use x="127.246094" xlink:href="#DejaVuSans-30"/>
      </g>
     </g>
    </g>
    <g id="xtick_4">
     <g id="line2d_4">
      <g>
       <use style="stroke:#000000;stroke-width:0.8;" x="590.061536" xlink:href="#m2e87f75e70" y="630"/>
      </g>
     </g>
     <g id="text_4">
      <!-- 600 -->
      <defs>
       <path d="M 33.015625 40.375 
Q 26.375 40.375 22.484375 35.828125 
Q 18.609375 31.296875 18.609375 23.390625 
Q 18.609375 15.53125 22.484375 10.953125 
Q 26.375 6.390625 33.015625 6.390625 
Q 39.65625 6.390625 43.53125 10.953125 
Q 47.40625 15.53125 47.40625 23.390625 
Q 47.40625 31.296875 43.53125 35.828125 
Q 39.65625 40.375 33.015625 40.375 
z
M 52.59375 71.296875 
L 52.59375 62.3125 
Q 48.875 64.0625 45.09375 64.984375 
Q 41.3125 65.921875 37.59375 65.921875 
Q 27.828125 65.921875 22.671875 59.328125 
Q 17.53125 52.734375 16.796875 39.40625 
Q 19.671875 43.65625 24.015625 45.921875 
Q 28.375 48.1875 33.59375 48.1875 
Q 44.578125 48.1875 50.953125 41.515625 
Q 57.328125 34.859375 57.328125 23.390625 
Q 57.328125 12.15625 50.6875 5.359375 
Q 44.046875 -1.421875 33.015625 -1.421875 
Q 20.359375 -1.421875 13.671875 8.265625 
Q 6.984375 17.96875 6.984375 36.375 
Q 6.984375 53.65625 15.1875 63.9375 
Q 23.390625 74.21875 37.203125 74.21875 
Q 40.921875 74.21875 44.703125 73.484375 
Q 48.484375 72.75 52.59375 71.296875 
z
" id="DejaVuSans-36"/>
      </defs>
      <g transform="translate(580.517786 644.598438)scale(0.1 -0.1)">
       <use xlink:href="#DejaVuSans-36"/>
       <use x="63.623047" xlink:href="#DejaVuSans-30"/>
       <use x="127.246094" xlink:href="#DejaVuSans-30"/>
      </g>
     </g>
    </g>
    <g id="xtick_5">
     <g id="line2d_5">
      <g>
       <use style="stroke:#000000;stroke-width:0.8;" x="725.447085" xlink:href="#m2e87f75e70" y="630"/>
      </g>
     </g>
     <g id="text_5">
      <!-- 800 -->
      <defs>
       <path d="M 31.78125 34.625 
Q 24.75 34.625 20.71875 30.859375 
Q 16.703125 27.09375 16.703125 20.515625 
Q 16.703125 13.921875 20.71875 10.15625 
Q 24.75 6.390625 31.78125 6.390625 
Q 38.8125 6.390625 42.859375 10.171875 
Q 46.921875 13.96875 46.921875 20.515625 
Q 46.921875 27.09375 42.890625 30.859375 
Q 38.875 34.625 31.78125 34.625 
z
M 21.921875 38.8125 
Q 15.578125 40.375 12.03125 44.71875 
Q 8.5 49.078125 8.5 55.328125 
Q 8.5 64.0625 14.71875 69.140625 
Q 20.953125 74.21875 31.78125 74.21875 
Q 42.671875 74.21875 48.875 69.140625 
Q 55.078125 64.0625 55.078125 55.328125 
Q 55.078125 49.078125 51.53125 44.71875 
Q 48 40.375 41.703125 38.8125 
Q 48.828125 37.15625 52.796875 32.3125 
Q 56.78125 27.484375 56.78125 20.515625 
Q 56.78125 9.90625 50.3125 4.234375 
Q 43.84375 -1.421875 31.78125 -1.421875 
Q 19.734375 -1.421875 13.25 4.234375 
Q 6.78125 9.90625 6.78125 20.515625 
Q 6.78125 27.484375 10.78125 32.3125 
Q 14.796875 37.15625 21.921875 38.8125 
z
M 18.3125 54.390625 
Q 18.3125 48.734375 21.84375 45.5625 
Q 25.390625 42.390625 31.78125 42.390625 
Q 38.140625 42.390625 41.71875 45.5625 
Q 45.3125 48.734375 45.3125 54.390625 
Q 45.3125 60.0625 41.71875 63.234375 
Q 38.140625 66.40625 31.78125 66.40625 
Q 25.390625 66.40625 21.84375 63.234375 
Q 18.3125 60.0625 18.3125 54.390625 
z
" id="DejaVuSans-38"/>
      </defs>
      <g transform="translate(715.903335 644.598438)scale(0.1 -0.1)">
       <use xlink:href="#DejaVuSans-38"/>
       <use x="63.623047" xlink:href="#DejaVuSans-30"/>
       <use x="127.246094" xlink:href="#DejaVuSans-30"/>
      </g>
     </g>
    </g>
    <g id="xtick_6">
     <g id="line2d_6">
      <g>
       <use style="stroke:#000000;stroke-width:0.8;" x="860.832633" xlink:href="#m2e87f75e70" y="630"/>
      </g>
     </g>
     <g id="text_6">
      <!-- 1000 -->
      <defs>
       <path d="M 12.40625 8.296875 
L 28.515625 8.296875 
L 28.515625 63.921875 
L 10.984375 60.40625 
L 10.984375 69.390625 
L 28.421875 72.90625 
L 38.28125 72.90625 
L 38.28125 8.296875 
L 54.390625 8.296875 
L 54.390625 0 
L 12.40625 0 
z
" id="DejaVuSans-31"/>
      </defs>
      <g transform="translate(848.107633 644.598438)scale(0.1 -0.1)">
       <use xlink:href="#DejaVuSans-31"/>
       <use x="63.623047" xlink:href="#DejaVuSans-30"/>
       <use x="127.246094" xlink:href="#DejaVuSans-30"/>
       <use x="190.869141" xlink:href="#DejaVuSans-30"/>
      </g>
     </g>
    </g>
    <g id="xtick_7">
     <g id="line2d_7">
      <g>
       <use style="stroke:#000000;stroke-width:0.8;" x="996.218182" xlink:href="#m2e87f75e70" y="630"/>
      </g>
     </g>
     <g id="text_7">
      <!-- 1200 -->
      <g transform="translate(983.493182 644.598438)scale(0.1 -0.1)">
       <use xlink:href="#DejaVuSans-31"/>
       <use x="63.623047" xlink:href="#DejaVuSans-32"/>
       <use x="127.246094" xlink:href="#DejaVuSans-30"/>
       <use x="190.869141" xlink:href="#DejaVuSans-30"/>
      </g>
     </g>
    </g>
    <g id="text_8">
     <!-- generation -->
     <defs>
      <path d="M 45.40625 27.984375 
Q 45.40625 37.75 41.375 43.109375 
Q 37.359375 48.484375 30.078125 48.484375 
Q 22.859375 48.484375 18.828125 43.109375 
Q 14.796875 37.75 14.796875 27.984375 
Q 14.796875 18.265625 18.828125 12.890625 
Q 22.859375 7.515625 30.078125 7.515625 
Q 37.359375 7.515625 41.375 12.890625 
Q 45.40625 18.265625 45.40625 27.984375 
z
M 54.390625 6.78125 
Q 54.390625 -7.171875 48.1875 -13.984375 
Q 42 -20.796875 29.203125 -20.796875 
Q 24.46875 -20.796875 20.265625 -20.09375 
Q 16.0625 -19.390625 12.109375 -17.921875 
L 12.109375 -9.1875 
Q 16.0625 -11.328125 19.921875 -12.34375 
Q 23.78125 -13.375 27.78125 -13.375 
Q 36.625 -13.375 41.015625 -8.765625 
Q 45.40625 -4.15625 45.40625 5.171875 
L 45.40625 9.625 
Q 42.625 4.78125 38.28125 2.390625 
Q 33.9375 0 27.875 0 
Q 17.828125 0 11.671875 7.65625 
Q 5.515625 15.328125 5.515625 27.984375 
Q 5.515625 40.671875 11.671875 48.328125 
Q 17.828125 56 27.875 56 
Q 33.9375 56 38.28125 53.609375 
Q 42.625 51.21875 45.40625 46.390625 
L 45.40625 54.6875 
L 54.390625 54.6875 
z
" id="DejaVuSans-67"/>
      <path d="M 56.203125 29.59375 
L 56.203125 25.203125 
L 14.890625 25.203125 
Q 15.484375 15.921875 20.484375 11.0625 
Q 25.484375 6.203125 34.421875 6.203125 
Q 39.59375 6.203125 44.453125 7.46875 
Q 49.3125 8.734375 54.109375 11.28125 
L 54.109375 2.78125 
Q 49.265625 0.734375 44.1875 -0.34375 
Q 39.109375 -1.421875 33.890625 -1.421875 
Q 20.796875 -1.421875 13.15625 6.1875 
Q 5.515625 13.8125 5.515625 26.8125 
Q 5.515625 40.234375 12.765625 48.109375 
Q 20.015625 56 32.328125 56 
Q 43.359375 56 49.78125 48.890625 
Q 56.203125 41.796875 56.203125 29.59375 
z
M 47.21875 32.234375 
Q 47.125 39.59375 43.09375 43.984375 
Q 39.0625 48.390625 32.421875 48.390625 
Q 24.90625 48.390625 20.390625 44.140625 
Q 15.875 39.890625 15.1875 32.171875 
z
" id="DejaVuSans-65"/>
      <path d="M 54.890625 33.015625 
L 54.890625 0 
L 45.90625 0 
L 45.90625 32.71875 
Q 45.90625 40.484375 42.875 44.328125 
Q 39.84375 48.1875 33.796875 48.1875 
Q 26.515625 48.1875 22.3125 43.546875 
Q 18.109375 38.921875 18.109375 30.90625 
L 18.109375 0 
L 9.078125 0 
L 9.078125 54.6875 
L 18.109375 54.6875 
L 18.109375 46.1875 
Q 21.34375 51.125 25.703125 53.5625 
Q 30.078125 56 35.796875 56 
Q 45.21875 56 50.046875 50.171875 
Q 54.890625 44.34375 54.890625 33.015625 
z
" id="DejaVuSans-6e"/>
      <path d="M 41.109375 46.296875 
Q 39.59375 47.171875 37.8125 47.578125 
Q 36.03125 48 33.890625 48 
Q 26.265625 48 22.1875 43.046875 
Q 18.109375 38.09375 18.109375 28.8125 
L 18.109375 0 
L 9.078125 0 
L 9.078125 54.6875 
L 18.109375 54.6875 
L 18.109375 46.1875 
Q 20.953125 51.171875 25.484375 53.578125 
Q 30.03125 56 36.53125 56 
Q 37.453125 56 38.578125 55.875 
Q 39.703125 55.765625 41.0625 55.515625 
z
" id="DejaVuSans-72"/>
      <path d="M 34.28125 27.484375 
Q 23.390625 27.484375 19.1875 25 
Q 14.984375 22.515625 14.984375 16.5 
Q 14.984375 11.71875 18.140625 8.90625 
Q 21.296875 6.109375 26.703125 6.109375 
Q 34.1875 6.109375 38.703125 11.40625 
Q 43.21875 16.703125 43.21875 25.484375 
L 43.21875 27.484375 
z
M 52.203125 31.203125 
L 52.203125 0 
L 43.21875 0 
L 43.21875 8.296875 
Q 40.140625 3.328125 35.546875 0.953125 
Q 30.953125 -1.421875 24.3125 -1.421875 
Q 15.921875 -1.421875 10.953125 3.296875 
Q 6 8.015625 6 15.921875 
Q 6 25.140625 12.171875 29.828125 
Q 18.359375 34.515625 30.609375 34.515625 
L 43.21875 34.515625 
L 43.21875 35.40625 
Q 43.21875 41.609375 39.140625 45 
Q 35.0625 48.390625 27.6875 48.390625 
Q 23 48.390625 18.546875 47.265625 
Q 14.109375 46.140625 10.015625 43.890625 
L 10.015625 52.203125 
Q 14.9375 54.109375 19.578125 55.046875 
Q 24.21875 56 28.609375 56 
Q 40.484375 56 46.34375 49.84375 
Q 52.203125 43.703125 52.203125 31.203125 
z
" id="DejaVuSans-61"/>
      <path d="M 18.3125 70.21875 
L 18.3125 54.6875 
L 36.8125 54.6875 
L 36.8125 47.703125 
L 18.3125 47.703125 
L 18.3125 18.015625 
Q 18.3125 11.328125 20.140625 9.421875 
Q 21.96875 7.515625 27.59375 7.515625 
L 36.8125 7.515625 
L 36.8125 0 
L 27.59375 0 
Q 17.1875 0 13.234375 3.875 
Q 9.28125 7.765625 9.28125 18.015625 
L 9.28125 47.703125 
L 2.6875 47.703125 
L 2.6875 54.6875 
L 9.28125 54.6875 
L 9.28125 70.21875 
z
" id="DejaVuSans-74"/>
      <path d="M 9.421875 54.6875 
L 18.40625 54.6875 
L 18.40625 0 
L 9.421875 0 
z
M 9.421875 75.984375 
L 18.40625 75.984375 
L 18.40625 64.59375 
L 9.421875 64.59375 
z
" id="DejaVuSans-69"/>
      <path d="M 30.609375 48.390625 
Q 23.390625 48.390625 19.1875 42.75 
Q 14.984375 37.109375 14.984375 27.296875 
Q 14.984375 17.484375 19.15625 11.84375 
Q 23.34375 6.203125 30.609375 6.203125 
Q 37.796875 6.203125 41.984375 11.859375 
Q 46.1875 17.53125 46.1875 27.296875 
Q 46.1875 37.015625 41.984375 42.703125 
Q 37.796875 48.390625 30.609375 48.390625 
z
M 30.609375 56 
Q 42.328125 56 49.015625 48.375 
Q 55.71875 40.765625 55.71875 27.296875 
Q 55.71875 13.875 49.015625 6.21875 
Q 42.328125 -1.421875 30.609375 -1.421875 
Q 18.84375 -1.421875 12.171875 6.21875 
Q 5.515625 13.875 5.515625 27.296875 
Q 5.515625 40.765625 12.171875 48.375 
Q 18.84375 56 30.609375 56 
z
" id="DejaVuSans-6f"/>
     </defs>
     <g transform="translate(563.207031 658.276562)scale(0.1 -0.1)">
      <use xlink:href="#DejaVuSans-67"/>
      <use x="63.476562" xlink:href="#DejaVuSans-65"/>
      <use x="125" xlink:href="#DejaVuSans-6e"/>
      <use x="188.378906" xlink:href="#DejaVuSans-65"/>
      <use x="249.902344" xlink:href="#DejaVuSans-72"/>
      <use x="291.015625" xlink:href="#DejaVuSans-61"/>
      <use x="352.294922" xlink:href="#DejaVuSans-74"/>
      <use x="391.503906" xlink:href="#DejaVuSans-69"/>
      <use x="419.287109" xlink:href="#DejaVuSans-6f"/>
      <use x="480.46875" xlink:href="#DejaVuSans-6e"/>
     </g>
    </g>
   </g>
   <g id="matplotlib.axis_2">
    <g id="ytick_1">
     <g id="line2d_8">
      <defs>
       <path d="M 0 0 
L -3.5 0 
" id="m35edd636b9" style="stroke:#000000;stroke-width:0.8;"/>
      </defs>
      <g>
       <use style="stroke:#000000;stroke-width:0.8;" x="144" xlink:href="#m35edd636b9" y="571.856999"/>
      </g>
     </g>
     <g id="text_9">
      <!-- 0.1 -->
      <defs>
       <path d="M 10.6875 12.40625 
L 21 12.40625 
L 21 0 
L 10.6875 0 
z
" id="DejaVuSans-2e"/>
      </defs>
      <g transform="translate(121.096875 575.656218)scale(0.1 -0.1)">
       <use xlink:href="#DejaVuSans-30"/>
       <use x="63.623047" xlink:href="#DejaVuSans-2e"/>
       <use x="95.410156" xlink:href="#DejaVuSans-31"/>
      </g>
     </g>
    </g>
    <g id="ytick_2">
     <g id="line2d_9">
      <g>
       <use style="stroke:#000000;stroke-width:0.8;" x="144" xlink:href="#m35edd636b9" y="492.256464"/>
      </g>
     </g>
     <g id="text_10">
      <!-- 0.2 -->
      <g transform="translate(121.096875 496.055683)scale(0.1 -0.1)">
       <use xlink:href="#DejaVuSans-30"/>
       <use x="63.623047" xlink:href="#DejaVuSans-2e"/>
       <use x="95.410156" xlink:href="#DejaVuSans-32"/>
      </g>
     </g>
    </g>
    <g id="ytick_3">
     <g id="line2d_10">
      <g>
       <use style="stroke:#000000;stroke-width:0.8;" x="144" xlink:href="#m35edd636b9" y="412.655929"/>
      </g>
     </g>
     <g id="text_11">
      <!-- 0.3 -->
      <defs>
       <path d="M 40.578125 39.3125 
Q 47.65625 37.796875 51.625 33 
Q 55.609375 28.21875 55.609375 21.1875 
Q 55.609375 10.40625 48.1875 4.484375 
Q 40.765625 -1.421875 27.09375 -1.421875 
Q 22.515625 -1.421875 17.65625 -0.515625 
Q 12.796875 0.390625 7.625 2.203125 
L 7.625 11.71875 
Q 11.71875 9.328125 16.59375 8.109375 
Q 21.484375 6.890625 26.8125 6.890625 
Q 36.078125 6.890625 40.9375 10.546875 
Q 45.796875 14.203125 45.796875 21.1875 
Q 45.796875 27.640625 41.28125 31.265625 
Q 36.765625 34.90625 28.71875 34.90625 
L 20.21875 34.90625 
L 20.21875 43.015625 
L 29.109375 43.015625 
Q 36.375 43.015625 40.234375 45.921875 
Q 44.09375 48.828125 44.09375 54.296875 
Q 44.09375 59.90625 40.109375 62.90625 
Q 36.140625 65.921875 28.71875 65.921875 
Q 24.65625 65.921875 20.015625 65.03125 
Q 15.375 64.15625 9.8125 62.3125 
L 9.8125 71.09375 
Q 15.4375 72.65625 20.34375 73.4375 
Q 25.25 74.21875 29.59375 74.21875 
Q 40.828125 74.21875 47.359375 69.109375 
Q 53.90625 64.015625 53.90625 55.328125 
Q 53.90625 49.265625 50.4375 45.09375 
Q 46.96875 40.921875 40.578125 39.3125 
z
" id="DejaVuSans-33"/>
      </defs>
      <g transform="translate(121.096875 416.455148)scale(0.1 -0.1)">
       <use xlink:href="#DejaVuSans-30"/>
       <use x="63.623047" xlink:href="#DejaVuSans-2e"/>
       <use x="95.410156" xlink:href="#DejaVuSans-33"/>
      </g>
     </g>
    </g>
    <g id="ytick_4">
     <g id="line2d_11">
      <g>
       <use style="stroke:#000000;stroke-width:0.8;" x="144" xlink:href="#m35edd636b9" y="333.055394"/>
      </g>
     </g>
     <g id="text_12">
      <!-- 0.4 -->
      <g transform="translate(121.096875 336.854613)scale(0.1 -0.1)">
       <use xlink:href="#DejaVuSans-30"/>
       <use x="63.623047" xlink:href="#DejaVuSans-2e"/>
       <use x="95.410156" xlink:href="#DejaVuSans-34"/>
      </g>
     </g>
    </g>
    <g id="ytick_5">
     <g id="line2d_12">
      <g>
       <use style="stroke:#000000;stroke-width:0.8;" x="144" xlink:href="#m35edd636b9" y="253.454859"/>
      </g>
     </g>
     <g id="text_13">
      <!-- 0.5 -->
      <defs>
       <path d="M 10.796875 72.90625 
L 49.515625 72.90625 
L 49.515625 64.59375 
L 19.828125 64.59375 
L 19.828125 46.734375 
Q 21.96875 47.46875 24.109375 47.828125 
Q 26.265625 48.1875 28.421875 48.1875 
Q 40.625 48.1875 47.75 41.5 
Q 54.890625 34.8125 54.890625 23.390625 
Q 54.890625 11.625 47.5625 5.09375 
Q 40.234375 -1.421875 26.90625 -1.421875 
Q 22.3125 -1.421875 17.546875 -0.640625 
Q 12.796875 0.140625 7.71875 1.703125 
L 7.71875 11.625 
Q 12.109375 9.234375 16.796875 8.0625 
Q 21.484375 6.890625 26.703125 6.890625 
Q 35.15625 6.890625 40.078125 11.328125 
Q 45.015625 15.765625 45.015625 23.390625 
Q 45.015625 31 40.078125 35.4375 
Q 35.15625 39.890625 26.703125 39.890625 
Q 22.75 39.890625 18.8125 39.015625 
Q 14.890625 38.140625 10.796875 36.28125 
z
" id="DejaVuSans-35"/>
      </defs>
      <g transform="translate(121.096875 257.254078)scale(0.1 -0.1)">
       <use xlink:href="#DejaVuSans-30"/>
       <use x="63.623047" xlink:href="#DejaVuSans-2e"/>
       <use x="95.410156" xlink:href="#DejaVuSans-35"/>
      </g>
     </g>
    </g>
    <g id="ytick_6">
     <g id="line2d_13">
      <g>
       <use style="stroke:#000000;stroke-width:0.8;" x="144" xlink:href="#m35edd636b9" y="173.854324"/>
      </g>
     </g>
     <g id="text_14">
      <!-- 0.6 -->
      <g transform="translate(121.096875 177.653543)scale(0.1 -0.1)">
       <use xlink:href="#DejaVuSans-30"/>
       <use x="63.623047" xlink:href="#DejaVuSans-2e"/>
       <use x="95.410156" xlink:href="#DejaVuSans-36"/>
      </g>
     </g>
    </g>
    <g id="ytick_7">
     <g id="line2d_14">
      <g>
       <use style="stroke:#000000;stroke-width:0.8;" x="144" xlink:href="#m35edd636b9" y="94.253789"/>
      </g>
     </g>
     <g id="text_15">
      <!-- 0.7 -->
      <defs>
       <path d="M 8.203125 72.90625 
L 55.078125 72.90625 
L 55.078125 68.703125 
L 28.609375 0 
L 18.3125 0 
L 43.21875 64.59375 
L 8.203125 64.59375 
z
" id="DejaVuSans-37"/>
      </defs>
      <g transform="translate(121.096875 98.053008)scale(0.1 -0.1)">
       <use xlink:href="#DejaVuSans-30"/>
       <use x="63.623047" xlink:href="#DejaVuSans-2e"/>
       <use x="95.410156" xlink:href="#DejaVuSans-37"/>
      </g>
     </g>
    </g>
    <g id="text_16">
     <!-- cumulative reward -->
     <defs>
      <path d="M 48.78125 52.59375 
L 48.78125 44.1875 
Q 44.96875 46.296875 41.140625 47.34375 
Q 37.3125 48.390625 33.40625 48.390625 
Q 24.65625 48.390625 19.8125 42.84375 
Q 14.984375 37.3125 14.984375 27.296875 
Q 14.984375 17.28125 19.8125 11.734375 
Q 24.65625 6.203125 33.40625 6.203125 
Q 37.3125 6.203125 41.140625 7.25 
Q 44.96875 8.296875 48.78125 10.40625 
L 48.78125 2.09375 
Q 45.015625 0.34375 40.984375 -0.53125 
Q 36.96875 -1.421875 32.421875 -1.421875 
Q 20.0625 -1.421875 12.78125 6.34375 
Q 5.515625 14.109375 5.515625 27.296875 
Q 5.515625 40.671875 12.859375 48.328125 
Q 20.21875 56 33.015625 56 
Q 37.15625 56 41.109375 55.140625 
Q 45.0625 54.296875 48.78125 52.59375 
z
" id="DejaVuSans-63"/>
      <path d="M 8.5 21.578125 
L 8.5 54.6875 
L 17.484375 54.6875 
L 17.484375 21.921875 
Q 17.484375 14.15625 20.5 10.265625 
Q 23.53125 6.390625 29.59375 6.390625 
Q 36.859375 6.390625 41.078125 11.03125 
Q 45.3125 15.671875 45.3125 23.6875 
L 45.3125 54.6875 
L 54.296875 54.6875 
L 54.296875 0 
L 45.3125 0 
L 45.3125 8.40625 
Q 42.046875 3.421875 37.71875 1 
Q 33.40625 -1.421875 27.6875 -1.421875 
Q 18.265625 -1.421875 13.375 4.4375 
Q 8.5 10.296875 8.5 21.578125 
z
M 31.109375 56 
z
" id="DejaVuSans-75"/>
      <path d="M 52 44.1875 
Q 55.375 50.25 60.0625 53.125 
Q 64.75 56 71.09375 56 
Q 79.640625 56 84.28125 50.015625 
Q 88.921875 44.046875 88.921875 33.015625 
L 88.921875 0 
L 79.890625 0 
L 79.890625 32.71875 
Q 79.890625 40.578125 77.09375 44.375 
Q 74.3125 48.1875 68.609375 48.1875 
Q 61.625 48.1875 57.5625 43.546875 
Q 53.515625 38.921875 53.515625 30.90625 
L 53.515625 0 
L 44.484375 0 
L 44.484375 32.71875 
Q 44.484375 40.625 41.703125 44.40625 
Q 38.921875 48.1875 33.109375 48.1875 
Q 26.21875 48.1875 22.15625 43.53125 
Q 18.109375 38.875 18.109375 30.90625 
L 18.109375 0 
L 9.078125 0 
L 9.078125 54.6875 
L 18.109375 54.6875 
L 18.109375 46.1875 
Q 21.1875 51.21875 25.484375 53.609375 
Q 29.78125 56 35.6875 56 
Q 41.65625 56 45.828125 52.96875 
Q 50 49.953125 52 44.1875 
z
" id="DejaVuSans-6d"/>
      <path d="M 9.421875 75.984375 
L 18.40625 75.984375 
L 18.40625 0 
L 9.421875 0 
z
" id="DejaVuSans-6c"/>
      <path d="M 2.984375 54.6875 
L 12.5 54.6875 
L 29.59375 8.796875 
L 46.6875 54.6875 
L 56.203125 54.6875 
L 35.6875 0 
L 23.484375 0 
z
" id="DejaVuSans-76"/>
      <path id="DejaVuSans-20"/>
      <path d="M 4.203125 54.6875 
L 13.1875 54.6875 
L 24.421875 12.015625 
L 35.59375 54.6875 
L 46.1875 54.6875 
L 57.421875 12.015625 
L 68.609375 54.6875 
L 77.59375 54.6875 
L 63.28125 0 
L 52.6875 0 
L 40.921875 44.828125 
L 29.109375 0 
L 18.5 0 
z
" id="DejaVuSans-77"/>
      <path d="M 45.40625 46.390625 
L 45.40625 75.984375 
L 54.390625 75.984375 
L 54.390625 0 
L 45.40625 0 
L 45.40625 8.203125 
Q 42.578125 3.328125 38.25 0.953125 
Q 33.9375 -1.421875 27.875 -1.421875 
Q 17.96875 -1.421875 11.734375 6.484375 
Q 5.515625 14.40625 5.515625 27.296875 
Q 5.515625 40.1875 11.734375 48.09375 
Q 17.96875 56 27.875 56 
Q 33.9375 56 38.25 53.625 
Q 42.578125 51.265625 45.40625 46.390625 
z
M 14.796875 27.296875 
Q 14.796875 17.390625 18.875 11.75 
Q 22.953125 6.109375 30.078125 6.109375 
Q 37.203125 6.109375 41.296875 11.75 
Q 45.40625 17.390625 45.40625 27.296875 
Q 45.40625 37.203125 41.296875 42.84375 
Q 37.203125 48.484375 30.078125 48.484375 
Q 22.953125 48.484375 18.875 42.84375 
Q 14.796875 37.203125 14.796875 27.296875 
z
" id="DejaVuSans-64"/>
     </defs>
     <g transform="translate(115.017187 405.096875)rotate(-90)scale(0.1 -0.1)">
      <use xlink:href="#DejaVuSans-63"/>
      <use x="54.980469" xlink:href="#DejaVuSans-75"/>
      <use x="118.359375" xlink:href="#DejaVuSans-6d"/>
      <use x="215.771484" xlink:href="#DejaVuSans-75"/>
      <use x="279.150391" xlink:href="#DejaVuSans-6c"/>
      <use x="306.933594" xlink:href="#DejaVuSans-61"/>
      <use x="368.212891" xlink:href="#DejaVuSans-74"/>
      <use x="407.421875" xlink:href="#DejaVuSans-69"/>
      <use x="435.205078" xlink:href="#DejaVuSans-76"/>
      <use x="494.384766" xlink:href="#DejaVuSans-65"/>
      <use x="555.908203" xlink:href="#DejaVuSans-20"/>
      <use x="587.695312" xlink:href="#DejaVuSans-72"/>
      <use x="628.777344" xlink:href="#DejaVuSans-65"/>
      <use x="690.300781" xlink:href="#DejaVuSans-77"/>
      <use x="772.087891" xlink:href="#DejaVuSans-61"/>
      <use x="833.367188" xlink:href="#DejaVuSans-72"/>
      <use x="874.464844" xlink:href="#DejaVuSans-64"/>
     </g>
    </g>
   </g>
   <g id="line2d_15">
    <path clip-path="url(#pb334f13614)" d="M 184.581818 577.003798 
L 185.258746 582.955494 
L 185.935674 573.069109 
L 186.612601 554.723716 
L 187.289529 563.099718 
L 188.643385 555.462824 
L 189.320312 545.343184 
L 189.99724 542.210065 
L 190.674168 548.218246 
L 191.351096 534.821739 
L 192.028023 537.7955 
L 192.704951 542.342272 
L 193.381879 530.049896 
L 194.058807 508.106987 
L 194.735734 525.374913 
L 195.412662 513.219631 
L 196.08959 522.80068 
L 197.443445 506.11669 
L 198.120373 511.765494 
L 198.797301 505.407675 
L 199.474229 505.282929 
L 200.151156 513.081114 
L 200.828084 518.75013 
L 201.505012 507.841457 
L 202.181939 505.903992 
L 202.858867 502.421151 
L 203.535795 502.24527 
L 204.212723 509.503619 
L 204.88965 488.472283 
L 205.566578 491.18017 
L 206.243506 502.44663 
L 206.920434 494.931386 
L 207.597361 479.580939 
L 208.274289 488.047122 
L 208.951217 489.876127 
L 210.305072 474.47681 
L 210.982 458.705923 
L 211.658928 467.809978 
L 212.335856 450.522361 
L 213.012783 465.315169 
L 213.689711 450.07241 
L 214.366639 459.725079 
L 215.043567 444.835197 
L 215.720494 448.363467 
L 216.397422 457.863977 
L 217.07435 454.51695 
L 217.751278 445.813431 
L 218.428205 456.467368 
L 219.105133 441.898503 
L 219.782061 450.619102 
L 220.458989 423.564924 
L 221.135916 470.707031 
L 221.812844 461.127785 
L 222.489772 435.899764 
L 223.1667 430.801401 
L 224.520555 464.346021 
L 225.197483 457.565283 
L 225.87441 453.918743 
L 226.551338 414.690578 
L 227.228266 421.978699 
L 227.905194 418.07205 
L 228.582121 449.275253 
L 229.259049 429.035949 
L 229.935977 438.681738 
L 230.612905 428.064216 
L 231.289832 443.176024 
L 231.96676 441.318196 
L 232.643688 452.346313 
L 233.320616 458.49721 
L 233.997543 444.927882 
L 234.674471 435.328994 
L 235.351399 418.294594 
L 236.028327 425.912438 
L 236.705254 420.05829 
L 237.382182 453.102643 
L 238.05911 421.394169 
L 238.736038 445.390477 
L 239.412965 423.349782 
L 240.089893 447.17429 
L 240.766821 453.292034 
L 241.443749 425.209318 
L 242.120676 426.560759 
L 242.797604 436.720099 
L 243.474532 435.924839 
L 244.15146 417.714239 
L 244.828387 423.230694 
L 245.505315 426.110476 
L 246.182243 431.071082 
L 246.859171 412.56212 
L 247.536098 426.160532 
L 248.213026 426.048038 
L 248.889954 416.625457 
L 249.566881 424.842231 
L 250.243809 438.251335 
L 250.920737 442.958557 
L 251.597665 407.873117 
L 252.274592 427.596521 
L 252.95152 430.571716 
L 253.628448 441.632428 
L 254.305376 420.297843 
L 254.982303 449.412608 
L 256.336159 413.66402 
L 257.013087 390.285027 
L 257.690014 409.607752 
L 258.366942 389.25503 
L 259.04387 418.410361 
L 259.720798 410.136297 
L 260.397725 395.47795 
L 261.074653 411.369883 
L 261.751581 373.321132 
L 262.428509 395.140896 
L 263.105436 400.112793 
L 263.782364 404.025183 
L 264.459292 378.80371 
L 265.13622 395.180181 
L 266.490075 376.327642 
L 267.167003 371.402716 
L 267.843931 385.09329 
L 268.520858 381.04905 
L 269.197786 347.120808 
L 269.874714 382.034567 
L 270.551642 352.254282 
L 271.228569 348.456877 
L 271.905497 364.943398 
L 272.582425 373.434527 
L 273.259352 352.654058 
L 273.93628 385.596949 
L 274.613208 346.756521 
L 275.290136 343.718673 
L 275.967063 377.308082 
L 276.643991 322.765408 
L 277.320919 367.299358 
L 277.997847 373.098612 
L 278.674774 377.655455 
L 279.351702 377.13742 
L 280.02863 387.458288 
L 280.705558 362.353034 
L 281.382485 356.953343 
L 282.059413 352.653394 
L 282.736341 347.629425 
L 283.413269 364.204314 
L 284.090196 361.90472 
L 284.767124 390.043766 
L 285.444052 351.217192 
L 286.12098 361.350555 
L 286.797907 338.935775 
L 287.474835 351.009309 
L 288.151763 337.569674 
L 288.828691 373.345566 
L 289.505618 386.565528 
L 290.182546 353.827673 
L 291.536402 380.996765 
L 292.213329 362.13151 
L 292.890257 351.082067 
L 293.567185 352.808945 
L 294.244113 324.018162 
L 294.92104 348.854803 
L 295.597968 354.941174 
L 296.274896 351.275668 
L 296.951823 356.551241 
L 297.628751 348.160674 
L 298.305679 377.376973 
L 298.982607 335.949477 
L 299.659534 339.280942 
L 300.336462 369.179604 
L 301.01339 367.607731 
L 301.690318 331.499766 
L 302.367245 351.167872 
L 303.044173 361.673518 
L 303.721101 349.826015 
L 304.398029 326.516174 
L 305.074956 364.565352 
L 305.751884 359.720158 
L 306.428812 353.020149 
L 307.10574 351.670985 
L 307.782667 337.10371 
L 308.459595 340.616963 
L 309.136523 352.509871 
L 309.813451 339.37199 
L 310.490378 381.021555 
L 311.167306 340.370388 
L 311.844234 283.970171 
L 313.198089 343.881767 
L 313.875017 330.9317 
L 314.551945 359.399947 
L 315.228873 332.324656 
L 315.9058 318.8882 
L 316.582728 329.650739 
L 317.259656 328.903969 
L 317.936584 296.129581 
L 318.613511 349.132882 
L 319.290439 316.718701 
L 319.967367 349.456841 
L 320.644294 344.440653 
L 321.321222 309.384416 
L 321.99815 335.406059 
L 322.675078 356.172317 
L 323.352005 322.68698 
L 324.028933 348.65501 
L 324.705861 318.160574 
L 325.382789 345.564782 
L 326.059716 338.46317 
L 326.736644 369.522161 
L 327.413572 345.236269 
L 328.0905 342.675344 
L 328.767427 354.694505 
L 329.444355 364.576572 
L 330.121283 332.224664 
L 330.798211 353.205519 
L 331.475138 363.662343 
L 332.152066 311.531947 
L 332.828994 343.388665 
L 333.505922 352.814638 
L 334.182849 318.567372 
L 334.859777 346.897102 
L 335.536705 334.764547 
L 336.213633 330.848291 
L 336.89056 310.334253 
L 337.567488 349.226042 
L 338.244416 319.068873 
L 338.921344 346.11406 
L 339.598271 309.692195 
L 340.275199 323.321803 
L 340.952127 329.941154 
L 341.629055 345.885775 
L 342.305982 323.076224 
L 342.98291 336.011702 
L 343.659838 358.89515 
L 344.336765 360.048742 
L 345.013693 357.500937 
L 345.690621 369.765581 
L 346.367549 311.19959 
L 347.044476 346.522851 
L 347.721404 343.771883 
L 348.398332 324.571259 
L 349.07526 346.253977 
L 349.752187 342.699873 
L 350.429115 350.192034 
L 351.106043 293.511509 
L 351.782971 337.326444 
L 352.459898 302.157926 
L 353.136826 300.49956 
L 353.813754 322.532023 
L 354.490682 338.612837 
L 355.167609 344.049345 
L 355.844537 332.557424 
L 356.521465 334.36273 
L 357.198393 341.069879 
L 357.87532 338.808621 
L 358.552248 328.526017 
L 359.229176 314.882153 
L 359.906104 341.031804 
L 360.583031 268.022798 
L 361.259959 328.32843 
L 361.936887 366.365225 
L 362.613815 379.971773 
L 363.290742 352.020161 
L 363.96767 357.758827 
L 364.644598 315.261077 
L 365.321526 322.607983 
L 365.998453 320.332065 
L 366.675381 334.424195 
L 367.352309 327.989431 
L 368.029236 314.284836 
L 368.706164 323.58987 
L 369.383092 286.361288 
L 370.06002 315.454371 
L 370.736947 339.454451 
L 371.413875 312.880636 
L 372.090803 341.93301 
L 372.767731 331.106561 
L 374.121586 293.528091 
L 374.798514 324.3518 
L 375.475442 335.318901 
L 376.152369 319.109391 
L 376.829297 331.375222 
L 377.506225 288.703868 
L 378.183153 333.694861 
L 378.86008 327.998968 
L 380.890864 279.078647 
L 381.567791 315.737668 
L 382.244719 321.375062 
L 382.921647 322.244597 
L 383.598575 304.907115 
L 384.275502 330.976394 
L 384.95243 304.013572 
L 385.629358 320.642715 
L 386.983213 293.377166 
L 387.660141 303.217434 
L 388.337069 308.852503 
L 389.013997 319.315946 
L 389.690924 334.531778 
L 390.367852 301.433052 
L 391.04478 304.845649 
L 391.721707 331.324739 
L 392.398635 286.327364 
L 393.075563 275.789669 
L 393.752491 306.03466 
L 394.429418 303.822319 
L 395.106346 317.627997 
L 395.783274 291.695148 
L 396.460202 308.764041 
L 397.137129 311.83204 
L 397.814057 327.553192 
L 398.490985 303.791123 
L 399.167913 298.885175 
L 400.521768 310.677024 
L 401.198696 304.516021 
L 401.875624 314.448144 
L 402.552551 317.617653 
L 403.229479 294.571183 
L 403.906407 256.659194 
L 404.583335 273.114757 
L 405.260262 298.56143 
L 405.93719 309.03505 
L 406.614118 305.827987 
L 407.291046 312.032356 
L 407.967973 298.074875 
L 408.644901 300.89203 
L 409.321829 292.273154 
L 409.998757 304.786746 
L 410.675684 297.684327 
L 411.352612 291.996428 
L 412.02954 332.529621 
L 412.706468 315.091483 
L 413.383395 334.750645 
L 414.060323 302.748245 
L 414.737251 315.874739 
L 415.414178 324.129612 
L 416.091106 296.498803 
L 416.768034 298.23434 
L 417.444962 318.879565 
L 418.121889 279.350866 
L 418.798817 285.893356 
L 419.475745 311.23126 
L 420.152673 320.002389 
L 420.8296 317.376867 
L 421.506528 308.117309 
L 422.183456 276.240023 
L 422.860384 299.515965 
L 423.537311 283.407941 
L 424.214239 285.571793 
L 424.891167 269.978791 
L 425.568095 295.334772 
L 426.245022 313.542882 
L 427.598878 281.086166 
L 428.275806 286.895099 
L 428.952733 299.429756 
L 429.629661 287.272196 
L 430.306589 270.708505 
L 430.983517 281.330131 
L 431.660444 287.708079 
L 432.337372 327.117381 
L 433.0143 291.060563 
L 433.691228 285.327733 
L 434.368155 282.341553 
L 435.045083 282.878353 
L 435.722011 285.643436 
L 436.398939 323.198207 
L 437.075866 280.139839 
L 437.752794 301.859992 
L 438.429722 264.595327 
L 439.106649 295.836178 
L 439.783577 272.01065 
L 440.460505 317.083558 
L 441.137433 292.429535 
L 441.81436 287.695649 
L 442.491288 277.606718 
L 443.168216 253.562798 
L 443.845144 294.220963 
L 444.522071 294.062566 
L 445.198999 261.604688 
L 445.875927 253.961863 
L 446.552855 297.129355 
L 447.229782 243.067211 
L 447.90671 278.714336 
L 448.583638 267.096375 
L 449.260566 307.6378 
L 449.937493 309.004258 
L 450.614421 282.314225 
L 451.291349 306.165776 
L 451.968277 276.827519 
L 452.645204 289.154222 
L 453.322132 297.031238 
L 453.99906 315.573435 
L 454.675988 302.834453 
L 455.352915 268.687464 
L 456.029843 292.326958 
L 456.706771 269.026249 
L 457.383699 204.910213 
L 458.060626 272.334419 
L 458.737554 262.933236 
L 459.414482 284.966577 
L 460.09141 239.686284 
L 460.768337 281.153776 
L 461.445265 291.417046 
L 462.122193 236.99588 
L 463.476048 270.709051 
L 464.152976 297.043716 
L 464.829904 270.081701 
L 465.506831 274.508211 
L 466.183759 279.702486 
L 466.860687 261.424465 
L 467.537615 288.955116 
L 468.214542 296.279557 
L 468.89147 216.204926 
L 469.568398 293.692039 
L 470.245326 305.87121 
L 470.922253 284.099176 
L 471.599181 296.588713 
L 472.276109 291.335344 
L 472.953037 279.13774 
L 473.629964 248.966978 
L 474.306892 270.699965 
L 474.98382 283.447629 
L 475.660748 264.680397 
L 476.337675 281.788717 
L 477.014603 311.085104 
L 477.691531 271.983369 
L 478.368459 321.951953 
L 479.045386 264.522451 
L 479.722314 280.840682 
L 480.399242 287.361964 
L 481.07617 254.304847 
L 481.753097 279.235289 
L 482.430025 296.408538 
L 483.106953 265.264144 
L 483.783881 262.211991 
L 484.460808 293.672278 
L 485.137736 294.939883 
L 485.814664 281.862186 
L 486.491591 247.013168 
L 487.168519 271.373906 
L 488.522375 304.568021 
L 489.199302 275.266795 
L 489.87623 278.171985 
L 490.553158 277.985761 
L 491.230086 266.895562 
L 492.583941 280.474521 
L 493.260869 281.454273 
L 493.937797 284.552044 
L 494.614724 266.592242 
L 495.291652 240.579258 
L 495.96858 249.94061 
L 497.322435 290.192379 
L 497.999363 287.528427 
L 498.676291 300.081659 
L 499.353219 326.09367 
L 500.030146 283.911125 
L 500.707074 309.440473 
L 501.384002 328.516338 
L 502.06093 309.662257 
L 502.737857 236.991468 
L 503.414785 300.488552 
L 504.091713 252.155893 
L 504.768641 284.391109 
L 505.445568 293.424019 
L 506.122496 274.325948 
L 506.799424 280.482871 
L 507.476352 289.352165 
L 508.153279 281.865318 
L 508.830207 231.836549 
L 509.507135 291.110167 
L 510.184062 247.611599 
L 510.86099 251.259456 
L 511.537918 282.793093 
L 512.214846 258.860955 
L 512.891773 213.502424 
L 513.568701 269.830215 
L 514.245629 282.12857 
L 514.922557 271.202698 
L 515.599484 285.458374 
L 516.276412 262.634352 
L 516.95334 283.820196 
L 517.630268 262.281618 
L 518.307195 306.040971 
L 518.984123 309.058891 
L 519.661051 284.969637 
L 520.337979 299.99806 
L 521.014906 288.599511 
L 521.691834 254.842643 
L 522.368762 278.294917 
L 523.04569 259.62388 
L 523.722617 275.216408 
L 524.399545 272.261471 
L 525.076473 230.334421 
L 525.753401 252.029688 
L 526.430328 216.946406 
L 527.107256 302.280905 
L 527.784184 299.059917 
L 528.461112 290.795603 
L 529.138039 254.380784 
L 529.814967 277.255763 
L 530.491895 272.348747 
L 531.168823 257.623075 
L 531.84575 310.976287 
L 532.522678 292.534627 
L 533.199606 288.667003 
L 533.876533 307.315265 
L 535.230389 272.403689 
L 535.907317 281.230804 
L 536.584244 251.131352 
L 537.261172 279.448604 
L 537.9381 211.046212 
L 538.615028 287.596274 
L 539.291955 307.311944 
L 539.968883 270.793077 
L 540.645811 269.423013 
L 541.322739 292.663347 
L 541.999666 261.263601 
L 542.676594 246.062737 
L 543.353522 272.56434 
L 544.03045 273.820439 
L 544.707377 284.672841 
L 545.384305 239.562118 
L 546.061233 286.315551 
L 547.415088 240.560659 
L 548.092016 291.912591 
L 548.768944 294.205472 
L 549.445872 268.978733 
L 550.122799 276.590907 
L 550.799727 296.893313 
L 551.476655 246.179596 
L 552.153583 292.450174 
L 552.83051 216.584491 
L 553.507438 287.55241 
L 554.184366 260.851393 
L 554.861294 274.233785 
L 555.538221 272.787287 
L 556.215149 251.119396 
L 556.892077 251.714127 
L 557.569004 238.452318 
L 558.92286 264.210401 
L 559.599788 266.180177 
L 560.276715 254.681471 
L 561.630571 283.9051 
L 562.307499 301.737179 
L 562.984426 273.730008 
L 563.661354 283.115676 
L 564.338282 314.227664 
L 565.01521 301.470582 
L 565.692137 283.72891 
L 566.369065 298.451546 
L 567.045993 251.231937 
L 567.722921 241.060736 
L 568.399848 286.041173 
L 569.076776 278.274041 
L 569.753704 256.296638 
L 570.430632 283.758184 
L 571.107559 299.220711 
L 571.784487 291.391283 
L 572.461415 221.458627 
L 573.138343 287.93838 
L 573.81527 254.438668 
L 574.492198 277.651934 
L 575.169126 283.756144 
L 575.846054 291.745915 
L 576.522981 324.533184 
L 577.199909 296.377912 
L 577.876837 241.805442 
L 578.553765 263.559826 
L 579.230692 270.08711 
L 579.90762 270.561993 
L 580.584548 243.374611 
L 581.261475 289.131827 
L 581.938403 255.237106 
L 582.615331 256.274386 
L 583.292259 260.889255 
L 583.969186 240.662762 
L 584.646114 276.253521 
L 585.323042 236.96096 
L 585.99997 249.936387 
L 586.676897 285.247882 
L 587.353825 268.11852 
L 588.030753 213.296036 
L 588.707681 275.052341 
L 589.384608 270.726297 
L 590.061536 264.977407 
L 590.738464 258.030752 
L 591.415392 228.465538 
L 592.092319 228.276941 
L 592.769247 280.664161 
L 593.446175 270.324029 
L 594.123103 283.095986 
L 594.80003 300.210426 
L 595.476958 257.048532 
L 596.153886 270.127154 
L 596.830814 297.633275 
L 597.507741 266.611623 
L 598.184669 281.791943 
L 598.861597 278.256818 
L 599.538525 256.922991 
L 600.215452 278.218766 
L 601.569308 303.784077 
L 602.246235 301.014013 
L 602.923163 292.691458 
L 603.600091 266.73631 
L 604.277019 283.893642 
L 604.953946 268.620091 
L 606.307802 296.16526 
L 606.98473 314.151894 
L 607.661657 309.619295 
L 608.338585 315.937865 
L 609.015513 291.52292 
L 609.692441 315.227248 
L 610.369368 331.248494 
L 611.046296 293.876009 
L 611.723224 288.089376 
L 612.400152 297.475163 
L 613.077079 331.441029 
L 613.754007 279.170004 
L 614.430935 310.605642 
L 615.107863 322.406434 
L 615.78479 314.868702 
L 616.461718 312.316745 
L 617.138646 313.663915 
L 617.815574 315.544612 
L 618.492501 261.575508 
L 619.169429 282.596716 
L 619.846357 311.411031 
L 620.523285 295.984588 
L 621.200212 303.472004 
L 621.87714 323.903272 
L 622.554068 318.073938 
L 623.230996 319.463407 
L 623.907923 228.863085 
L 624.584851 262.856018 
L 625.261779 285.331007 
L 625.938706 324.046368 
L 626.615634 286.202677 
L 627.292562 289.204348 
L 627.96949 314.97294 
L 628.646417 280.249581 
L 629.323345 299.034107 
L 630.677201 290.379007 
L 631.354128 251.951165 
L 632.031056 311.995538 
L 632.707984 253.2665 
L 633.384912 286.817217 
L 634.061839 286.43203 
L 634.738767 271.707994 
L 635.415695 271.298064 
L 636.092623 265.322194 
L 636.76955 240.187594 
L 637.446478 261.180049 
L 638.123406 261.407741 
L 638.800334 268.375556 
L 639.477261 312.211558 
L 640.154189 290.643492 
L 640.831117 280.333797 
L 641.508045 235.027741 
L 642.184972 282.707644 
L 642.8619 287.920209 
L 643.538828 275.314502 
L 644.215756 323.702696 
L 644.892683 295.451346 
L 645.569611 229.657372 
L 646.246539 227.295149 
L 646.923467 283.619548 
L 647.600394 294.98396 
L 648.277322 266.895728 
L 648.95425 312.726105 
L 649.631177 301.093247 
L 650.308105 312.68701 
L 650.985033 292.885986 
L 651.661961 294.538255 
L 652.338888 310.809635 
L 653.015816 297.463776 
L 654.369672 259.63484 
L 655.046599 301.322741 
L 655.723527 277.45399 
L 656.400455 290.380359 
L 657.077383 235.797404 
L 657.75431 279.390056 
L 658.431238 218.50286 
L 659.108166 223.715188 
L 659.785094 260.643914 
L 660.462021 273.226918 
L 661.138949 299.936546 
L 661.815877 246.195632 
L 662.492805 253.8423 
L 663.169732 279.827078 
L 663.84666 291.337574 
L 664.523588 262.843991 
L 665.200516 265.191766 
L 665.877443 266.328492 
L 666.554371 272.334751 
L 667.231299 244.32414 
L 667.908227 250.629995 
L 668.585154 270.975054 
L 669.262082 281.556471 
L 669.93901 295.821873 
L 670.615938 260.465471 
L 671.292865 302.68908 
L 671.969793 247.537489 
L 672.646721 282.212596 
L 673.323648 284.812995 
L 674.000576 299.539711 
L 674.677504 280.559828 
L 675.354432 312.601015 
L 676.031359 286.317923 
L 676.708287 287.304649 
L 677.385215 260.972261 
L 678.062143 333.941792 
L 678.73907 280.520187 
L 679.415998 305.263123 
L 680.092926 297.808017 
L 680.769854 299.220094 
L 682.123709 253.878881 
L 682.800637 289.740104 
L 683.477565 299.506286 
L 684.154492 312.576414 
L 684.83142 275.641354 
L 685.508348 309.446095 
L 686.185276 275.171524 
L 686.862203 273.161586 
L 687.539131 284.722184 
L 688.216059 292.371628 
L 688.892987 263.515441 
L 689.569914 258.174654 
L 690.246842 281.759846 
L 690.92377 270.855586 
L 691.600698 272.618428 
L 692.277625 291.949409 
L 692.954553 288.582644 
L 693.631481 278.334344 
L 694.308409 296.541884 
L 694.985336 286.886843 
L 695.662264 294.165523 
L 696.339192 275.474844 
L 697.016119 272.619235 
L 697.693047 299.648338 
L 698.369975 229.002432 
L 699.046903 268.395128 
L 699.72383 268.18269 
L 700.400758 280.936072 
L 701.077686 210.027365 
L 701.754614 280.649358 
L 702.431541 304.903272 
L 703.108469 322.556054 
L 703.785397 299.111064 
L 704.462325 268.748052 
L 705.139252 293.419867 
L 705.81618 293.922649 
L 706.493108 266.000737 
L 707.170036 281.564821 
L 707.846963 252.288266 
L 708.523891 312.887753 
L 709.200819 276.097544 
L 709.877747 253.27969 
L 710.554674 298.984289 
L 711.231602 282.329028 
L 712.585458 274.533974 
L 713.262385 303.208799 
L 713.939313 299.910712 
L 714.616241 252.163674 
L 715.293169 298.486442 
L 715.970096 292.800749 
L 716.647024 284.02796 
L 717.323952 251.72262 
L 718.00088 278.990019 
L 718.677807 283.025719 
L 719.354735 283.011865 
L 720.031663 278.347866 
L 720.70859 314.319519 
L 721.385518 223.142282 
L 722.062446 261.724108 
L 722.739374 285.156478 
L 723.416301 277.066384 
L 724.093229 293.555277 
L 724.770157 247.81813 
L 725.447085 321.608684 
L 726.124012 292.215105 
L 726.80094 317.959974 
L 728.154796 285.723334 
L 728.831723 310.50584 
L 729.508651 289.958615 
L 730.185579 287.367705 
L 730.862507 282.937707 
L 732.216362 268.724377 
L 732.89329 277.42576 
L 733.570218 258.136223 
L 734.247145 306.658119 
L 734.924073 297.404113 
L 735.601001 299.007775 
L 736.277929 274.692798 
L 736.954856 308.870295 
L 737.631784 319.971952 
L 738.98564 263.850526 
L 739.662567 306.599311 
L 740.339495 268.473152 
L 741.016423 303.700194 
L 741.693351 298.737619 
L 742.370278 279.578392 
L 743.047206 265.797457 
L 743.724134 301.400979 
L 744.401061 307.042714 
L 745.077989 275.029092 
L 745.754917 268.672803 
L 746.431845 274.431135 
L 747.108772 272.41835 
L 747.7857 303.891162 
L 748.462628 247.784681 
L 749.139556 279.703601 
L 749.816483 273.538612 
L 750.493411 293.358259 
L 751.170339 290.055783 
L 751.847267 225.236958 
L 752.524194 276.808351 
L 753.201122 213.980391 
L 753.87805 249.958307 
L 754.554978 252.759069 
L 755.231905 198.038806 
L 755.908833 273.700947 
L 756.585761 222.742315 
L 757.262689 257.813498 
L 757.939616 244.808845 
L 758.616544 201.494033 
L 759.293472 228.487553 
L 759.9704 237.944176 
L 760.647327 266.548663 
L 761.324255 218.969962 
L 762.001183 258.943653 
L 762.678111 245.215928 
L 763.355038 247.204279 
L 764.031966 245.42744 
L 764.708894 207.942937 
L 765.385822 185.511883 
L 766.062749 198.536037 
L 766.739677 229.579703 
L 767.416605 222.730834 
L 768.093532 233.358604 
L 768.77046 257.118183 
L 769.447388 240.174072 
L 770.124316 219.773691 
L 770.801243 222.792038 
L 771.478171 215.4996 
L 772.155099 231.196602 
L 772.832027 222.497449 
L 774.185882 177.140721 
L 774.86281 227.468326 
L 775.539738 246.297403 
L 776.216665 173.17403 
L 776.893593 188.691688 
L 777.570521 214.38738 
L 778.247449 193.376753 
L 778.924376 162.955573 
L 779.601304 226.854047 
L 780.278232 221.784056 
L 780.95516 211.075106 
L 781.632087 235.231093 
L 782.309015 213.033851 
L 782.985943 149.889809 
L 783.662871 221.238574 
L 784.339798 230.781263 
L 785.016726 220.082846 
L 785.693654 186.062442 
L 786.370582 192.437614 
L 787.047509 217.260307 
L 787.724437 263.474282 
L 788.401365 197.274505 
L 789.078293 225.415259 
L 789.75522 231.029878 
L 790.432148 144.607214 
L 791.786003 256.291253 
L 792.462931 225.806116 
L 793.139859 225.976066 
L 793.816787 171.796019 
L 794.493714 201.112998 
L 795.170642 211.827973 
L 795.84757 220.005415 
L 796.524498 188.93627 
L 797.201425 234.938923 
L 797.878353 229.075072 
L 798.555281 286.273039 
L 799.232209 211.340327 
L 799.909136 170.815319 
L 800.586064 228.979089 
L 801.262992 249.547048 
L 801.93992 278.449566 
L 802.616847 281.439707 
L 803.293775 245.09589 
L 803.970703 247.053402 
L 804.647631 230.764942 
L 805.324558 253.71071 
L 806.001486 240.304595 
L 806.678414 247.886879 
L 807.355342 233.405291 
L 808.032269 254.619768 
L 808.709197 247.651027 
L 809.386125 253.768332 
L 810.063053 231.248887 
L 810.73998 190.420654 
L 811.416908 232.646872 
L 812.093836 235.422963 
L 812.770764 179.005286 
L 813.447691 197.054974 
L 814.124619 223.223414 
L 814.801547 227.15528 
L 815.478474 201.799204 
L 816.155402 200.298784 
L 816.83233 240.164488 
L 817.509258 201.744262 
L 818.186185 242.050451 
L 818.863113 199.634735 
L 819.540041 111.109091 
L 820.216969 209.30956 
L 820.893896 163.640023 
L 821.570824 171.653208 
L 822.247752 117.303164 
L 822.92468 188.468409 
L 823.601607 220.094992 
L 824.278535 191.862573 
L 824.955463 205.410479 
L 825.632391 130.827252 
L 826.309318 226.042965 
L 826.986246 199.631746 
L 827.663174 203.820956 
L 828.340102 191.949778 
L 829.017029 189.771076 
L 829.693957 237.20929 
L 830.370885 168.451198 
L 831.047813 145.127503 
L 831.72474 177.916029 
L 832.401668 196.942054 
L 833.078596 211.510705 
L 833.755524 222.366119 
L 834.432451 202.900037 
L 835.109379 200.735236 
L 835.786307 230.234215 
L 836.463235 213.619994 
L 837.140162 175.6171 
L 837.81709 228.921917 
L 838.494018 223.5348 
L 839.170945 228.061491 
L 839.847873 224.450405 
L 840.524801 165.661776 
L 841.201729 221.810484 
L 841.878656 221.687884 
L 842.555584 235.077796 
L 843.232512 237.678148 
L 843.90944 180.701372 
L 844.586367 252.440662 
L 845.263295 249.837178 
L 845.940223 176.275028 
L 846.617151 183.66046 
L 847.294078 243.492134 
L 847.971006 216.170054 
L 848.647934 259.265903 
L 849.324862 216.441395 
L 850.001789 214.07329 
L 850.678717 234.785341 
L 851.355645 213.54337 
L 852.032573 231.528247 
L 852.7095 234.540332 
L 853.386428 206.905491 
L 854.063356 247.01777 
L 854.740284 250.200849 
L 855.417211 263.748114 
L 856.094139 262.095702 
L 856.771067 245.797848 
L 857.447995 237.945504 
L 858.124922 284.449989 
L 858.80185 230.671 
L 859.478778 240.375431 
L 860.155706 288.187043 
L 860.832633 276.619019 
L 861.509561 255.265194 
L 862.186489 222.128512 
L 862.863416 222.102416 
L 863.540344 209.517277 
L 864.217272 250.417438 
L 864.8942 219.33814 
L 865.571127 278.18852 
L 866.248055 283.132661 
L 866.924983 273.093169 
L 867.601911 256.249643 
L 868.278838 225.872018 
L 868.955766 228.734554 
L 869.632694 240.93064 
L 870.309622 290.236693 
L 870.986549 261.397184 
L 871.663477 249.863226 
L 872.340405 285.397003 
L 873.017333 281.447749 
L 873.69426 235.934901 
L 874.371188 284.35785 
L 875.048116 269.799708 
L 875.725044 260.020882 
L 876.401971 265.995376 
L 877.078899 220.244731 
L 877.755827 266.095178 
L 878.432755 279.771021 
L 879.109682 240.483038 
L 879.78661 260.407587 
L 880.463538 227.215203 
L 881.140466 252.709014 
L 881.817393 232.933871 
L 882.494321 265.278117 
L 883.171249 277.21012 
L 883.848177 284.18695 
L 884.525104 252.640692 
L 885.202032 244.689092 
L 885.87896 198.140909 
L 887.232815 266.589798 
L 887.909743 238.206977 
L 888.586671 171.480981 
L 889.263598 240.482706 
L 889.940526 227.624896 
L 890.617454 221.651683 
L 891.294382 208.766877 
L 891.971309 265.985033 
L 892.648237 258.678005 
L 894.002093 214.532658 
L 894.67902 235.810119 
L 895.355948 189.415803 
L 896.032876 227.924373 
L 896.709804 247.028256 
L 897.386731 228.105947 
L 898.063659 276.690069 
L 898.740587 231.582525 
L 899.417515 238.392489 
L 900.094442 204.170251 
L 900.77137 225.15483 
L 901.448298 227.499071 
L 902.125226 273.867624 
L 902.802153 221.622646 
L 903.479081 212.764787 
L 904.156009 197.218994 
L 904.832937 209.62626 
L 905.509864 233.755961 
L 906.186792 198.439769 
L 906.86372 222.254527 
L 907.540648 241.38868 
L 908.217575 220.865082 
L 908.894503 224.4895 
L 909.571431 226.840098 
L 910.248358 250.688922 
L 910.925286 280.389593 
L 911.602214 207.301092 
L 912.279142 241.211992 
L 912.956069 227.968308 
L 913.632997 252.057918 
L 914.309925 189.95972 
L 914.986853 233.590803 
L 916.340708 173.21303 
L 917.017636 219.144752 
L 917.694564 210.702848 
L 918.371491 215.02353 
L 919.048419 236.519336 
L 919.725347 229.181967 
L 920.402275 193.832942 
L 921.079202 177.81701 
L 921.75613 205.020903 
L 922.433058 227.664798 
L 923.109986 187.507351 
L 923.786913 222.288071 
L 924.463841 205.10474 
L 925.140769 197.471879 
L 925.817697 193.288694 
L 926.494624 203.819533 
L 927.171552 211.207717 
L 927.84848 191.592371 
L 928.525408 192.300117 
L 929.202335 206.517907 
L 929.879263 245.914517 
L 930.556191 224.098833 
L 931.233119 209.36213 
L 931.910046 236.182804 
L 932.586974 229.842267 
L 933.263902 207.68284 
L 933.940829 236.37847 
L 934.617757 239.447063 
L 935.294685 245.127015 
L 935.971613 239.329825 
L 936.64854 220.106332 
L 937.325468 161.948682 
L 938.002396 215.218817 
L 938.679324 211.751681 
L 939.356251 246.159004 
L 940.033179 223.692129 
L 940.710107 226.863869 
L 941.387035 232.372874 
L 942.063962 222.336228 
L 942.74089 215.7782 
L 943.417818 241.426067 
L 944.094746 229.548342 
L 944.771673 226.629013 
L 945.448601 242.447381 
L 946.125529 211.725775 
L 946.802457 216.126451 
L 947.479384 203.410362 
L 948.156312 245.126588 
L 948.83324 177.045687 
L 949.510168 222.115417 
L 950.187095 194.437494 
L 950.864023 176.911226 
L 951.540951 236.510322 
L 952.217879 244.048196 
L 952.894806 231.94909 
L 953.571734 176.577399 
L 954.248662 236.30844 
L 954.92559 234.255706 
L 955.602517 245.988864 
L 956.279445 222.82359 
L 956.956373 244.183606 
L 957.6333 258.468366 
L 958.310228 214.605629 
L 958.987156 241.550374 
L 959.664084 202.724298 
L 960.341011 190.822281 
L 961.017939 242.39168 
L 961.694867 194.663573 
L 962.371795 247.006525 
L 963.048722 220.905458 
L 963.72565 215.789587 
L 964.402578 237.538753 
L 965.079506 224.24359 
L 965.756433 244.286658 
L 966.433361 256.318368 
L 967.110289 263.663495 
L 967.787217 241.582922 
L 968.464144 223.649001 
L 969.141072 230.357574 
L 969.818 191.79615 
L 970.494928 171.532933 
L 971.171855 193.836691 
L 971.848783 233.97293 
L 972.525711 241.256117 
L 973.202639 230.267048 
L 973.879566 229.316997 
L 974.556494 267.19677 
L 975.233422 216.638579 
L 975.91035 257.379133 
L 976.587277 172.431506 
L 977.264205 203.637579 
L 977.941133 201.046242 
L 978.618061 192.932472 
L 979.294988 200.314251 
L 979.971916 234.549584 
L 980.648844 241.530447 
L 981.325771 219.012995 
L 982.002699 217.374651 
L 982.679627 222.012744 
L 983.356555 224.859861 
L 984.033482 240.018735 
L 984.71041 168.707025 
L 985.387338 197.440327 
L 986.064266 178.277138 
L 986.741193 230.338406 
L 987.418121 144.293788 
L 988.095049 188.747958 
L 988.771977 179.00614 
L 989.448904 226.290488 
L 990.125832 232.591598 
L 990.80276 178.84008 
L 991.479688 222.421725 
L 992.156615 288.10221 
L 992.833543 199.716721 
L 993.510471 231.340173 
L 994.187399 277.693804 
L 994.864326 245.097314 
L 995.541254 254.112218 
L 996.218182 216.621784 
L 996.218182 216.621784 
" style="fill:none;stroke:#1f77b4;stroke-linecap:square;stroke-width:1.5;"/>
   </g>
   <g id="line2d_16">
    <path clip-path="url(#pb334f13614)" d="M 184.581818 603.4687 
L 185.258746 605.290909 
L 185.935674 602.905013 
L 186.612601 594.668507 
L 187.289529 589.219343 
L 187.966457 581.419042 
L 188.643385 579.253764 
L 189.320312 574.263945 
L 189.99724 573.337277 
L 190.674168 570.722592 
L 191.351096 565.977868 
L 192.028023 565.660817 
L 192.704951 561.104058 
L 193.381879 555.050438 
L 194.058807 553.750359 
L 194.735734 549.738661 
L 195.412662 550.161999 
L 196.08959 542.917837 
L 196.766518 541.263702 
L 197.443445 535.598895 
L 198.120373 539.883872 
L 198.797301 533.67533 
L 200.151156 533.946486 
L 200.828084 535.095513 
L 201.505012 532.265609 
L 202.181939 532.198053 
L 202.858867 533.575597 
L 203.535795 531.266782 
L 204.212723 531.266088 
L 204.88965 528.456751 
L 205.566578 524.533812 
L 206.243506 527.839829 
L 206.920434 524.036494 
L 207.597361 522.868305 
L 208.274289 524.130923 
L 208.951217 522.942644 
L 209.628145 518.807647 
L 210.305072 519.684456 
L 210.982 517.749963 
L 211.658928 512.177978 
L 212.335856 510.297039 
L 213.012783 512.317023 
L 213.689711 502.845646 
L 214.366639 506.925734 
L 215.043567 505.874509 
L 215.720494 502.843724 
L 216.397422 503.273233 
L 217.07435 503.038232 
L 217.751278 497.37536 
L 218.428205 503.13836 
L 219.105133 507.295677 
L 219.782061 502.124417 
L 220.458989 499.62196 
L 221.135916 500.672269 
L 221.812844 505.983357 
L 222.489772 495.200547 
L 223.1667 499.275065 
L 223.843627 500.135839 
L 224.520555 502.073506 
L 225.197483 505.832353 
L 225.87441 495.940515 
L 226.551338 497.789773 
L 227.228266 503.170812 
L 227.905194 492.718143 
L 228.582121 499.925885 
L 229.259049 499.355047 
L 229.935977 502.322935 
L 230.612905 496.15701 
L 231.289832 493.97995 
L 231.96676 494.246269 
L 232.643688 498.432216 
L 233.320616 501.708611 
L 233.997543 496.653892 
L 234.674471 486.377583 
L 235.351399 493.8261 
L 236.028327 489.368759 
L 236.705254 487.821744 
L 237.382182 495.247025 
L 238.05911 487.055465 
L 238.736038 490.95162 
L 239.412965 492.866604 
L 240.089893 485.189809 
L 240.766821 489.328697 
L 241.443749 483.920277 
L 242.120676 484.006871 
L 242.797604 485.361702 
L 243.474532 484.301715 
L 244.15146 485.345641 
L 244.828387 480.66401 
L 245.505315 478.569097 
L 246.182243 479.547384 
L 246.859171 476.516471 
L 247.536098 479.396073 
L 248.213026 476.124562 
L 248.889954 481.089103 
L 249.566881 482.882553 
L 250.243809 480.124693 
L 250.920737 481.420069 
L 251.597665 474.759371 
L 252.274592 479.123396 
L 252.95152 475.710107 
L 253.628448 470.704782 
L 254.305376 468.811174 
L 254.982303 475.521373 
L 255.659231 472.790312 
L 256.336159 471.386571 
L 257.013087 464.519318 
L 257.690014 466.194772 
L 259.04387 458.294698 
L 259.720798 459.283063 
L 260.397725 455.548418 
L 261.074653 463.455597 
L 261.751581 447.805209 
L 262.428509 448.028175 
L 263.105436 450.257123 
L 263.782364 444.563977 
L 264.459292 440.779974 
L 265.13622 446.873171 
L 265.813147 441.969339 
L 266.490075 446.556718 
L 267.167003 443.231599 
L 267.843931 443.68785 
L 268.520858 455.701047 
L 269.197786 450.107209 
L 269.874714 445.819068 
L 270.551642 443.535798 
L 271.228569 443.583746 
L 271.905497 434.890399 
L 272.582425 434.730634 
L 273.259352 428.219338 
L 273.93628 439.583164 
L 274.613208 432.132812 
L 275.967063 442.441217 
L 276.643991 427.806028 
L 277.320919 435.774164 
L 279.351702 432.393779 
L 280.02863 440.624935 
L 280.705558 429.547489 
L 281.382485 428.631375 
L 282.059413 430.711511 
L 282.736341 422.594875 
L 283.413269 426.070418 
L 284.090196 431.374828 
L 284.767124 432.179128 
L 285.444052 421.32424 
L 286.12098 422.115312 
L 286.797907 423.437157 
L 287.474835 430.078426 
L 288.151763 431.687963 
L 288.828691 429.060609 
L 289.505618 436.297075 
L 290.182546 434.014028 
L 290.859474 424.013121 
L 291.536402 434.105251 
L 292.213329 431.132784 
L 292.890257 426.308172 
L 293.567185 422.979844 
L 294.244113 416.186832 
L 294.92104 427.015222 
L 295.597968 426.269418 
L 296.274896 429.837557 
L 296.951823 427.203931 
L 297.628751 429.994074 
L 298.305679 425.898857 
L 298.982607 431.39918 
L 299.659534 425.460645 
L 300.336462 415.677058 
L 301.01339 421.924259 
L 301.690318 416.94696 
L 302.367245 419.974566 
L 303.044173 432.833718 
L 303.721101 426.033985 
L 304.398029 417.067923 
L 305.074956 418.277941 
L 305.751884 420.575352 
L 306.428812 414.177161 
L 307.10574 414.752466 
L 307.782667 417.114719 
L 308.459595 413.32644 
L 309.136523 416.314189 
L 309.813451 414.693515 
L 310.490378 433.463991 
L 311.167306 409.711195 
L 311.844234 403.662264 
L 312.521162 414.15361 
L 313.198089 416.386397 
L 313.875017 417.433682 
L 314.551945 423.954594 
L 315.228873 409.33031 
L 315.9058 408.749614 
L 316.582728 415.156881 
L 317.259656 410.484557 
L 317.936584 420.1198 
L 318.613511 417.445232 
L 319.290439 416.690946 
L 319.967367 413.414578 
L 320.644294 409.285279 
L 321.321222 410.57368 
L 321.99815 407.12063 
L 322.675078 414.036738 
L 323.352005 422.538522 
L 324.028933 420.243356 
L 324.705861 428.691924 
L 325.382789 417.866814 
L 326.059716 416.288656 
L 326.736644 422.677546 
L 327.413572 409.359687 
L 328.0905 409.206106 
L 328.767427 416.861747 
L 329.444355 417.902266 
L 330.121283 420.326155 
L 330.798211 409.895451 
L 331.475138 413.881338 
L 332.152066 406.789988 
L 332.828994 417.913744 
L 333.505922 412.248798 
L 334.182849 413.606653 
L 334.859777 412.058594 
L 335.536705 411.116741 
L 336.213633 418.560421 
L 336.89056 403.688739 
L 337.567488 409.888837 
L 338.244416 395.296419 
L 338.921344 397.777472 
L 339.598271 402.889167 
L 340.275199 404.397288 
L 340.952127 405.593158 
L 341.629055 405.199925 
L 342.305982 401.422196 
L 342.98291 399.927214 
L 343.659838 410.182842 
L 344.336765 412.56545 
L 345.013693 409.051842 
L 345.690621 417.939035 
L 346.367549 413.228732 
L 347.044476 400.547566 
L 347.721404 415.18148 
L 348.398332 410.536072 
L 349.07526 410.751896 
L 349.752187 401.496867 
L 350.429115 408.877925 
L 351.106043 400.81136 
L 351.782971 403.64351 
L 353.136826 395.725247 
L 353.813754 385.650808 
L 354.490682 402.393363 
L 355.167609 397.607234 
L 355.844537 405.228512 
L 356.521465 396.46171 
L 357.198393 400.638643 
L 357.87532 407.043539 
L 358.552248 400.365706 
L 359.229176 398.954033 
L 359.906104 402.309263 
L 360.583031 404.695841 
L 361.259959 403.983403 
L 361.936887 412.150109 
L 362.613815 424.464135 
L 363.290742 411.668818 
L 363.96767 408.046269 
L 364.644598 396.746789 
L 365.321526 415.585752 
L 365.998453 402.363748 
L 366.675381 402.420472 
L 367.352309 400.510274 
L 368.029236 398.959715 
L 368.706164 399.444928 
L 369.383092 398.589305 
L 370.06002 383.236088 
L 370.736947 395.274546 
L 371.413875 397.515173 
L 372.090803 402.91399 
L 372.767731 392.037719 
L 373.444658 398.274605 
L 374.121586 397.973302 
L 374.798514 390.746803 
L 375.475442 392.44968 
L 376.152369 401.388064 
L 376.829297 389.196414 
L 377.506225 386.900221 
L 378.183153 403.614983 
L 378.86008 399.080534 
L 379.537008 398.56498 
L 380.213936 390.910531 
L 380.890864 390.349936 
L 381.567791 392.444742 
L 382.244719 396.37042 
L 382.921647 389.127283 
L 383.598575 391.730302 
L 384.275502 409.033486 
L 384.95243 398.896939 
L 385.629358 408.647139 
L 386.306286 389.027151 
L 386.983213 388.054917 
L 387.660141 390.652114 
L 388.337069 392.679411 
L 389.013997 387.358156 
L 389.690924 400.440973 
L 390.367852 392.352449 
L 391.04478 393.835684 
L 391.721707 402.604652 
L 392.398635 388.901733 
L 393.075563 384.835323 
L 393.752491 387.415004 
L 394.429418 382.719262 
L 395.106346 389.049131 
L 395.783274 387.059896 
L 396.460202 390.081615 
L 397.137129 393.923688 
L 397.814057 383.613116 
L 398.490985 395.884341 
L 399.167913 378.784401 
L 399.84484 380.863337 
L 400.521768 388.830228 
L 401.198696 389.54675 
L 401.875624 392.865381 
L 402.552551 387.089087 
L 403.229479 392.033842 
L 403.906407 393.106383 
L 404.583335 388.051429 
L 405.260262 384.109623 
L 405.93719 390.150606 
L 406.614118 397.628463 
L 407.291046 386.9527 
L 407.967973 395.411946 
L 408.644901 384.621264 
L 409.321829 388.85855 
L 409.998757 388.728869 
L 410.675684 376.341847 
L 411.352612 379.353628 
L 412.02954 395.357803 
L 412.706468 390.682539 
L 413.383395 394.452437 
L 414.060323 386.108604 
L 414.737251 386.829273 
L 415.414178 379.893557 
L 416.091106 390.301278 
L 416.768034 378.89095 
L 417.444962 391.676302 
L 418.121889 378.382773 
L 418.798817 377.678491 
L 419.475745 390.138232 
L 420.152673 389.443742 
L 420.8296 383.533814 
L 421.506528 382.843599 
L 422.183456 374.498935 
L 422.860384 372.505494 
L 423.537311 379.628463 
L 424.214239 366.656363 
L 424.891167 356.094193 
L 425.568095 380.843775 
L 426.245022 371.61542 
L 426.92195 368.22054 
L 427.598878 367.744412 
L 428.275806 369.370523 
L 428.952733 375.130081 
L 429.629661 368.878896 
L 430.306589 366.149012 
L 430.983517 376.953799 
L 431.660444 368.889048 
L 432.337372 374.419625 
L 433.0143 381.60273 
L 434.368155 370.771861 
L 435.045083 377.676556 
L 435.722011 375.006434 
L 436.398939 381.877198 
L 437.075866 378.27368 
L 437.752794 378.35615 
L 438.429722 387.361947 
L 439.106649 375.574845 
L 439.783577 377.056552 
L 440.460505 374.43778 
L 441.137433 374.048898 
L 441.81436 385.394341 
L 443.168216 370.862841 
L 443.845144 374.578165 
L 444.522071 380.182066 
L 445.198999 372.969924 
L 445.875927 381.647928 
L 446.552855 385.084346 
L 447.229782 377.45643 
L 447.90671 390.043688 
L 448.583638 375.54629 
L 449.260566 388.860738 
L 449.937493 381.28663 
L 450.614421 389.199457 
L 451.291349 377.268175 
L 451.968277 372.043827 
L 452.645204 381.228967 
L 453.322132 387.435692 
L 453.99906 377.289906 
L 455.352915 365.681091 
L 456.029843 387.106459 
L 456.706771 361.530849 
L 457.383699 354.401817 
L 458.060626 372.510138 
L 458.737554 366.024009 
L 459.414482 353.241664 
L 460.09141 367.947397 
L 460.768337 359.619135 
L 461.445265 367.131039 
L 462.122193 365.17679 
L 462.79912 366.836597 
L 463.476048 361.186308 
L 464.152976 365.772664 
L 464.829904 363.518425 
L 465.506831 365.900635 
L 466.183759 366.383536 
L 466.860687 348.155644 
L 467.537615 353.849918 
L 468.214542 366.722401 
L 468.89147 372.226968 
L 469.568398 370.584423 
L 470.245326 375.250166 
L 470.922253 354.217243 
L 471.599181 372.533519 
L 472.276109 368.893034 
L 472.953037 360.422225 
L 473.629964 358.085294 
L 474.306892 369.074381 
L 474.98382 364.264826 
L 475.660748 361.351911 
L 477.014603 373.039889 
L 477.691531 356.645952 
L 478.368459 371.112676 
L 479.045386 372.841279 
L 479.722314 380.20012 
L 480.399242 366.197559 
L 481.07617 376.857113 
L 481.753097 385.125243 
L 482.430025 382.445539 
L 483.106953 365.988003 
L 483.783881 362.83737 
L 484.460808 370.311853 
L 485.137736 365.148087 
L 485.814664 362.609225 
L 486.491591 344.242065 
L 487.168519 359.529689 
L 487.845447 379.038593 
L 489.199302 343.170075 
L 489.87623 360.325649 
L 490.553158 358.290662 
L 491.230086 359.87775 
L 491.907013 355.846971 
L 492.583941 362.809586 
L 493.260869 364.473401 
L 493.937797 373.485116 
L 494.614724 364.216726 
L 495.291652 365.321167 
L 495.96858 376.023915 
L 496.645508 359.584043 
L 497.322435 373.560037 
L 497.999363 376.321858 
L 498.676291 371.954225 
L 499.353219 385.534274 
L 500.030146 385.360545 
L 500.707074 381.58424 
L 501.384002 392.130362 
L 502.06093 385.682561 
L 502.737857 368.434761 
L 503.414785 390.977642 
L 504.091713 371.204493 
L 504.768641 361.393862 
L 505.445568 381.02358 
L 506.122496 361.567073 
L 506.799424 370.548335 
L 507.476352 364.781656 
L 508.153279 351.389131 
L 508.830207 351.068953 
L 509.507135 365.705167 
L 510.184062 344.00111 
L 510.86099 357.21336 
L 511.537918 360.812259 
L 512.214846 371.702137 
L 512.891773 363.702928 
L 513.568701 362.426706 
L 514.245629 368.745685 
L 514.922557 351.996227 
L 515.599484 362.42879 
L 516.276412 364.644016 
L 516.95334 364.820336 
L 517.630268 358.975993 
L 518.307195 376.40128 
L 518.984123 370.769157 
L 519.661051 347.345972 
L 520.337979 362.599013 
L 521.014906 360.803159 
L 521.691834 369.531874 
L 522.368762 372.028337 
L 523.722617 365.038655 
L 524.399545 363.615318 
L 525.076473 359.023662 
L 525.753401 371.732152 
L 526.430328 368.38937 
L 527.107256 368.615321 
L 527.784184 365.442815 
L 528.461112 370.038563 
L 529.138039 358.268852 
L 529.814967 359.547968 
L 530.491895 372.563319 
L 531.168823 372.140509 
L 531.84575 379.998323 
L 532.522678 375.632413 
L 533.199606 369.54028 
L 533.876533 376.726421 
L 534.553461 369.120608 
L 535.230389 366.357372 
L 535.907317 359.79818 
L 536.584244 355.143925 
L 537.261172 381.10981 
L 537.9381 373.191162 
L 538.615028 376.108805 
L 539.291955 365.582245 
L 539.968883 366.793253 
L 540.645811 365.109714 
L 541.322739 359.130779 
L 541.999666 378.504674 
L 542.676594 345.70995 
L 543.353522 380.78029 
L 544.03045 369.919176 
L 544.707377 367.08642 
L 545.384305 357.549717 
L 546.061233 371.603064 
L 546.738161 361.63201 
L 547.415088 369.144683 
L 548.092016 363.85475 
L 548.768944 379.180625 
L 549.445872 360.025741 
L 550.122799 358.161419 
L 550.799727 358.732752 
L 551.476655 351.622294 
L 552.153583 361.449384 
L 552.83051 363.94048 
L 553.507438 368.327266 
L 554.184366 368.089875 
L 554.861294 370.299978 
L 555.538221 353.86018 
L 556.215149 366.391285 
L 556.892077 364.683897 
L 557.569004 365.873029 
L 558.245932 353.020459 
L 558.92286 373.271486 
L 559.599788 350.923931 
L 560.276715 348.437288 
L 560.953643 373.594761 
L 561.630571 355.65392 
L 562.307499 367.442581 
L 562.984426 369.276796 
L 563.661354 370.337885 
L 564.338282 392.497901 
L 565.692137 374.021482 
L 566.369065 394.685767 
L 567.045993 384.468956 
L 567.722921 387.309516 
L 568.399848 391.644361 
L 569.076776 365.371671 
L 569.753704 370.763591 
L 571.107559 374.603581 
L 571.784487 379.779424 
L 572.461415 369.079988 
L 573.138343 374.281423 
L 573.81527 377.018526 
L 574.492198 369.257133 
L 575.169126 358.77719 
L 575.846054 378.818674 
L 576.522981 365.885358 
L 577.199909 361.834894 
L 577.876837 353.606062 
L 578.553765 348.296465 
L 579.230692 351.66599 
L 579.90762 363.091548 
L 580.584548 347.779405 
L 581.261475 358.557814 
L 581.938403 366.207046 
L 582.615331 371.36982 
L 583.292259 354.315116 
L 583.969186 364.480732 
L 584.646114 363.223884 
L 585.323042 362.878553 
L 585.99997 372.271731 
L 586.676897 375.820023 
L 587.353825 360.247685 
L 588.030753 368.737563 
L 588.707681 358.107656 
L 589.384608 355.639788 
L 590.061536 360.70576 
L 590.738464 370.13312 
L 591.415392 363.139271 
L 592.092319 358.563962 
L 592.769247 361.795909 
L 593.446175 371.864676 
L 594.123103 361.832569 
L 594.80003 373.908523 
L 595.476958 366.807742 
L 596.153886 353.789548 
L 596.830814 368.802818 
L 597.507741 364.779958 
L 598.184669 373.305803 
L 598.861597 363.682596 
L 599.538525 357.955862 
L 600.215452 366.589159 
L 600.89238 363.458428 
L 601.569308 379.046793 
L 602.923163 374.878299 
L 603.600091 371.249448 
L 604.277019 366.691839 
L 604.953946 364.804453 
L 605.630874 364.797722 
L 606.307802 367.111707 
L 606.98473 372.712513 
L 607.661657 371.622668 
L 608.338585 384.643822 
L 609.015513 371.868238 
L 609.692441 381.108408 
L 610.369368 382.178849 
L 611.046296 373.6149 
L 611.723224 380.158562 
L 612.400152 384.220203 
L 613.077079 381.637585 
L 613.754007 387.076701 
L 614.430935 376.632068 
L 615.107863 381.853846 
L 615.78479 384.217043 
L 616.461718 366.15297 
L 617.138646 369.109387 
L 617.815574 377.363967 
L 618.492501 374.100113 
L 619.169429 364.458607 
L 619.846357 376.015321 
L 620.523285 380.537863 
L 621.200212 387.079294 
L 621.87714 373.588083 
L 622.554068 386.360098 
L 623.230996 383.561731 
L 623.907923 373.446207 
L 624.584851 365.795581 
L 625.261779 376.443059 
L 625.938706 378.319766 
L 626.615634 366.103338 
L 627.292562 362.817202 
L 627.96949 383.661628 
L 628.646417 374.907156 
L 629.323345 375.49052 
L 630.000273 370.144553 
L 630.677201 372.197662 
L 631.354128 369.865293 
L 632.031056 370.42559 
L 632.707984 378.303731 
L 633.384912 380.567883 
L 634.061839 379.45329 
L 634.738767 367.644219 
L 635.415695 372.679095 
L 636.092623 374.218639 
L 636.76955 372.853476 
L 637.446478 382.26808 
L 638.123406 376.233235 
L 638.800334 375.811275 
L 639.477261 390.71327 
L 640.154189 380.860911 
L 640.831117 386.223239 
L 641.508045 384.743575 
L 642.184972 376.571559 
L 642.8619 383.676962 
L 643.538828 389.598747 
L 644.215756 391.619507 
L 644.892683 390.911764 
L 645.569611 386.858534 
L 646.246539 391.374984 
L 646.923467 375.495328 
L 647.600394 380.339154 
L 648.277322 370.754685 
L 648.95425 378.523654 
L 649.631177 391.31156 
L 650.308105 379.321475 
L 650.985033 377.788327 
L 651.661961 373.02778 
L 652.338888 381.511305 
L 653.015816 383.545397 
L 653.692744 369.747091 
L 654.369672 374.667588 
L 655.046599 368.753769 
L 655.723527 369.982468 
L 656.400455 357.839513 
L 657.077383 369.894843 
L 657.75431 364.556364 
L 658.431238 364.84938 
L 659.108166 348.17809 
L 659.785094 359.783489 
L 660.462021 362.46488 
L 661.138949 368.468334 
L 661.815877 357.809048 
L 662.492805 363.881048 
L 663.169732 382.735434 
L 663.84666 374.455874 
L 664.523588 360.648262 
L 665.200516 376.243693 
L 665.877443 372.586434 
L 666.554371 369.938587 
L 667.231299 368.430265 
L 667.908227 365.663439 
L 668.585154 375.313164 
L 669.262082 365.356215 
L 669.93901 368.063368 
L 670.615938 383.857099 
L 671.292865 368.383914 
L 671.969793 359.382659 
L 672.646721 372.721741 
L 673.323648 378.698881 
L 674.000576 371.127242 
L 674.677504 354.984269 
L 675.354432 367.117428 
L 676.031359 384.127079 
L 676.708287 363.796877 
L 677.385215 370.892685 
L 678.062143 384.201064 
L 678.73907 369.395014 
L 679.415998 381.816963 
L 680.092926 369.99682 
L 680.769854 379.786242 
L 681.446781 366.2886 
L 682.123709 364.412499 
L 682.800637 369.071335 
L 683.477565 383.387581 
L 684.83142 365.111849 
L 685.508348 370.246607 
L 686.185276 362.419675 
L 686.862203 373.275568 
L 687.539131 371.520304 
L 688.216059 384.727694 
L 688.892987 366.023571 
L 689.569914 370.266752 
L 690.246842 369.949102 
L 690.92377 372.105131 
L 691.600698 389.17637 
L 692.277625 368.367219 
L 692.954553 371.28225 
L 693.631481 375.78166 
L 694.308409 390.630244 
L 694.985336 379.112712 
L 695.662264 375.700383 
L 696.339192 362.612434 
L 697.016119 367.821266 
L 697.693047 368.781701 
L 698.369975 373.815251 
L 699.046903 366.440409 
L 699.72383 367.782737 
L 700.400758 381.114173 
L 701.077686 373.861357 
L 701.754614 375.279436 
L 702.431541 379.20169 
L 703.108469 392.644998 
L 704.462325 371.380407 
L 705.139252 365.347249 
L 705.81618 380.693612 
L 706.493108 374.184155 
L 707.170036 374.802795 
L 707.846963 372.683243 
L 708.523891 375.940576 
L 709.200819 382.805719 
L 709.877747 379.466927 
L 710.554674 379.946008 
L 711.231602 378.536736 
L 711.90853 369.337253 
L 712.585458 392.743935 
L 713.262385 376.393489 
L 713.939313 380.932144 
L 714.616241 367.076459 
L 715.293169 376.190984 
L 715.970096 372.573615 
L 716.647024 372.049784 
L 717.323952 363.851716 
L 718.00088 376.446402 
L 718.677807 378.297763 
L 719.354735 382.715122 
L 720.031663 379.484096 
L 720.70859 397.039062 
L 721.385518 382.527522 
L 722.062446 372.699227 
L 722.739374 379.209707 
L 723.416301 372.483786 
L 724.093229 385.169686 
L 724.770157 372.632175 
L 725.447085 385.409699 
L 726.124012 375.710152 
L 726.80094 373.699345 
L 727.477868 373.199123 
L 728.154796 367.838686 
L 728.831723 392.385941 
L 729.508651 370.399446 
L 730.185579 374.130701 
L 730.862507 366.806519 
L 731.539434 376.967247 
L 732.216362 375.056024 
L 732.89329 374.459742 
L 733.570218 382.026224 
L 734.247145 373.236925 
L 734.924073 368.252429 
L 735.601001 380.675666 
L 736.277929 371.412074 
L 736.954856 376.235522 
L 737.631784 388.190107 
L 738.308712 372.010736 
L 738.98564 374.214407 
L 739.662567 388.536658 
L 740.339495 377.281661 
L 741.016423 392.503124 
L 741.693351 378.546962 
L 742.370278 389.464567 
L 743.047206 380.24542 
L 743.724134 378.882256 
L 744.401061 379.846794 
L 745.077989 381.128127 
L 745.754917 360.221193 
L 746.431845 359.148242 
L 747.108772 378.660324 
L 747.7857 372.963976 
L 748.462628 365.246131 
L 749.139556 359.893749 
L 750.493411 369.974692 
L 751.170339 369.717584 
L 751.847267 353.844501 
L 752.524194 365.597122 
L 753.201122 346.540066 
L 753.87805 367.34654 
L 755.231905 348.974878 
L 755.908833 359.909444 
L 756.585761 360.522192 
L 757.262689 365.739337 
L 757.939616 325.719188 
L 758.616544 352.649619 
L 759.293472 348.350289 
L 759.9704 349.217344 
L 760.647327 363.53349 
L 761.324255 362.240974 
L 762.001183 351.05783 
L 762.678111 354.997485 
L 763.355038 369.060959 
L 764.708894 353.859899 
L 765.385822 364.934705 
L 766.062749 338.009288 
L 766.739677 346.801572 
L 767.416605 341.004059 
L 768.093532 332.693726 
L 768.77046 340.193664 
L 769.447388 335.713061 
L 770.124316 336.621242 
L 770.801243 317.330976 
L 771.478171 320.962096 
L 772.155099 338.222715 
L 772.832027 323.190044 
L 773.508954 322.715809 
L 774.185882 338.350569 
L 774.86281 336.875675 
L 775.539738 327.320645 
L 776.216665 319.551065 
L 776.893593 335.820513 
L 777.570521 330.695671 
L 778.247449 355.516826 
L 778.924376 329.818728 
L 779.601304 334.451652 
L 780.278232 329.658525 
L 780.95516 340.562683 
L 781.632087 321.345505 
L 782.309015 324.253973 
L 782.985943 322.974912 
L 783.662871 337.761225 
L 784.339798 333.078959 
L 785.016726 321.421157 
L 785.693654 329.06965 
L 786.370582 312.016953 
L 787.047509 319.834121 
L 787.724437 340.629936 
L 788.401365 325.130936 
L 789.078293 331.836623 
L 789.75522 325.500218 
L 790.432148 338.461004 
L 791.109076 347.177694 
L 791.786003 349.785788 
L 792.462931 341.348942 
L 793.139859 328.926237 
L 793.816787 324.277494 
L 794.493714 327.283472 
L 795.170642 320.809386 
L 795.84757 337.022924 
L 796.524498 332.429012 
L 797.201425 334.865264 
L 797.878353 325.598102 
L 798.555281 358.009773 
L 799.232209 334.041567 
L 799.909136 315.437228 
L 800.586064 346.467051 
L 801.262992 344.555082 
L 801.93992 345.962092 
L 802.616847 341.136782 
L 803.293775 345.516908 
L 803.970703 331.812426 
L 805.324558 351.897813 
L 806.001486 347.174263 
L 806.678414 334.379167 
L 807.355342 336.990115 
L 808.032269 348.008798 
L 808.709197 348.044167 
L 809.386125 344.38764 
L 810.063053 343.195067 
L 810.73998 326.861879 
L 811.416908 352.193035 
L 812.093836 350.773089 
L 812.770764 331.585011 
L 813.447691 337.247384 
L 814.124619 341.418316 
L 814.801547 338.514524 
L 815.478474 352.309471 
L 816.155402 346.830906 
L 816.83233 345.903192 
L 817.509258 341.249347 
L 818.186185 348.693399 
L 818.863113 346.634314 
L 819.540041 337.356442 
L 820.216969 321.924253 
L 820.893896 324.667864 
L 821.570824 323.928403 
L 822.247752 341.789987 
L 822.92468 338.622447 
L 823.601607 337.714482 
L 824.278535 316.708627 
L 824.955463 332.099765 
L 825.632391 331.178287 
L 826.309318 325.946475 
L 826.986246 340.550613 
L 827.663174 340.087722 
L 828.340102 341.388388 
L 829.017029 334.430714 
L 829.693957 339.739325 
L 830.370885 354.134573 
L 831.047813 349.263319 
L 831.72474 325.2362 
L 832.401668 317.553029 
L 833.078596 317.849407 
L 833.755524 326.886203 
L 834.432451 338.182239 
L 835.109379 314.012518 
L 835.786307 337.696159 
L 837.140162 336.967133 
L 837.81709 325.692525 
L 838.494018 336.347681 
L 839.170945 339.301888 
L 839.847873 323.918157 
L 840.524801 326.156855 
L 841.201729 341.782373 
L 841.878656 339.333284 
L 842.555584 333.130125 
L 843.232512 332.390256 
L 843.90944 318.556633 
L 844.586367 345.238442 
L 845.263295 346.187711 
L 845.940223 319.770582 
L 846.617151 343.132979 
L 847.294078 344.969482 
L 847.971006 332.002541 
L 848.647934 347.977863 
L 849.324862 337.038208 
L 850.001789 341.440926 
L 850.678717 336.538194 
L 851.355645 339.134855 
L 852.032573 358.075824 
L 852.7095 341.710292 
L 853.386428 354.077855 
L 854.063356 364.082144 
L 854.740284 359.098712 
L 855.417211 365.544433 
L 856.094139 363.934839 
L 856.771067 365.418473 
L 857.447995 361.252662 
L 858.124922 360.376895 
L 858.80185 357.477819 
L 859.478778 364.852538 
L 860.155706 361.368046 
L 860.832633 355.377258 
L 861.509561 360.389916 
L 862.863416 352.89535 
L 863.540344 345.422734 
L 864.217272 341.739218 
L 864.8942 347.905277 
L 865.571127 365.535634 
L 866.248055 356.521572 
L 866.924983 351.624561 
L 867.601911 360.626691 
L 868.278838 359.018864 
L 868.955766 366.169953 
L 869.632694 355.460095 
L 870.309622 369.175099 
L 870.986549 363.259722 
L 871.663477 361.352968 
L 872.340405 371.855633 
L 873.017333 364.904743 
L 873.69426 372.241834 
L 874.371188 362.247411 
L 875.048116 364.81322 
L 875.725044 357.376643 
L 876.401971 359.616493 
L 877.078899 356.814722 
L 877.755827 348.204975 
L 878.432755 368.265231 
L 879.109682 360.001743 
L 879.78661 355.544168 
L 880.463538 343.242362 
L 881.140466 358.201128 
L 881.817393 349.746006 
L 882.494321 346.585022 
L 883.171249 350.082791 
L 883.848177 366.684588 
L 884.525104 354.315137 
L 885.202032 352.539914 
L 885.87896 339.646523 
L 886.555887 337.70987 
L 887.232815 344.124447 
L 887.909743 333.886955 
L 888.586671 341.916043 
L 889.263598 336.347262 
L 889.940526 341.641978 
L 890.617454 327.454533 
L 891.294382 333.992734 
L 891.971309 338.29465 
L 892.648237 346.313409 
L 893.325165 333.38447 
L 894.002093 339.805175 
L 894.67902 333.066952 
L 895.355948 334.372129 
L 896.032876 335.975549 
L 896.709804 332.977187 
L 897.386731 329.472215 
L 898.063659 339.291118 
L 898.740587 310.961542 
L 899.417515 334.676288 
L 900.094442 344.460588 
L 900.77137 325.748925 
L 901.448298 322.683724 
L 902.125226 360.568714 
L 902.802153 334.062286 
L 903.479081 329.867252 
L 904.156009 342.896976 
L 904.832937 324.4172 
L 905.509864 335.139171 
L 906.186792 320.794726 
L 907.540648 330.285191 
L 908.217575 322.538449 
L 908.894503 334.01924 
L 909.571431 328.502091 
L 910.248358 329.477474 
L 910.925286 346.84161 
L 911.602214 343.797762 
L 912.279142 338.569874 
L 912.956069 330.698367 
L 913.632997 341.351905 
L 914.309925 346.271053 
L 914.986853 321.524782 
L 915.66378 310.987932 
L 916.340708 326.072578 
L 917.017636 327.147298 
L 917.694564 342.48963 
L 918.371491 337.689023 
L 919.048419 323.871951 
L 919.725347 323.862339 
L 920.402275 318.315314 
L 921.079202 331.741806 
L 921.75613 322.836742 
L 922.433058 332.875028 
L 923.109986 327.495633 
L 923.786913 331.654859 
L 924.463841 320.273205 
L 925.140769 335.283405 
L 925.817697 326.616863 
L 926.494624 313.940475 
L 927.171552 317.047841 
L 928.525408 341.608402 
L 929.202335 338.40593 
L 929.879263 332.230444 
L 930.556191 333.178934 
L 931.233119 338.749933 
L 931.910046 329.929847 
L 932.586974 330.383134 
L 933.263902 334.182679 
L 933.940829 318.102463 
L 934.617757 316.063879 
L 935.294685 338.520607 
L 935.971613 341.772115 
L 936.64854 330.81681 
L 937.325468 317.529632 
L 938.002396 322.817087 
L 939.356251 339.587151 
L 940.033179 341.81262 
L 940.710107 324.748118 
L 941.387035 351.27872 
L 942.063962 346.947007 
L 942.74089 343.43435 
L 943.417818 324.875011 
L 944.094746 340.159568 
L 944.771673 347.160077 
L 945.448601 335.738393 
L 946.125529 337.214539 
L 947.479384 329.154426 
L 948.156312 332.235221 
L 948.83324 319.105826 
L 949.510168 342.058099 
L 950.187095 330.751528 
L 950.864023 325.786018 
L 951.540951 337.380716 
L 952.217879 328.757652 
L 952.894806 340.908754 
L 953.571734 334.41497 
L 954.248662 336.879953 
L 954.92559 340.927586 
L 955.602517 335.221652 
L 956.279445 345.276464 
L 956.956373 345.940103 
L 958.310228 332.110011 
L 958.987156 342.686472 
L 959.664084 310.868471 
L 960.341011 334.755941 
L 961.017939 318.804299 
L 961.694867 337.231943 
L 962.371795 339.515681 
L 963.048722 327.992824 
L 965.079506 337.800992 
L 965.756433 330.258463 
L 966.433361 334.295843 
L 967.110289 344.47418 
L 967.787217 344.071404 
L 968.464144 342.846133 
L 969.141072 316.595273 
L 969.818 335.248438 
L 970.494928 346.34939 
L 971.171855 337.338423 
L 971.848783 351.231485 
L 972.525711 334.399154 
L 973.202639 350.261296 
L 973.879566 345.73461 
L 974.556494 366.981181 
L 975.233422 325.895457 
L 975.91035 344.594894 
L 976.587277 321.520008 
L 977.264205 340.970126 
L 977.941133 315.032993 
L 978.618061 316.64288 
L 979.971916 339.744545 
L 980.648844 332.49464 
L 981.325771 331.336034 
L 982.679627 312.224421 
L 983.356555 339.841187 
L 984.033482 335.629399 
L 984.71041 330.10476 
L 985.387338 321.078235 
L 986.064266 338.726442 
L 986.741193 336.489826 
L 987.418121 321.29328 
L 988.095049 334.845325 
L 988.771977 341.397551 
L 989.448904 325.224035 
L 990.125832 332.38912 
L 990.80276 318.150745 
L 991.479688 331.169795 
L 992.156615 369.437252 
L 992.833543 349.681136 
L 993.510471 358.465973 
L 994.187399 373.091456 
L 994.864326 367.946394 
L 995.541254 365.568447 
L 996.218182 360.283332 
L 996.218182 360.283332 
" style="fill:none;stroke:#ff7f0e;stroke-linecap:square;stroke-width:1.5;"/>
   </g>
   <g id="patch_3">
    <path d="M 144 630 
L 144 86.4 
" style="fill:none;stroke:#000000;stroke-linecap:square;stroke-linejoin:miter;stroke-width:0.8;"/>
   </g>
   <g id="patch_4">
    <path d="M 1036.8 630 
L 1036.8 86.4 
" style="fill:none;stroke:#000000;stroke-linecap:square;stroke-linejoin:miter;stroke-width:0.8;"/>
   </g>
   <g id="patch_5">
    <path d="M 144 630 
L 1036.8 630 
" style="fill:none;stroke:#000000;stroke-linecap:square;stroke-linejoin:miter;stroke-width:0.8;"/>
   </g>
   <g id="patch_6">
    <path d="M 144 86.4 
L 1036.8 86.4 
" style="fill:none;stroke:#000000;stroke-linecap:square;stroke-linejoin:miter;stroke-width:0.8;"/>
   </g>
   <g id="text_17">
    <!-- 70 samples, 120 hiddens -->
    <defs>
     <path d="M 44.28125 53.078125 
L 44.28125 44.578125 
Q 40.484375 46.53125 36.375 47.5 
Q 32.28125 48.484375 27.875 48.484375 
Q 21.1875 48.484375 17.84375 46.4375 
Q 14.5 44.390625 14.5 40.28125 
Q 14.5 37.15625 16.890625 35.375 
Q 19.28125 33.59375 26.515625 31.984375 
L 29.59375 31.296875 
Q 39.15625 29.25 43.1875 25.515625 
Q 47.21875 21.78125 47.21875 15.09375 
Q 47.21875 7.46875 41.1875 3.015625 
Q 35.15625 -1.421875 24.609375 -1.421875 
Q 20.21875 -1.421875 15.453125 -0.5625 
Q 10.6875 0.296875 5.421875 2 
L 5.421875 11.28125 
Q 10.40625 8.6875 15.234375 7.390625 
Q 20.0625 6.109375 24.8125 6.109375 
Q 31.15625 6.109375 34.5625 8.28125 
Q 37.984375 10.453125 37.984375 14.40625 
Q 37.984375 18.0625 35.515625 20.015625 
Q 33.0625 21.96875 24.703125 23.78125 
L 21.578125 24.515625 
Q 13.234375 26.265625 9.515625 29.90625 
Q 5.8125 33.546875 5.8125 39.890625 
Q 5.8125 47.609375 11.28125 51.796875 
Q 16.75 56 26.8125 56 
Q 31.78125 56 36.171875 55.265625 
Q 40.578125 54.546875 44.28125 53.078125 
z
" id="DejaVuSans-73"/>
     <path d="M 18.109375 8.203125 
L 18.109375 -20.796875 
L 9.078125 -20.796875 
L 9.078125 54.6875 
L 18.109375 54.6875 
L 18.109375 46.390625 
Q 20.953125 51.265625 25.265625 53.625 
Q 29.59375 56 35.59375 56 
Q 45.5625 56 51.78125 48.09375 
Q 58.015625 40.1875 58.015625 27.296875 
Q 58.015625 14.40625 51.78125 6.484375 
Q 45.5625 -1.421875 35.59375 -1.421875 
Q 29.59375 -1.421875 25.265625 0.953125 
Q 20.953125 3.328125 18.109375 8.203125 
z
M 48.6875 27.296875 
Q 48.6875 37.203125 44.609375 42.84375 
Q 40.53125 48.484375 33.40625 48.484375 
Q 26.265625 48.484375 22.1875 42.84375 
Q 18.109375 37.203125 18.109375 27.296875 
Q 18.109375 17.390625 22.1875 11.75 
Q 26.265625 6.109375 33.40625 6.109375 
Q 40.53125 6.109375 44.609375 11.75 
Q 48.6875 17.390625 48.6875 27.296875 
z
" id="DejaVuSans-70"/>
     <path d="M 11.71875 12.40625 
L 22.015625 12.40625 
L 22.015625 4 
L 14.015625 -11.625 
L 7.71875 -11.625 
L 11.71875 4 
z
" id="DejaVuSans-2c"/>
     <path d="M 54.890625 33.015625 
L 54.890625 0 
L 45.90625 0 
L 45.90625 32.71875 
Q 45.90625 40.484375 42.875 44.328125 
Q 39.84375 48.1875 33.796875 48.1875 
Q 26.515625 48.1875 22.3125 43.546875 
Q 18.109375 38.921875 18.109375 30.90625 
L 18.109375 0 
L 9.078125 0 
L 9.078125 75.984375 
L 18.109375 75.984375 
L 18.109375 46.1875 
Q 21.34375 51.125 25.703125 53.5625 
Q 30.078125 56 35.796875 56 
Q 45.21875 56 50.046875 50.171875 
Q 54.890625 44.34375 54.890625 33.015625 
z
" id="DejaVuSans-68"/>
    </defs>
    <g transform="translate(515.037187 80.4)scale(0.12 -0.12)">
     <use xlink:href="#DejaVuSans-37"/>
     <use x="63.623047" xlink:href="#DejaVuSans-30"/>
     <use x="127.246094" xlink:href="#DejaVuSans-20"/>
     <use x="159.033203" xlink:href="#DejaVuSans-73"/>
     <use x="211.132812" xlink:href="#DejaVuSans-61"/>
     <use x="272.412109" xlink:href="#DejaVuSans-6d"/>
     <use x="369.824219" xlink:href="#DejaVuSans-70"/>
     <use x="433.300781" xlink:href="#DejaVuSans-6c"/>
     <use x="461.083984" xlink:href="#DejaVuSans-65"/>
     <use x="522.607422" xlink:href="#DejaVuSans-73"/>
     <use x="574.707031" xlink:href="#DejaVuSans-2c"/>
     <use x="606.494141" xlink:href="#DejaVuSans-20"/>
     <use x="638.28125" xlink:href="#DejaVuSans-31"/>
     <use x="701.904297" xlink:href="#DejaVuSans-32"/>
     <use x="765.527344" xlink:href="#DejaVuSans-30"/>
     <use x="829.150391" xlink:href="#DejaVuSans-20"/>
     <use x="860.9375" xlink:href="#DejaVuSans-68"/>
     <use x="924.316406" xlink:href="#DejaVuSans-69"/>
     <use x="952.099609" xlink:href="#DejaVuSans-64"/>
     <use x="1015.576172" xlink:href="#DejaVuSans-64"/>
     <use x="1079.052734" xlink:href="#DejaVuSans-65"/>
     <use x="1140.576172" xlink:href="#DejaVuSans-6e"/>
     <use x="1203.955078" xlink:href="#DejaVuSans-73"/>
    </g>
   </g>
   <g id="legend_1">
    <g id="patch_7">
     <path d="M 969.440625 123.75625 
L 1029.8 123.75625 
Q 1031.8 123.75625 1031.8 121.75625 
L 1031.8 93.4 
Q 1031.8 91.4 1029.8 91.4 
L 969.440625 91.4 
Q 967.440625 91.4 967.440625 93.4 
L 967.440625 121.75625 
Q 967.440625 123.75625 969.440625 123.75625 
z
" style="fill:#ffffff;opacity:0.8;stroke:#cccccc;stroke-linejoin:miter;"/>
    </g>
    <g id="line2d_17">
     <path d="M 971.440625 99.498437 
L 991.440625 99.498437 
" style="fill:none;stroke:#ff7f0e;stroke-linecap:square;stroke-width:1.5;"/>
    </g>
    <g id="line2d_18"/>
    <g id="text_18">
     <!-- mean -->
     <g transform="translate(999.440625 102.998437)scale(0.1 -0.1)">
      <use xlink:href="#DejaVuSans-6d"/>
      <use x="97.412109" xlink:href="#DejaVuSans-65"/>
      <use x="158.935547" xlink:href="#DejaVuSans-61"/>
      <use x="220.214844" xlink:href="#DejaVuSans-6e"/>
     </g>
    </g>
    <g id="line2d_19">
     <path d="M 971.440625 114.176562 
L 991.440625 114.176562 
" style="fill:none;stroke:#1f77b4;stroke-linecap:square;stroke-width:1.5;"/>
    </g>
    <g id="line2d_20"/>
    <g id="text_19">
     <!-- max -->
     <defs>
      <path d="M 54.890625 54.6875 
L 35.109375 28.078125 
L 55.90625 0 
L 45.3125 0 
L 29.390625 21.484375 
L 13.484375 0 
L 2.875 0 
L 24.125 28.609375 
L 4.6875 54.6875 
L 15.28125 54.6875 
L 29.78125 35.203125 
L 44.28125 54.6875 
z
" id="DejaVuSans-78"/>
     </defs>
     <g transform="translate(999.440625 117.676562)scale(0.1 -0.1)">
      <use xlink:href="#DejaVuSans-6d"/>
      <use x="97.412109" xlink:href="#DejaVuSans-61"/>
      <use x="158.691406" xlink:href="#DejaVuSans-78"/>
     </g>
    </g>
   </g>
  </g>
 </g>
 <defs>
  <clipPath id="pb334f13614">
   <rect height="543.6" width="892.8" x="144" y="86.4"/>
  </clipPath>
 </defs>
</svg>
